G04 #@! TF.GenerationSoftware,KiCad,Pcbnew,10.0.4*
G04 #@! TF.CreationDate,2026-07-25T23:10:04+02:00*
G04 #@! TF.ProjectId,KanDao Meeting Pro,4b616e44-616f-4204-9d65-6574696e6720,rev?*
G04 #@! TF.SameCoordinates,Original*
G04 #@! TF.FileFunction,Legend,Top*
G04 #@! TF.FilePolarity,Positive*
%FSLAX46Y46*%
G04 Gerber Fmt 4.6, Leading zero omitted, Abs format (unit mm)*
G04 Created by KiCad (PCBNEW 10.0.4) date 2026-07-25 23:10:04*
%MOMM*%
%LPD*%
G01*
G04 APERTURE LIST*
%ADD10C,0.100000*%
G04 APERTURE END LIST*
D10*
X119025000Y-88275000D02*
X119025000Y-89550000D01*
X119025000Y-88275000D02*
X119250000Y-88275000D01*
X119025000Y-91825000D02*
X119025000Y-90550000D01*
X119025000Y-91825000D02*
X119250000Y-91825000D01*
X120050000Y-88275000D02*
X121550000Y-88275000D01*
X120050000Y-91825000D02*
X121550000Y-91825000D01*
X122575000Y-88275000D02*
X122350000Y-88275000D01*
X122575000Y-88275000D02*
X122575000Y-89550000D01*
X122575000Y-91825000D02*
X122350000Y-91825000D01*
X122575000Y-91825000D02*
X122575000Y-90550000D01*
X124300000Y-88375000D02*
X124300000Y-89375000D01*
X124300000Y-88375000D02*
X124350000Y-88375000D01*
X124300000Y-89375000D02*
X124350000Y-89375000D01*
X125300000Y-88375000D02*
X125250000Y-88375000D01*
X125300000Y-88375000D02*
X125300000Y-89375000D01*
X125300000Y-89375000D02*
X125250000Y-89375000D01*
X100500000Y-88375000D02*
X100500000Y-89375000D01*
X100500000Y-88375000D02*
X100550000Y-88375000D01*
X100500000Y-89375000D02*
X100550000Y-89375000D01*
X101500000Y-88375000D02*
X101450000Y-88375000D01*
X101500000Y-88375000D02*
X101500000Y-89375000D01*
X101500000Y-89375000D02*
X101450000Y-89375000D01*
X95225000Y-88275000D02*
X95225000Y-89550000D01*
X95225000Y-88275000D02*
X95450000Y-88275000D01*
X95225000Y-91825000D02*
X95225000Y-90550000D01*
X95225000Y-91825000D02*
X95450000Y-91825000D01*
X96250000Y-88275000D02*
X97750000Y-88275000D01*
X96250000Y-91825000D02*
X97750000Y-91825000D01*
X98775000Y-88275000D02*
X98550000Y-88275000D01*
X98775000Y-88275000D02*
X98775000Y-89550000D01*
X98775000Y-91825000D02*
X98550000Y-91825000D01*
X98775000Y-91825000D02*
X98775000Y-90550000D01*
M02*
