G04 #@! TF.GenerationSoftware,KiCad,Pcbnew,10.0.4*
G04 #@! TF.CreationDate,2026-07-25T23:10:04+02:00*
G04 #@! TF.ProjectId,KanDao Meeting Pro,4b616e44-616f-4204-9d65-6574696e6720,rev?*
G04 #@! TF.SameCoordinates,Original*
G04 #@! TF.FileFunction,Copper,L1,Top*
G04 #@! TF.FilePolarity,Positive*
%FSLAX46Y46*%
G04 Gerber Fmt 4.6, Leading zero omitted, Abs format (unit mm)*
G04 Created by KiCad (PCBNEW 10.0.4) date 2026-07-25 23:10:04*
%MOMM*%
%LPD*%
G01*
G04 APERTURE LIST*
G04 Aperture macros list*
%AMRoundRect*
0 Rectangle with rounded corners*
0 $1 Rounding radius*
0 $2 $3 $4 $5 $6 $7 $8 $9 X,Y pos of 4 corners*
0 Add a 4 corners polygon primitive as box body*
4,1,4,$2,$3,$4,$5,$6,$7,$8,$9,$2,$3,0*
0 Add four circle primitives for the rounded corners*
1,1,$1+$1,$2,$3*
1,1,$1+$1,$4,$5*
1,1,$1+$1,$6,$7*
1,1,$1+$1,$8,$9*
0 Add four rect primitives between the rounded corners*
20,1,$1+$1,$2,$3,$4,$5,0*
20,1,$1+$1,$4,$5,$6,$7,0*
20,1,$1+$1,$6,$7,$8,$9,0*
20,1,$1+$1,$8,$9,$2,$3,0*%
G04 Aperture macros list end*
G04 #@! TA.AperFunction,SMDPad,CuDef*
%ADD10RoundRect,0.160000X0.160000X-0.222500X0.160000X0.222500X-0.160000X0.222500X-0.160000X-0.222500X0*%
G04 #@! TD*
G04 #@! TA.AperFunction,SMDPad,CuDef*
%ADD11RoundRect,0.160000X0.160000X-0.220000X0.160000X0.220000X-0.160000X0.220000X-0.160000X-0.220000X0*%
G04 #@! TD*
G04 #@! TA.AperFunction,SMDPad,CuDef*
%ADD12RoundRect,0.090000X0.210000X-0.310000X0.210000X0.310000X-0.210000X0.310000X-0.210000X-0.310000X0*%
G04 #@! TD*
G04 #@! TA.AperFunction,SMDPad,CuDef*
%ADD13RoundRect,0.105000X0.245000X-0.295000X0.245000X0.295000X-0.245000X0.295000X-0.245000X-0.295000X0*%
G04 #@! TD*
G04 #@! TA.AperFunction,SMDPad,CuDef*
%ADD14RoundRect,0.105000X-0.245000X0.245000X-0.245000X-0.245000X0.245000X-0.245000X0.245000X0.245000X0*%
G04 #@! TD*
G04 #@! TA.AperFunction,ViaPad*
%ADD15C,0.600000*%
G04 #@! TD*
G04 #@! TA.AperFunction,Conductor*
%ADD16C,0.400000*%
G04 #@! TD*
G04 APERTURE END LIST*
D10*
X110800000Y-89450000D03*
D11*
X110800000Y-90650000D03*
D12*
X119650000Y-91775000D03*
X119650000Y-88325000D03*
X121950000Y-91775000D03*
X121950000Y-88325000D03*
D13*
X119075000Y-90050000D03*
X122525000Y-90050000D03*
D14*
X124800000Y-88325000D03*
X124800000Y-89425000D03*
X101000000Y-88325000D03*
X101000000Y-89425000D03*
D12*
X95850000Y-91775000D03*
X95850000Y-88325000D03*
X98150000Y-91775000D03*
X98150000Y-88325000D03*
D13*
X95275000Y-90050000D03*
X98725000Y-90050000D03*
D15*
X137000000Y-57600000D03*
X176400000Y-104000000D03*
X176400000Y-104000000D03*
X176400000Y-104000000D03*
X174000000Y-104000000D03*
X105000000Y-90000000D03*
X114000000Y-90000000D03*
X108000000Y-84000000D03*
X108000000Y-96000000D03*
X120000000Y-84000000D03*
X120000000Y-96000000D03*
X129000000Y-87000000D03*
X129000000Y-96000000D03*
X138000000Y-90000000D03*
X138000000Y-81000000D03*
X138000000Y-99000000D03*
X96000000Y-96000000D03*
X96000000Y-84000000D03*
X88000000Y-88000000D03*
X88000000Y-92000000D03*
X120800000Y-90050000D03*
X97000000Y-90050000D03*
X110800000Y-89450000D03*
X124800000Y-89425000D03*
X101000000Y-89425000D03*
D16*
X121950000Y-91775000D02*
X121875000Y-91700000D01*
X121875000Y-88400000D02*
X121950000Y-88325000D01*
X121950000Y-88325000D02*
X124800000Y-88325000D01*
X121875000Y-91700000D02*
X121875000Y-88400000D01*
X98150000Y-88325000D02*
X101000000Y-88325000D01*
X98075000Y-88400000D02*
X98150000Y-88325000D01*
X98075000Y-91700000D02*
X98075000Y-88400000D01*
X98150000Y-91775000D02*
X98075000Y-91700000D01*
G04 #@! TA.AperFunction,Conductor*
G36*
X138202130Y-80199830D02*
G01*
X138369303Y-80214457D01*
X138377698Y-80215938D01*
X138537708Y-80258813D01*
X138545731Y-80261733D01*
X138695873Y-80331745D01*
X138703256Y-80336008D01*
X138838953Y-80431024D01*
X138845496Y-80436514D01*
X138962630Y-80553648D01*
X138968120Y-80560191D01*
X139063134Y-80695885D01*
X139067403Y-80703278D01*
X139137410Y-80853411D01*
X139140331Y-80861437D01*
X139183204Y-81021438D01*
X139184688Y-81029849D01*
X139199314Y-81197019D01*
X139199500Y-81201290D01*
X139199500Y-90889414D01*
X139199500Y-90901468D01*
X139199497Y-91003821D01*
X139219556Y-91130500D01*
X139231513Y-91206008D01*
X139294764Y-91400692D01*
X139294765Y-91400694D01*
X139294766Y-91400696D01*
X139320515Y-91451233D01*
X139387700Y-91583096D01*
X139508021Y-91748704D01*
X139508025Y-91748709D01*
X139652763Y-91893447D01*
X139652767Y-91893450D01*
X139652769Y-91893452D01*
X139696192Y-91925000D01*
X139818375Y-92013771D01*
X139818377Y-92013772D01*
X139818380Y-92013774D01*
X140000776Y-92106706D01*
X140195464Y-92169959D01*
X140397651Y-92201975D01*
X140500004Y-92201972D01*
X140502550Y-92201971D01*
X174423069Y-92203334D01*
X174423071Y-92203335D01*
X174445086Y-92203335D01*
X174448630Y-92203335D01*
X174451374Y-92203412D01*
X174755103Y-92220469D01*
X174760548Y-92221082D01*
X175059116Y-92271811D01*
X175064462Y-92273031D01*
X175217412Y-92317096D01*
X175355460Y-92356867D01*
X175360646Y-92358682D01*
X175640418Y-92474567D01*
X175645369Y-92476951D01*
X175910424Y-92623441D01*
X175915060Y-92626355D01*
X176056872Y-92726976D01*
X176162035Y-92801594D01*
X176166331Y-92805019D01*
X176392137Y-93006811D01*
X176396023Y-93010697D01*
X176597815Y-93236503D01*
X176601240Y-93240799D01*
X176776474Y-93487766D01*
X176779398Y-93492419D01*
X176925883Y-93757465D01*
X176928267Y-93762416D01*
X177044152Y-94042188D01*
X177045967Y-94047374D01*
X177129801Y-94338367D01*
X177131024Y-94343724D01*
X177181751Y-94642278D01*
X177182366Y-94647739D01*
X177199423Y-94951463D01*
X177199500Y-94954210D01*
X177199500Y-99723071D01*
X177199500Y-99750000D01*
X177199500Y-99833158D01*
X177204477Y-99861387D01*
X177228381Y-99996951D01*
X177285262Y-100153231D01*
X177285266Y-100153240D01*
X177368417Y-100297262D01*
X177368420Y-100297266D01*
X177368421Y-100297267D01*
X177475327Y-100424673D01*
X177564503Y-100499500D01*
X177602737Y-100531582D01*
X177746759Y-100614733D01*
X177746763Y-100614735D01*
X177746767Y-100614737D01*
X177903048Y-100671618D01*
X177903047Y-100671618D01*
X177903053Y-100671620D01*
X178066842Y-100700500D01*
X178130009Y-100700500D01*
X221223071Y-100700500D01*
X221248513Y-100700500D01*
X221251471Y-100700589D01*
X221506145Y-100715993D01*
X221512010Y-100716706D01*
X221761502Y-100762428D01*
X221767229Y-100763839D01*
X222009393Y-100839301D01*
X222014923Y-100841398D01*
X222246225Y-100945499D01*
X222251456Y-100948245D01*
X222468521Y-101079464D01*
X222473380Y-101082817D01*
X222603689Y-101184908D01*
X222673049Y-101239248D01*
X222677478Y-101243172D01*
X222856827Y-101422521D01*
X222860751Y-101426950D01*
X223017178Y-101626614D01*
X223020539Y-101631484D01*
X223151752Y-101848539D01*
X223154502Y-101853778D01*
X223258600Y-102085074D01*
X223260698Y-102090606D01*
X223336157Y-102332761D01*
X223337573Y-102338506D01*
X223383292Y-102587984D01*
X223384006Y-102593858D01*
X223399411Y-102848527D01*
X223399500Y-102851486D01*
X223399500Y-113450500D01*
X223385148Y-113485148D01*
X223350500Y-113499500D01*
X220552419Y-113499500D01*
X220517771Y-113485148D01*
X220503419Y-113450508D01*
X220501972Y-104796466D01*
X220501972Y-104696176D01*
X220469949Y-104493996D01*
X220469949Y-104493994D01*
X220406692Y-104299309D01*
X220313759Y-104116918D01*
X220193437Y-103951310D01*
X220193433Y-103951306D01*
X220193431Y-103951303D01*
X220048696Y-103806568D01*
X220048697Y-103806568D01*
X219991946Y-103765336D01*
X219883082Y-103686241D01*
X219700691Y-103593308D01*
X219700690Y-103593307D01*
X219700689Y-103593307D01*
X219506006Y-103530051D01*
X219506003Y-103530050D01*
X219350692Y-103505451D01*
X219303824Y-103498028D01*
X219303823Y-103498028D01*
X219205549Y-103498028D01*
X178181924Y-103495450D01*
X178181924Y-103495449D01*
X178177970Y-103495449D01*
X178151041Y-103495449D01*
X178146977Y-103495449D01*
X178146973Y-103495448D01*
X178131056Y-103495448D01*
X178131055Y-103495448D01*
X178125357Y-103495448D01*
X178125349Y-103495449D01*
X178067882Y-103495449D01*
X177969882Y-103512728D01*
X177904094Y-103524329D01*
X177904093Y-103524329D01*
X177904089Y-103524330D01*
X177747809Y-103581211D01*
X177747800Y-103581215D01*
X177603778Y-103664366D01*
X177476368Y-103771276D01*
X177369458Y-103898686D01*
X177286307Y-104042708D01*
X177286303Y-104042717D01*
X177229422Y-104198997D01*
X177229421Y-104199001D01*
X177229421Y-104199002D01*
X177200541Y-104362791D01*
X177200541Y-104425974D01*
X177200535Y-104425989D01*
X177200541Y-104445584D01*
X177200541Y-104479220D01*
X177200550Y-104479295D01*
X177202608Y-111201699D01*
X177202400Y-111206229D01*
X177201411Y-111216915D01*
X177198459Y-111222030D01*
X177198459Y-111248819D01*
X177198251Y-111251067D01*
X177198235Y-111251095D01*
X177198223Y-111251355D01*
X177184530Y-111390376D01*
X177182656Y-111399797D01*
X177142807Y-111531163D01*
X177139131Y-111540037D01*
X177074422Y-111661100D01*
X177069085Y-111669087D01*
X176981996Y-111775204D01*
X176975204Y-111781996D01*
X176869087Y-111869085D01*
X176861100Y-111874422D01*
X176740037Y-111939131D01*
X176731163Y-111942807D01*
X176599797Y-111982656D01*
X176590376Y-111984530D01*
X176451355Y-111998223D01*
X176446552Y-111998459D01*
X174151366Y-111998459D01*
X174146563Y-111998223D01*
X174007541Y-111984530D01*
X173998120Y-111982656D01*
X173866754Y-111942807D01*
X173857880Y-111939131D01*
X173736817Y-111874422D01*
X173728830Y-111869085D01*
X173622713Y-111781996D01*
X173615921Y-111775204D01*
X173528832Y-111669087D01*
X173523497Y-111661103D01*
X173458784Y-111540033D01*
X173455110Y-111531163D01*
X173415261Y-111399797D01*
X173413387Y-111390376D01*
X173399695Y-111251357D01*
X173399459Y-111246550D01*
X173399462Y-111214833D01*
X173399511Y-110553054D01*
X173399533Y-110261303D01*
X174399500Y-110261303D01*
X174399500Y-110438696D01*
X174434103Y-110612656D01*
X174434106Y-110612666D01*
X174501987Y-110776547D01*
X174541726Y-110836021D01*
X174600533Y-110924032D01*
X174725967Y-111049466D01*
X174784640Y-111088670D01*
X174873453Y-111148013D01*
X175037334Y-111215894D01*
X175037340Y-111215895D01*
X175037343Y-111215896D01*
X175211303Y-111250499D01*
X175211309Y-111250500D01*
X175388691Y-111250500D01*
X175562666Y-111215894D01*
X175726547Y-111148013D01*
X175874035Y-111049464D01*
X175999464Y-110924035D01*
X176098013Y-110776547D01*
X176165894Y-110612666D01*
X176200500Y-110438691D01*
X176200500Y-110261309D01*
X176200499Y-110261303D01*
X176165896Y-110087343D01*
X176165893Y-110087332D01*
X176098013Y-109923453D01*
X176021724Y-109809279D01*
X175999466Y-109775967D01*
X175874032Y-109650533D01*
X175786021Y-109591726D01*
X175726547Y-109551987D01*
X175726544Y-109551985D01*
X175726543Y-109551985D01*
X175562667Y-109484106D01*
X175562656Y-109484103D01*
X175388696Y-109449500D01*
X175388691Y-109449500D01*
X175211309Y-109449500D01*
X175211303Y-109449500D01*
X175037343Y-109484103D01*
X175037332Y-109484106D01*
X174873456Y-109551985D01*
X174725967Y-109650533D01*
X174600533Y-109775967D01*
X174501985Y-109923456D01*
X174434106Y-110087332D01*
X174434103Y-110087343D01*
X174399500Y-110261303D01*
X173399533Y-110261303D01*
X173399533Y-110258898D01*
X173399660Y-108552710D01*
X173399812Y-106513389D01*
X174199500Y-106513389D01*
X174199500Y-106514305D01*
X174199500Y-106686610D01*
X174226597Y-106857698D01*
X174226598Y-106857701D01*
X174280127Y-107022446D01*
X174358764Y-107176782D01*
X174358767Y-107176786D01*
X174358768Y-107176788D01*
X174460586Y-107316928D01*
X174460588Y-107316930D01*
X174460591Y-107316934D01*
X174583065Y-107439408D01*
X174583068Y-107439410D01*
X174583072Y-107439414D01*
X174723212Y-107541232D01*
X174723214Y-107541233D01*
X174723217Y-107541235D01*
X174877553Y-107619872D01*
X174877555Y-107619873D01*
X175042299Y-107673402D01*
X175213389Y-107700500D01*
X175213390Y-107700500D01*
X175386610Y-107700500D01*
X175386611Y-107700500D01*
X175557701Y-107673402D01*
X175722445Y-107619873D01*
X175876788Y-107541232D01*
X176016928Y-107439414D01*
X176139414Y-107316928D01*
X176241232Y-107176788D01*
X176319873Y-107022445D01*
X176373402Y-106857701D01*
X176400500Y-106686611D01*
X176400500Y-106513389D01*
X176373402Y-106342299D01*
X176319873Y-106177555D01*
X176241232Y-106023212D01*
X176139414Y-105883072D01*
X176139410Y-105883068D01*
X176139408Y-105883065D01*
X176016934Y-105760591D01*
X176016935Y-105760591D01*
X175876782Y-105658764D01*
X175722446Y-105580127D01*
X175557701Y-105526598D01*
X175557698Y-105526597D01*
X175426271Y-105505781D01*
X175386611Y-105499500D01*
X175213389Y-105499500D01*
X175181192Y-105504599D01*
X175042301Y-105526597D01*
X175042298Y-105526598D01*
X174877553Y-105580127D01*
X174723217Y-105658764D01*
X174583065Y-105760591D01*
X174460591Y-105883065D01*
X174358764Y-106023217D01*
X174280127Y-106177553D01*
X174226598Y-106342298D01*
X174226597Y-106342301D01*
X174199901Y-106510854D01*
X174199746Y-106511834D01*
X174199500Y-106513389D01*
X173399812Y-106513389D01*
X173400497Y-97326933D01*
X173400500Y-97326929D01*
X173400500Y-97300000D01*
X173400500Y-97293429D01*
X173400501Y-97280017D01*
X173400500Y-97280014D01*
X173400500Y-97197648D01*
X173368477Y-96995466D01*
X173305220Y-96800781D01*
X173212287Y-96618390D01*
X173091965Y-96452782D01*
X173091961Y-96452778D01*
X173091959Y-96452775D01*
X172947224Y-96308040D01*
X172947225Y-96308040D01*
X172855276Y-96241235D01*
X172781610Y-96187713D01*
X172599219Y-96094780D01*
X172599218Y-96094779D01*
X172599217Y-96094779D01*
X172404534Y-96031523D01*
X172404531Y-96031522D01*
X172249220Y-96006923D01*
X172202352Y-95999500D01*
X172119991Y-95999500D01*
X140526929Y-95999500D01*
X140500000Y-95999500D01*
X140397648Y-95999500D01*
X140359599Y-96005526D01*
X140195468Y-96031522D01*
X140195465Y-96031523D01*
X140000782Y-96094779D01*
X139818393Y-96187711D01*
X139818390Y-96187712D01*
X139818390Y-96187713D01*
X139744728Y-96241232D01*
X139652775Y-96308040D01*
X139508040Y-96452775D01*
X139508035Y-96452782D01*
X139401438Y-96599500D01*
X139387711Y-96618393D01*
X139294779Y-96800782D01*
X139231523Y-96995465D01*
X139231522Y-96995468D01*
X139199500Y-97197648D01*
X139199500Y-98897854D01*
X139199314Y-98902125D01*
X139184688Y-99069295D01*
X139183204Y-99077706D01*
X139140331Y-99237707D01*
X139137410Y-99245733D01*
X139067403Y-99395866D01*
X139063132Y-99403263D01*
X138968120Y-99538953D01*
X138962630Y-99545496D01*
X138845496Y-99662630D01*
X138838953Y-99668120D01*
X138703263Y-99763132D01*
X138695866Y-99767403D01*
X138545733Y-99837410D01*
X138537707Y-99840331D01*
X138377706Y-99883204D01*
X138369295Y-99884688D01*
X138202126Y-99899314D01*
X138197855Y-99899500D01*
X100501458Y-99899500D01*
X100498552Y-99899414D01*
X100321166Y-99888875D01*
X100315395Y-99888187D01*
X100141937Y-99856977D01*
X100136288Y-99855610D01*
X99967753Y-99804084D01*
X99962305Y-99802058D01*
X99801051Y-99730936D01*
X99795882Y-99728279D01*
X99642937Y-99637827D01*
X99640480Y-99636274D01*
X96698803Y-97652089D01*
X96641428Y-97613389D01*
X99199500Y-97613389D01*
X99199500Y-97614305D01*
X99199500Y-97786610D01*
X99226597Y-97957698D01*
X99226598Y-97957701D01*
X99280127Y-98122446D01*
X99358764Y-98276782D01*
X99358767Y-98276786D01*
X99358768Y-98276788D01*
X99460586Y-98416928D01*
X99460588Y-98416930D01*
X99460591Y-98416934D01*
X99583065Y-98539408D01*
X99583068Y-98539410D01*
X99583072Y-98539414D01*
X99723212Y-98641232D01*
X99723214Y-98641233D01*
X99723217Y-98641235D01*
X99877553Y-98719872D01*
X99877555Y-98719873D01*
X100042299Y-98773402D01*
X100213389Y-98800500D01*
X100213390Y-98800500D01*
X100386610Y-98800500D01*
X100386611Y-98800500D01*
X100557701Y-98773402D01*
X100722445Y-98719873D01*
X100876788Y-98641232D01*
X101016928Y-98539414D01*
X101139414Y-98416928D01*
X101241232Y-98276788D01*
X101319873Y-98122445D01*
X101373402Y-97957701D01*
X101400500Y-97786611D01*
X101400500Y-97613389D01*
X116199500Y-97613389D01*
X116199500Y-97614305D01*
X116199500Y-97786610D01*
X116226597Y-97957698D01*
X116226598Y-97957701D01*
X116280127Y-98122446D01*
X116358764Y-98276782D01*
X116358767Y-98276786D01*
X116358768Y-98276788D01*
X116460586Y-98416928D01*
X116460588Y-98416930D01*
X116460591Y-98416934D01*
X116583065Y-98539408D01*
X116583068Y-98539410D01*
X116583072Y-98539414D01*
X116723212Y-98641232D01*
X116723214Y-98641233D01*
X116723217Y-98641235D01*
X116877553Y-98719872D01*
X116877555Y-98719873D01*
X117042299Y-98773402D01*
X117213389Y-98800500D01*
X117213390Y-98800500D01*
X117386610Y-98800500D01*
X117386611Y-98800500D01*
X117557701Y-98773402D01*
X117722445Y-98719873D01*
X117876788Y-98641232D01*
X118016928Y-98539414D01*
X118139414Y-98416928D01*
X118241232Y-98276788D01*
X118319873Y-98122445D01*
X118373402Y-97957701D01*
X118400500Y-97786611D01*
X118400500Y-97613389D01*
X133299500Y-97613389D01*
X133299500Y-97614305D01*
X133299500Y-97786610D01*
X133326597Y-97957698D01*
X133326598Y-97957701D01*
X133380127Y-98122446D01*
X133458764Y-98276782D01*
X133458767Y-98276786D01*
X133458768Y-98276788D01*
X133560586Y-98416928D01*
X133560588Y-98416930D01*
X133560591Y-98416934D01*
X133683065Y-98539408D01*
X133683068Y-98539410D01*
X133683072Y-98539414D01*
X133823212Y-98641232D01*
X133823214Y-98641233D01*
X133823217Y-98641235D01*
X133977553Y-98719872D01*
X133977555Y-98719873D01*
X134142299Y-98773402D01*
X134313389Y-98800500D01*
X134313390Y-98800500D01*
X134486610Y-98800500D01*
X134486611Y-98800500D01*
X134657701Y-98773402D01*
X134822445Y-98719873D01*
X134976788Y-98641232D01*
X135116928Y-98539414D01*
X135239414Y-98416928D01*
X135341232Y-98276788D01*
X135419873Y-98122445D01*
X135473402Y-97957701D01*
X135500500Y-97786611D01*
X135500500Y-97613389D01*
X135473402Y-97442299D01*
X135419873Y-97277555D01*
X135341232Y-97123212D01*
X135239414Y-96983072D01*
X135239410Y-96983068D01*
X135239408Y-96983065D01*
X135116934Y-96860591D01*
X135116935Y-96860591D01*
X135055694Y-96816097D01*
X134976788Y-96758768D01*
X134976786Y-96758767D01*
X134976782Y-96758764D01*
X134822446Y-96680127D01*
X134657701Y-96626598D01*
X134657698Y-96626597D01*
X134526271Y-96605781D01*
X134486611Y-96599500D01*
X134313389Y-96599500D01*
X134281192Y-96604599D01*
X134142301Y-96626597D01*
X134142298Y-96626598D01*
X133977553Y-96680127D01*
X133823217Y-96758764D01*
X133683065Y-96860591D01*
X133560591Y-96983065D01*
X133458764Y-97123217D01*
X133380127Y-97277553D01*
X133326598Y-97442298D01*
X133326597Y-97442301D01*
X133299901Y-97610854D01*
X133299746Y-97611834D01*
X133299500Y-97613389D01*
X118400500Y-97613389D01*
X118373402Y-97442299D01*
X118319873Y-97277555D01*
X118241232Y-97123212D01*
X118139414Y-96983072D01*
X118139410Y-96983068D01*
X118139408Y-96983065D01*
X118016934Y-96860591D01*
X118016935Y-96860591D01*
X117955694Y-96816097D01*
X117876788Y-96758768D01*
X117876786Y-96758767D01*
X117876782Y-96758764D01*
X117722446Y-96680127D01*
X117557701Y-96626598D01*
X117557698Y-96626597D01*
X117426271Y-96605781D01*
X117386611Y-96599500D01*
X117213389Y-96599500D01*
X117181192Y-96604599D01*
X117042301Y-96626597D01*
X117042298Y-96626598D01*
X116877553Y-96680127D01*
X116723217Y-96758764D01*
X116583065Y-96860591D01*
X116460591Y-96983065D01*
X116358764Y-97123217D01*
X116280127Y-97277553D01*
X116226598Y-97442298D01*
X116226597Y-97442301D01*
X116199901Y-97610854D01*
X116199746Y-97611834D01*
X116199500Y-97613389D01*
X101400500Y-97613389D01*
X101373402Y-97442299D01*
X101319873Y-97277555D01*
X101241232Y-97123212D01*
X101139414Y-96983072D01*
X101139410Y-96983068D01*
X101139408Y-96983065D01*
X101016934Y-96860591D01*
X101016935Y-96860591D01*
X100955694Y-96816097D01*
X100876788Y-96758768D01*
X100876786Y-96758767D01*
X100876782Y-96758764D01*
X100722446Y-96680127D01*
X100557701Y-96626598D01*
X100557698Y-96626597D01*
X100426271Y-96605781D01*
X100386611Y-96599500D01*
X100213389Y-96599500D01*
X100181192Y-96604599D01*
X100042301Y-96626597D01*
X100042298Y-96626598D01*
X99877553Y-96680127D01*
X99723217Y-96758764D01*
X99583065Y-96860591D01*
X99460591Y-96983065D01*
X99358764Y-97123217D01*
X99280127Y-97277553D01*
X99226598Y-97442298D01*
X99226597Y-97442301D01*
X99199901Y-97610854D01*
X99199746Y-97611834D01*
X99199500Y-97613389D01*
X96641428Y-97613389D01*
X95405697Y-96779878D01*
X95397827Y-96770336D01*
X95383758Y-96765080D01*
X95378944Y-96761833D01*
X95378944Y-96761832D01*
X95377057Y-96760560D01*
X95377055Y-96760559D01*
X95368974Y-96758915D01*
X95361598Y-96756801D01*
X95347376Y-96751488D01*
X95347371Y-96751488D01*
X95344852Y-96751910D01*
X95344779Y-96751922D01*
X95339172Y-96752852D01*
X95337878Y-96752589D01*
X95321038Y-96755861D01*
X95320354Y-96755975D01*
X95320299Y-96755962D01*
X95318805Y-96756207D01*
X94869311Y-96816097D01*
X94866032Y-96816422D01*
X94413149Y-96845998D01*
X94409857Y-96846102D01*
X93956004Y-96845181D01*
X93952711Y-96845063D01*
X93499966Y-96813648D01*
X93496689Y-96813310D01*
X93047054Y-96751542D01*
X93043808Y-96750984D01*
X92599370Y-96659149D01*
X92596167Y-96658375D01*
X92158856Y-96536869D01*
X92155714Y-96535880D01*
X91727598Y-96385281D01*
X91724529Y-96384084D01*
X91307495Y-96205055D01*
X91304513Y-96203655D01*
X90900433Y-95997000D01*
X90897552Y-95995402D01*
X90524122Y-95771563D01*
X90523712Y-95771315D01*
X90517408Y-95767452D01*
X90514594Y-95764253D01*
X90502447Y-95758284D01*
X90500506Y-95757095D01*
X90500428Y-95756988D01*
X90499518Y-95756473D01*
X90484250Y-95746609D01*
X90458409Y-95745315D01*
X90457725Y-95745276D01*
X84985835Y-95394522D01*
X84497603Y-95363226D01*
X84497594Y-95363225D01*
X84497561Y-95363223D01*
X84496822Y-95363175D01*
X84492276Y-95362666D01*
X84319786Y-95335139D01*
X84310869Y-95332839D01*
X84148752Y-95274289D01*
X84140433Y-95270364D01*
X84044277Y-95213389D01*
X135999500Y-95213389D01*
X135999500Y-95214305D01*
X135999500Y-95386610D01*
X136026597Y-95557698D01*
X136026598Y-95557701D01*
X136080127Y-95722446D01*
X136158764Y-95876782D01*
X136158767Y-95876786D01*
X136158768Y-95876788D01*
X136260586Y-96016928D01*
X136260588Y-96016930D01*
X136260591Y-96016934D01*
X136383065Y-96139408D01*
X136383068Y-96139410D01*
X136383072Y-96139414D01*
X136523212Y-96241232D01*
X136523214Y-96241233D01*
X136523217Y-96241235D01*
X136573408Y-96266808D01*
X136677555Y-96319873D01*
X136842299Y-96373402D01*
X137013389Y-96400500D01*
X137013390Y-96400500D01*
X137186610Y-96400500D01*
X137186611Y-96400500D01*
X137357701Y-96373402D01*
X137522445Y-96319873D01*
X137676788Y-96241232D01*
X137816928Y-96139414D01*
X137939414Y-96016928D01*
X138041232Y-95876788D01*
X138119873Y-95722445D01*
X138173402Y-95557701D01*
X138200500Y-95386611D01*
X138200500Y-95213389D01*
X138173402Y-95042299D01*
X138119873Y-94877555D01*
X138041232Y-94723212D01*
X137939414Y-94583072D01*
X137939410Y-94583068D01*
X137939408Y-94583065D01*
X137816934Y-94460591D01*
X137816935Y-94460591D01*
X137676782Y-94358764D01*
X137522446Y-94280127D01*
X137357701Y-94226598D01*
X137357698Y-94226597D01*
X137226271Y-94205781D01*
X137186611Y-94199500D01*
X137013389Y-94199500D01*
X136981192Y-94204599D01*
X136842301Y-94226597D01*
X136842298Y-94226598D01*
X136677553Y-94280127D01*
X136523217Y-94358764D01*
X136383065Y-94460591D01*
X136260591Y-94583065D01*
X136158764Y-94723217D01*
X136080127Y-94877553D01*
X136026598Y-95042298D01*
X136026597Y-95042301D01*
X136004765Y-95180145D01*
X135999746Y-95211834D01*
X135999500Y-95213389D01*
X84044277Y-95213389D01*
X83992153Y-95182504D01*
X83984706Y-95177085D01*
X83855496Y-95063016D01*
X83849192Y-95056295D01*
X83743625Y-94920057D01*
X83738691Y-94912275D01*
X83719787Y-94875143D01*
X83660495Y-94758679D01*
X83657106Y-94750111D01*
X83649296Y-94723212D01*
X83609049Y-94584590D01*
X83607326Y-94575551D01*
X83595230Y-94447591D01*
X83598744Y-94424228D01*
X83600500Y-94419991D01*
X83600500Y-92115689D01*
X95250001Y-92115689D01*
X95264464Y-92207017D01*
X95320549Y-92317090D01*
X95320554Y-92317096D01*
X95407903Y-92404445D01*
X95407909Y-92404450D01*
X95517977Y-92460533D01*
X95609310Y-92474999D01*
X95699999Y-92474999D01*
X96000000Y-92474999D01*
X96090689Y-92474999D01*
X96182017Y-92460535D01*
X96292090Y-92404450D01*
X96292096Y-92404445D01*
X96379445Y-92317096D01*
X96379450Y-92317090D01*
X96435533Y-92207022D01*
X96450000Y-92115689D01*
X96450000Y-91925000D01*
X96000000Y-91925000D01*
X96000000Y-92474999D01*
X95699999Y-92474999D01*
X95700000Y-92474998D01*
X95700000Y-91925000D01*
X95250001Y-91925000D01*
X95250001Y-92115689D01*
X83600500Y-92115689D01*
X83600500Y-91434310D01*
X95250000Y-91434310D01*
X95250000Y-91625000D01*
X95700000Y-91625000D01*
X96000000Y-91625000D01*
X96449999Y-91625000D01*
X96449999Y-91434310D01*
X96435535Y-91342982D01*
X96379450Y-91232909D01*
X96379445Y-91232903D01*
X96292096Y-91145554D01*
X96292090Y-91145549D01*
X96182022Y-91089466D01*
X96090689Y-91075000D01*
X96000000Y-91075000D01*
X96000000Y-91625000D01*
X95700000Y-91625000D01*
X95700000Y-91075000D01*
X95609310Y-91075000D01*
X95517982Y-91089464D01*
X95407909Y-91145549D01*
X95407903Y-91145554D01*
X95320554Y-91232903D01*
X95320549Y-91232909D01*
X95264466Y-91342977D01*
X95250000Y-91434310D01*
X83600500Y-91434310D01*
X83600500Y-89963389D01*
X84499500Y-89963389D01*
X84499500Y-89964305D01*
X84499500Y-90136610D01*
X84526597Y-90307698D01*
X84526598Y-90307701D01*
X84580127Y-90472446D01*
X84658764Y-90626782D01*
X84658767Y-90626786D01*
X84658768Y-90626788D01*
X84760586Y-90766928D01*
X84760588Y-90766930D01*
X84760591Y-90766934D01*
X84883065Y-90889408D01*
X84883068Y-90889410D01*
X84883072Y-90889414D01*
X85023212Y-90991232D01*
X85023214Y-90991233D01*
X85023217Y-90991235D01*
X85153880Y-91057810D01*
X85177555Y-91069873D01*
X85342299Y-91123402D01*
X85513389Y-91150500D01*
X85513390Y-91150500D01*
X85686610Y-91150500D01*
X85686611Y-91150500D01*
X85857701Y-91123402D01*
X86022445Y-91069873D01*
X86176788Y-90991232D01*
X86316928Y-90889414D01*
X86439414Y-90766928D01*
X86541232Y-90626788D01*
X86619873Y-90472445D01*
X86650927Y-90376871D01*
X94625000Y-90376871D01*
X94640022Y-90471714D01*
X94698259Y-90586013D01*
X94698264Y-90586020D01*
X94788979Y-90676735D01*
X94788986Y-90676740D01*
X94903285Y-90734977D01*
X94998129Y-90750000D01*
X95125000Y-90750000D01*
X95425000Y-90750000D01*
X95551871Y-90750000D01*
X95646714Y-90734977D01*
X95761013Y-90676740D01*
X95761020Y-90676735D01*
X95851735Y-90586020D01*
X95851740Y-90586013D01*
X95909977Y-90471714D01*
X95925000Y-90376871D01*
X95925000Y-90200000D01*
X95425000Y-90200000D01*
X95425000Y-90750000D01*
X95125000Y-90750000D01*
X95125000Y-90200000D01*
X94625000Y-90200000D01*
X94625000Y-90376871D01*
X86650927Y-90376871D01*
X86673402Y-90307701D01*
X86700500Y-90136611D01*
X86700500Y-89963389D01*
X86673402Y-89792299D01*
X86650927Y-89723128D01*
X94625000Y-89723128D01*
X94625000Y-89900000D01*
X95125000Y-89900000D01*
X95425000Y-89900000D01*
X95925000Y-89900000D01*
X95925000Y-89723128D01*
X95909977Y-89628285D01*
X95851740Y-89513986D01*
X95851735Y-89513979D01*
X95761020Y-89423264D01*
X95761013Y-89423259D01*
X95646714Y-89365022D01*
X95551871Y-89350000D01*
X95425000Y-89350000D01*
X95425000Y-89900000D01*
X95125000Y-89900000D01*
X95125000Y-89350000D01*
X94998129Y-89350000D01*
X94903285Y-89365022D01*
X94788986Y-89423259D01*
X94788979Y-89423264D01*
X94698264Y-89513979D01*
X94698259Y-89513986D01*
X94640022Y-89628285D01*
X94625000Y-89723128D01*
X86650927Y-89723128D01*
X86619873Y-89627555D01*
X86619070Y-89625979D01*
X86541235Y-89473217D01*
X86541233Y-89473214D01*
X86541232Y-89473212D01*
X86439414Y-89333072D01*
X86439410Y-89333068D01*
X86439408Y-89333065D01*
X86316934Y-89210591D01*
X86316935Y-89210591D01*
X86176782Y-89108764D01*
X86022446Y-89030127D01*
X85857701Y-88976598D01*
X85857698Y-88976597D01*
X85717832Y-88954445D01*
X85686611Y-88949500D01*
X85513389Y-88949500D01*
X85482168Y-88954445D01*
X85342301Y-88976597D01*
X85342298Y-88976598D01*
X85177553Y-89030127D01*
X85023217Y-89108764D01*
X84883065Y-89210591D01*
X84760591Y-89333065D01*
X84658764Y-89473217D01*
X84580127Y-89627553D01*
X84526598Y-89792298D01*
X84526597Y-89792301D01*
X84506707Y-89917884D01*
X84499746Y-89961834D01*
X84499500Y-89963389D01*
X83600500Y-89963389D01*
X83600500Y-88665689D01*
X95250001Y-88665689D01*
X95264464Y-88757017D01*
X95320549Y-88867090D01*
X95320554Y-88867096D01*
X95407903Y-88954445D01*
X95407909Y-88954450D01*
X95517977Y-89010533D01*
X95609310Y-89024999D01*
X95699999Y-89024999D01*
X96000000Y-89024999D01*
X96090689Y-89024999D01*
X96182017Y-89010535D01*
X96292090Y-88954450D01*
X96292096Y-88954445D01*
X96379445Y-88867096D01*
X96379450Y-88867090D01*
X96435533Y-88757022D01*
X96450000Y-88665689D01*
X96450000Y-88475000D01*
X96000000Y-88475000D01*
X96000000Y-89024999D01*
X95699999Y-89024999D01*
X95700000Y-89024998D01*
X95700000Y-88475000D01*
X95250001Y-88475000D01*
X95250001Y-88665689D01*
X83600500Y-88665689D01*
X83600500Y-87984310D01*
X95250000Y-87984310D01*
X95250000Y-88175000D01*
X95700000Y-88175000D01*
X96000000Y-88175000D01*
X96449999Y-88175000D01*
X96449999Y-87996238D01*
X97749500Y-87996238D01*
X97749500Y-88653762D01*
X97760553Y-88709327D01*
X97760553Y-88709329D01*
X97766241Y-88717841D01*
X97774500Y-88745065D01*
X97774500Y-91354932D01*
X97766243Y-91382154D01*
X97760553Y-91390669D01*
X97756131Y-91412897D01*
X97749500Y-91446238D01*
X97749500Y-92103762D01*
X97758342Y-92148215D01*
X97760553Y-92159330D01*
X97802656Y-92222343D01*
X97865669Y-92264446D01*
X97865671Y-92264447D01*
X97921238Y-92275500D01*
X97921241Y-92275500D01*
X98378759Y-92275500D01*
X98378762Y-92275500D01*
X98434329Y-92264447D01*
X98497343Y-92222343D01*
X98539447Y-92159329D01*
X98548128Y-92115689D01*
X119050001Y-92115689D01*
X119064464Y-92207017D01*
X119120549Y-92317090D01*
X119120554Y-92317096D01*
X119207903Y-92404445D01*
X119207909Y-92404450D01*
X119317977Y-92460533D01*
X119409310Y-92474999D01*
X119499999Y-92474999D01*
X119800000Y-92474999D01*
X119890689Y-92474999D01*
X119982017Y-92460535D01*
X120092090Y-92404450D01*
X120092096Y-92404445D01*
X120179445Y-92317096D01*
X120179450Y-92317090D01*
X120235533Y-92207022D01*
X120250000Y-92115689D01*
X120250000Y-91925000D01*
X119800000Y-91925000D01*
X119800000Y-92474999D01*
X119499999Y-92474999D01*
X119500000Y-92474998D01*
X119500000Y-91925000D01*
X119050001Y-91925000D01*
X119050001Y-92115689D01*
X98548128Y-92115689D01*
X98550500Y-92103762D01*
X98550500Y-91446238D01*
X98548127Y-91434310D01*
X119050000Y-91434310D01*
X119050000Y-91625000D01*
X119500000Y-91625000D01*
X119800000Y-91625000D01*
X120249999Y-91625000D01*
X120249999Y-91434310D01*
X120235535Y-91342982D01*
X120179450Y-91232909D01*
X120179445Y-91232903D01*
X120092096Y-91145554D01*
X120092090Y-91145549D01*
X119982022Y-91089466D01*
X119890689Y-91075000D01*
X119800000Y-91075000D01*
X119800000Y-91625000D01*
X119500000Y-91625000D01*
X119500000Y-91075000D01*
X119409310Y-91075000D01*
X119317982Y-91089464D01*
X119207909Y-91145549D01*
X119207903Y-91145554D01*
X119120554Y-91232903D01*
X119120549Y-91232909D01*
X119064466Y-91342977D01*
X119050000Y-91434310D01*
X98548127Y-91434310D01*
X98539447Y-91390671D01*
X98539446Y-91390669D01*
X98497343Y-91327656D01*
X98434328Y-91285552D01*
X98414939Y-91281695D01*
X98383757Y-91260859D01*
X98375500Y-91233637D01*
X98375500Y-90795868D01*
X98389852Y-90761220D01*
X98424500Y-90746868D01*
X98432167Y-90747472D01*
X98448122Y-90749999D01*
X98448126Y-90750000D01*
X98575000Y-90750000D01*
X98875000Y-90750000D01*
X99001871Y-90750000D01*
X99096714Y-90734977D01*
X99211013Y-90676740D01*
X99211020Y-90676735D01*
X99301735Y-90586020D01*
X99301740Y-90586013D01*
X99359977Y-90471715D01*
X99370648Y-90404346D01*
X110379500Y-90404346D01*
X110379500Y-90895654D01*
X110389349Y-90945169D01*
X110394615Y-90971642D01*
X110452189Y-91057810D01*
X110499564Y-91089464D01*
X110538358Y-91115385D01*
X110614346Y-91130500D01*
X110614349Y-91130500D01*
X110985651Y-91130500D01*
X110985654Y-91130500D01*
X111061642Y-91115385D01*
X111147810Y-91057810D01*
X111205385Y-90971642D01*
X111220500Y-90895654D01*
X111220500Y-90404346D01*
X111215035Y-90376871D01*
X118425000Y-90376871D01*
X118440022Y-90471714D01*
X118498259Y-90586013D01*
X118498264Y-90586020D01*
X118588979Y-90676735D01*
X118588986Y-90676740D01*
X118703285Y-90734977D01*
X118798129Y-90750000D01*
X118925000Y-90750000D01*
X119225000Y-90750000D01*
X119351871Y-90750000D01*
X119446714Y-90734977D01*
X119561013Y-90676740D01*
X119561020Y-90676735D01*
X119651735Y-90586020D01*
X119651740Y-90586013D01*
X119709977Y-90471714D01*
X119725000Y-90376871D01*
X119725000Y-90200000D01*
X119225000Y-90200000D01*
X119225000Y-90750000D01*
X118925000Y-90750000D01*
X118925000Y-90200000D01*
X118425000Y-90200000D01*
X118425000Y-90376871D01*
X111215035Y-90376871D01*
X111205385Y-90328358D01*
X111186279Y-90299764D01*
X111147810Y-90242189D01*
X111115268Y-90220446D01*
X111115267Y-90220444D01*
X111061643Y-90184615D01*
X111042645Y-90180836D01*
X110985654Y-90169500D01*
X110614346Y-90169500D01*
X110557355Y-90180836D01*
X110538357Y-90184615D01*
X110452189Y-90242189D01*
X110394615Y-90328357D01*
X110394615Y-90328358D01*
X110379500Y-90404346D01*
X99370648Y-90404346D01*
X99372244Y-90394273D01*
X99372244Y-90394272D01*
X99375000Y-90376871D01*
X99375000Y-90200000D01*
X98875000Y-90200000D01*
X98875000Y-90750000D01*
X98575000Y-90750000D01*
X98575000Y-89900000D01*
X98875000Y-89900000D01*
X99375000Y-89900000D01*
X99375000Y-89723128D01*
X99359977Y-89628285D01*
X99301740Y-89513986D01*
X99301735Y-89513979D01*
X99211020Y-89423264D01*
X99211013Y-89423259D01*
X99096714Y-89365022D01*
X99001871Y-89350000D01*
X98875000Y-89350000D01*
X98875000Y-89900000D01*
X98575000Y-89900000D01*
X98575000Y-89350000D01*
X98448127Y-89350000D01*
X98432164Y-89352528D01*
X98395698Y-89343772D01*
X98376103Y-89311795D01*
X98375500Y-89304131D01*
X98375500Y-89159760D01*
X100549500Y-89159760D01*
X100549500Y-89690240D01*
X100561423Y-89750182D01*
X100577433Y-89774142D01*
X100606842Y-89818157D01*
X100634069Y-89836349D01*
X100674818Y-89863577D01*
X100734760Y-89875500D01*
X100734763Y-89875500D01*
X101265237Y-89875500D01*
X101265240Y-89875500D01*
X101325182Y-89863577D01*
X101393157Y-89818157D01*
X101438577Y-89750182D01*
X101450500Y-89690240D01*
X101450500Y-89201846D01*
X110379500Y-89201846D01*
X110379500Y-89698154D01*
X110384468Y-89723128D01*
X110394615Y-89774142D01*
X110452189Y-89860310D01*
X110509764Y-89898779D01*
X110538358Y-89917885D01*
X110614346Y-89933000D01*
X110614349Y-89933000D01*
X110985651Y-89933000D01*
X110985654Y-89933000D01*
X111061642Y-89917885D01*
X111147810Y-89860310D01*
X111205385Y-89774142D01*
X111215532Y-89723128D01*
X118425000Y-89723128D01*
X118425000Y-89900000D01*
X118925000Y-89900000D01*
X119225000Y-89900000D01*
X119725000Y-89900000D01*
X119725000Y-89723128D01*
X119709977Y-89628285D01*
X119651740Y-89513986D01*
X119651735Y-89513979D01*
X119561020Y-89423264D01*
X119561013Y-89423259D01*
X119446714Y-89365022D01*
X119351871Y-89350000D01*
X119225000Y-89350000D01*
X119225000Y-89900000D01*
X118925000Y-89900000D01*
X118925000Y-89350000D01*
X118798129Y-89350000D01*
X118703285Y-89365022D01*
X118588986Y-89423259D01*
X118588979Y-89423264D01*
X118498264Y-89513979D01*
X118498259Y-89513986D01*
X118440022Y-89628285D01*
X118425000Y-89723128D01*
X111215532Y-89723128D01*
X111220500Y-89698154D01*
X111220500Y-89201846D01*
X111205385Y-89125858D01*
X111186279Y-89097264D01*
X111147810Y-89039689D01*
X111061642Y-88982115D01*
X110985654Y-88967000D01*
X110614346Y-88967000D01*
X110566099Y-88976597D01*
X110538357Y-88982115D01*
X110452189Y-89039689D01*
X110394615Y-89125857D01*
X110394615Y-89125858D01*
X110379500Y-89201846D01*
X101450500Y-89201846D01*
X101450500Y-89159760D01*
X101438577Y-89099818D01*
X101411349Y-89059069D01*
X101393157Y-89031842D01*
X101352408Y-89004615D01*
X101325182Y-88986423D01*
X101265240Y-88974500D01*
X100734760Y-88974500D01*
X100674818Y-88986423D01*
X100606842Y-89031842D01*
X100561423Y-89099818D01*
X100549500Y-89159760D01*
X98375500Y-89159760D01*
X98375500Y-88866362D01*
X98389852Y-88831714D01*
X98414939Y-88818303D01*
X98434329Y-88814447D01*
X98497343Y-88772343D01*
X98539447Y-88709329D01*
X98548128Y-88665689D01*
X98548277Y-88664941D01*
X98569112Y-88633758D01*
X98596335Y-88625500D01*
X100518740Y-88625500D01*
X100553388Y-88639852D01*
X100559482Y-88647277D01*
X100606842Y-88718157D01*
X100624869Y-88730202D01*
X100674818Y-88763577D01*
X100734760Y-88775500D01*
X100734763Y-88775500D01*
X101265237Y-88775500D01*
X101265240Y-88775500D01*
X101325182Y-88763577D01*
X101393157Y-88718157D01*
X101428215Y-88665689D01*
X119050001Y-88665689D01*
X119064464Y-88757017D01*
X119120549Y-88867090D01*
X119120554Y-88867096D01*
X119207903Y-88954445D01*
X119207909Y-88954450D01*
X119317977Y-89010533D01*
X119409310Y-89024999D01*
X119499999Y-89024999D01*
X119800000Y-89024999D01*
X119890689Y-89024999D01*
X119982017Y-89010535D01*
X120092090Y-88954450D01*
X120092096Y-88954445D01*
X120179445Y-88867096D01*
X120179450Y-88867090D01*
X120235533Y-88757022D01*
X120250000Y-88665689D01*
X120250000Y-88475000D01*
X119800000Y-88475000D01*
X119800000Y-89024999D01*
X119499999Y-89024999D01*
X119500000Y-89024998D01*
X119500000Y-88475000D01*
X119050001Y-88475000D01*
X119050001Y-88665689D01*
X101428215Y-88665689D01*
X101438577Y-88650182D01*
X101450500Y-88590240D01*
X101450500Y-88059760D01*
X101438577Y-87999818D01*
X101428215Y-87984310D01*
X119050000Y-87984310D01*
X119050000Y-88175000D01*
X119500000Y-88175000D01*
X119800000Y-88175000D01*
X120249999Y-88175000D01*
X120249999Y-87996238D01*
X121549500Y-87996238D01*
X121549500Y-88653762D01*
X121560553Y-88709327D01*
X121560553Y-88709329D01*
X121566241Y-88717841D01*
X121574500Y-88745065D01*
X121574500Y-91354932D01*
X121566243Y-91382154D01*
X121560553Y-91390669D01*
X121556131Y-91412897D01*
X121549500Y-91446238D01*
X121549500Y-92103762D01*
X121558342Y-92148215D01*
X121560553Y-92159330D01*
X121602656Y-92222343D01*
X121665669Y-92264446D01*
X121665671Y-92264447D01*
X121721238Y-92275500D01*
X121721241Y-92275500D01*
X122178759Y-92275500D01*
X122178762Y-92275500D01*
X122234329Y-92264447D01*
X122297343Y-92222343D01*
X122339447Y-92159329D01*
X122350500Y-92103762D01*
X122350500Y-91446238D01*
X122339447Y-91390671D01*
X122339446Y-91390669D01*
X122297343Y-91327656D01*
X122234328Y-91285552D01*
X122214939Y-91281695D01*
X122183757Y-91260859D01*
X122175500Y-91233637D01*
X122175500Y-90795868D01*
X122189852Y-90761220D01*
X122224500Y-90746868D01*
X122232167Y-90747472D01*
X122248122Y-90749999D01*
X122248126Y-90750000D01*
X122375000Y-90750000D01*
X122675000Y-90750000D01*
X122801871Y-90750000D01*
X122896714Y-90734977D01*
X123011013Y-90676740D01*
X123011020Y-90676735D01*
X123101735Y-90586020D01*
X123101740Y-90586013D01*
X123159977Y-90471714D01*
X123175000Y-90376871D01*
X123175000Y-90200000D01*
X122675000Y-90200000D01*
X122675000Y-90750000D01*
X122375000Y-90750000D01*
X122375000Y-89900000D01*
X122675000Y-89900000D01*
X123175000Y-89900000D01*
X123175000Y-89723128D01*
X123159977Y-89628285D01*
X123101740Y-89513986D01*
X123101735Y-89513979D01*
X123011020Y-89423264D01*
X123011013Y-89423259D01*
X122896714Y-89365022D01*
X122801871Y-89350000D01*
X122675000Y-89350000D01*
X122675000Y-89900000D01*
X122375000Y-89900000D01*
X122375000Y-89350000D01*
X122248127Y-89350000D01*
X122232164Y-89352528D01*
X122195698Y-89343772D01*
X122176103Y-89311795D01*
X122175500Y-89304131D01*
X122175500Y-89159760D01*
X124349500Y-89159760D01*
X124349500Y-89690240D01*
X124361423Y-89750182D01*
X124377433Y-89774142D01*
X124406842Y-89818157D01*
X124434069Y-89836349D01*
X124474818Y-89863577D01*
X124534760Y-89875500D01*
X124534763Y-89875500D01*
X125065237Y-89875500D01*
X125065240Y-89875500D01*
X125125182Y-89863577D01*
X125193157Y-89818157D01*
X125238577Y-89750182D01*
X125250500Y-89690240D01*
X125250500Y-89159760D01*
X125238577Y-89099818D01*
X125211349Y-89059069D01*
X125193157Y-89031842D01*
X125152408Y-89004615D01*
X125125182Y-88986423D01*
X125065240Y-88974500D01*
X124534760Y-88974500D01*
X124474818Y-88986423D01*
X124406842Y-89031842D01*
X124361423Y-89099818D01*
X124349500Y-89159760D01*
X122175500Y-89159760D01*
X122175500Y-88866362D01*
X122189852Y-88831714D01*
X122214939Y-88818303D01*
X122234329Y-88814447D01*
X122297343Y-88772343D01*
X122339447Y-88709329D01*
X122348128Y-88665689D01*
X122348277Y-88664941D01*
X122369112Y-88633758D01*
X122396335Y-88625500D01*
X124318740Y-88625500D01*
X124353388Y-88639852D01*
X124359482Y-88647277D01*
X124406842Y-88718157D01*
X124424869Y-88730202D01*
X124474818Y-88763577D01*
X124534760Y-88775500D01*
X124534763Y-88775500D01*
X125065237Y-88775500D01*
X125065240Y-88775500D01*
X125125182Y-88763577D01*
X125193157Y-88718157D01*
X125238577Y-88650182D01*
X125250500Y-88590240D01*
X125250500Y-88059760D01*
X125238577Y-87999818D01*
X125211349Y-87959069D01*
X125193157Y-87931842D01*
X125152408Y-87904615D01*
X125125182Y-87886423D01*
X125065240Y-87874500D01*
X124534760Y-87874500D01*
X124474818Y-87886423D01*
X124406842Y-87931842D01*
X124359482Y-88002723D01*
X124328299Y-88023558D01*
X124318740Y-88024500D01*
X122396335Y-88024500D01*
X122361687Y-88010148D01*
X122348277Y-87985059D01*
X122339447Y-87940672D01*
X122339447Y-87940671D01*
X122297343Y-87877656D01*
X122234330Y-87835553D01*
X122220437Y-87832789D01*
X122178762Y-87824500D01*
X121721238Y-87824500D01*
X121687897Y-87831131D01*
X121665669Y-87835553D01*
X121602656Y-87877656D01*
X121560553Y-87940669D01*
X121556131Y-87962897D01*
X121549500Y-87996238D01*
X120249999Y-87996238D01*
X120249999Y-87984310D01*
X120235535Y-87892982D01*
X120179450Y-87782909D01*
X120179445Y-87782903D01*
X120092096Y-87695554D01*
X120092090Y-87695549D01*
X119982022Y-87639466D01*
X119890689Y-87625000D01*
X119800000Y-87625000D01*
X119800000Y-88175000D01*
X119500000Y-88175000D01*
X119500000Y-87625000D01*
X119409310Y-87625000D01*
X119317982Y-87639464D01*
X119207909Y-87695549D01*
X119207903Y-87695554D01*
X119120554Y-87782903D01*
X119120549Y-87782909D01*
X119064466Y-87892977D01*
X119050000Y-87984310D01*
X101428215Y-87984310D01*
X101411349Y-87959069D01*
X101393157Y-87931842D01*
X101352408Y-87904615D01*
X101325182Y-87886423D01*
X101265240Y-87874500D01*
X100734760Y-87874500D01*
X100674818Y-87886423D01*
X100606842Y-87931842D01*
X100559482Y-88002723D01*
X100528299Y-88023558D01*
X100518740Y-88024500D01*
X98596335Y-88024500D01*
X98561687Y-88010148D01*
X98548277Y-87985059D01*
X98539447Y-87940672D01*
X98539447Y-87940671D01*
X98497343Y-87877656D01*
X98434330Y-87835553D01*
X98420437Y-87832789D01*
X98378762Y-87824500D01*
X97921238Y-87824500D01*
X97887897Y-87831131D01*
X97865669Y-87835553D01*
X97802656Y-87877656D01*
X97760553Y-87940669D01*
X97756131Y-87962897D01*
X97749500Y-87996238D01*
X96449999Y-87996238D01*
X96449999Y-87984310D01*
X96435535Y-87892982D01*
X96379450Y-87782909D01*
X96379445Y-87782903D01*
X96292096Y-87695554D01*
X96292090Y-87695549D01*
X96182022Y-87639466D01*
X96090689Y-87625000D01*
X96000000Y-87625000D01*
X96000000Y-88175000D01*
X95700000Y-88175000D01*
X95700000Y-87625000D01*
X95609310Y-87625000D01*
X95517982Y-87639464D01*
X95407909Y-87695549D01*
X95407903Y-87695554D01*
X95320554Y-87782903D01*
X95320549Y-87782909D01*
X95264466Y-87892977D01*
X95250000Y-87984310D01*
X83600500Y-87984310D01*
X83600500Y-85702309D01*
X83600717Y-85697702D01*
X83602388Y-85680009D01*
X83617138Y-85523818D01*
X83618858Y-85514789D01*
X83666896Y-85349276D01*
X83670282Y-85340717D01*
X83748453Y-85187130D01*
X83753381Y-85179356D01*
X83858921Y-85043120D01*
X83865210Y-85036411D01*
X83994405Y-84922328D01*
X84001836Y-84916919D01*
X84150091Y-84829046D01*
X84158415Y-84825119D01*
X84320502Y-84766553D01*
X84329395Y-84764257D01*
X84501889Y-84736702D01*
X84506438Y-84736193D01*
X84531024Y-84734611D01*
X84531024Y-84734610D01*
X84532035Y-84734545D01*
X90457805Y-84354716D01*
X90458450Y-84354680D01*
X90484251Y-84353390D01*
X90499598Y-84343474D01*
X90500506Y-84342903D01*
X90502443Y-84341715D01*
X90514593Y-84335747D01*
X90517408Y-84332545D01*
X90523715Y-84328681D01*
X90523853Y-84328659D01*
X90524122Y-84328435D01*
X90897582Y-84104579D01*
X90900403Y-84103014D01*
X91304530Y-83896335D01*
X91307480Y-83894950D01*
X91724539Y-83715910D01*
X91727589Y-83714720D01*
X92155722Y-83564115D01*
X92158850Y-83563130D01*
X92596184Y-83441618D01*
X92599353Y-83440853D01*
X93043824Y-83349011D01*
X93047040Y-83348458D01*
X93496708Y-83286686D01*
X93499949Y-83286351D01*
X93952732Y-83254934D01*
X93955985Y-83254817D01*
X94409868Y-83253896D01*
X94413141Y-83253999D01*
X94866047Y-83283577D01*
X94869298Y-83283899D01*
X95318843Y-83343795D01*
X95320344Y-83344020D01*
X95320996Y-83344128D01*
X95337879Y-83347410D01*
X95339177Y-83347145D01*
X95344365Y-83348006D01*
X95344788Y-83348077D01*
X95344799Y-83348084D01*
X95344858Y-83348088D01*
X95347376Y-83348511D01*
X95365204Y-83341850D01*
X95377058Y-83339439D01*
X95383759Y-83334918D01*
X95397828Y-83329663D01*
X95401184Y-83325593D01*
X95411580Y-83316152D01*
X96898238Y-82313389D01*
X99199500Y-82313389D01*
X99199500Y-82314305D01*
X99199500Y-82486610D01*
X99226597Y-82657698D01*
X99226598Y-82657701D01*
X99280127Y-82822446D01*
X99358764Y-82976782D01*
X99358767Y-82976786D01*
X99358768Y-82976788D01*
X99460586Y-83116928D01*
X99460588Y-83116930D01*
X99460591Y-83116934D01*
X99583065Y-83239408D01*
X99583068Y-83239410D01*
X99583072Y-83239414D01*
X99723212Y-83341232D01*
X99723214Y-83341233D01*
X99723217Y-83341235D01*
X99877553Y-83419872D01*
X99877555Y-83419873D01*
X100042299Y-83473402D01*
X100213389Y-83500500D01*
X100213390Y-83500500D01*
X100386610Y-83500500D01*
X100386611Y-83500500D01*
X100557701Y-83473402D01*
X100722445Y-83419873D01*
X100876788Y-83341232D01*
X101016928Y-83239414D01*
X101139414Y-83116928D01*
X101241232Y-82976788D01*
X101319873Y-82822445D01*
X101373402Y-82657701D01*
X101400500Y-82486611D01*
X101400500Y-82313389D01*
X102699500Y-82313389D01*
X102699500Y-82314305D01*
X102699500Y-82486610D01*
X102726597Y-82657698D01*
X102726598Y-82657701D01*
X102780127Y-82822446D01*
X102858764Y-82976782D01*
X102858767Y-82976786D01*
X102858768Y-82976788D01*
X102960586Y-83116928D01*
X102960588Y-83116930D01*
X102960591Y-83116934D01*
X103083065Y-83239408D01*
X103083068Y-83239410D01*
X103083072Y-83239414D01*
X103223212Y-83341232D01*
X103223214Y-83341233D01*
X103223217Y-83341235D01*
X103377553Y-83419872D01*
X103377555Y-83419873D01*
X103542299Y-83473402D01*
X103713389Y-83500500D01*
X103713390Y-83500500D01*
X103886610Y-83500500D01*
X103886611Y-83500500D01*
X104057701Y-83473402D01*
X104222445Y-83419873D01*
X104376788Y-83341232D01*
X104516928Y-83239414D01*
X104639414Y-83116928D01*
X104741232Y-82976788D01*
X104819873Y-82822445D01*
X104873402Y-82657701D01*
X104900500Y-82486611D01*
X104900500Y-82313389D01*
X116199500Y-82313389D01*
X116199500Y-82314305D01*
X116199500Y-82486610D01*
X116226597Y-82657698D01*
X116226598Y-82657701D01*
X116280127Y-82822446D01*
X116358764Y-82976782D01*
X116358767Y-82976786D01*
X116358768Y-82976788D01*
X116460586Y-83116928D01*
X116460588Y-83116930D01*
X116460591Y-83116934D01*
X116583065Y-83239408D01*
X116583068Y-83239410D01*
X116583072Y-83239414D01*
X116723212Y-83341232D01*
X116723214Y-83341233D01*
X116723217Y-83341235D01*
X116877553Y-83419872D01*
X116877555Y-83419873D01*
X117042299Y-83473402D01*
X117213389Y-83500500D01*
X117213390Y-83500500D01*
X117386610Y-83500500D01*
X117386611Y-83500500D01*
X117557701Y-83473402D01*
X117722445Y-83419873D01*
X117876788Y-83341232D01*
X118016928Y-83239414D01*
X118139414Y-83116928D01*
X118241232Y-82976788D01*
X118319873Y-82822445D01*
X118373402Y-82657701D01*
X118400500Y-82486611D01*
X118400500Y-82313389D01*
X133299500Y-82313389D01*
X133299500Y-82314305D01*
X133299500Y-82486610D01*
X133326597Y-82657698D01*
X133326598Y-82657701D01*
X133380127Y-82822446D01*
X133458764Y-82976782D01*
X133458767Y-82976786D01*
X133458768Y-82976788D01*
X133560586Y-83116928D01*
X133560588Y-83116930D01*
X133560591Y-83116934D01*
X133683065Y-83239408D01*
X133683068Y-83239410D01*
X133683072Y-83239414D01*
X133823212Y-83341232D01*
X133823214Y-83341233D01*
X133823217Y-83341235D01*
X133977553Y-83419872D01*
X133977555Y-83419873D01*
X134142299Y-83473402D01*
X134313389Y-83500500D01*
X134313390Y-83500500D01*
X134486610Y-83500500D01*
X134486611Y-83500500D01*
X134657701Y-83473402D01*
X134822445Y-83419873D01*
X134976788Y-83341232D01*
X135116928Y-83239414D01*
X135239414Y-83116928D01*
X135341232Y-82976788D01*
X135419873Y-82822445D01*
X135473402Y-82657701D01*
X135500500Y-82486611D01*
X135500500Y-82313389D01*
X135473402Y-82142299D01*
X135419873Y-81977555D01*
X135341232Y-81823212D01*
X135239414Y-81683072D01*
X135239410Y-81683068D01*
X135239408Y-81683065D01*
X135116934Y-81560591D01*
X135116935Y-81560591D01*
X134976782Y-81458764D01*
X134822446Y-81380127D01*
X134657701Y-81326598D01*
X134657698Y-81326597D01*
X134526271Y-81305781D01*
X134486611Y-81299500D01*
X134313389Y-81299500D01*
X134281192Y-81304599D01*
X134142301Y-81326597D01*
X134142298Y-81326598D01*
X133977553Y-81380127D01*
X133823217Y-81458764D01*
X133683065Y-81560591D01*
X133560591Y-81683065D01*
X133458764Y-81823217D01*
X133380127Y-81977553D01*
X133326598Y-82142298D01*
X133326597Y-82142301D01*
X133306238Y-82270843D01*
X133299746Y-82311834D01*
X133299500Y-82313389D01*
X118400500Y-82313389D01*
X118373402Y-82142299D01*
X118319873Y-81977555D01*
X118241232Y-81823212D01*
X118139414Y-81683072D01*
X118139410Y-81683068D01*
X118139408Y-81683065D01*
X118016934Y-81560591D01*
X118016935Y-81560591D01*
X117876782Y-81458764D01*
X117722446Y-81380127D01*
X117557701Y-81326598D01*
X117557698Y-81326597D01*
X117426271Y-81305781D01*
X117386611Y-81299500D01*
X117213389Y-81299500D01*
X117181192Y-81304599D01*
X117042301Y-81326597D01*
X117042298Y-81326598D01*
X116877553Y-81380127D01*
X116723217Y-81458764D01*
X116583065Y-81560591D01*
X116460591Y-81683065D01*
X116358764Y-81823217D01*
X116280127Y-81977553D01*
X116226598Y-82142298D01*
X116226597Y-82142301D01*
X116206238Y-82270843D01*
X116199746Y-82311834D01*
X116199500Y-82313389D01*
X104900500Y-82313389D01*
X104873402Y-82142299D01*
X104819873Y-81977555D01*
X104741232Y-81823212D01*
X104639414Y-81683072D01*
X104639410Y-81683068D01*
X104639408Y-81683065D01*
X104516934Y-81560591D01*
X104516935Y-81560591D01*
X104376782Y-81458764D01*
X104222446Y-81380127D01*
X104057701Y-81326598D01*
X104057698Y-81326597D01*
X103926271Y-81305781D01*
X103886611Y-81299500D01*
X103713389Y-81299500D01*
X103681192Y-81304599D01*
X103542301Y-81326597D01*
X103542298Y-81326598D01*
X103377553Y-81380127D01*
X103223217Y-81458764D01*
X103083065Y-81560591D01*
X102960591Y-81683065D01*
X102858764Y-81823217D01*
X102780127Y-81977553D01*
X102726598Y-82142298D01*
X102726597Y-82142301D01*
X102706238Y-82270843D01*
X102699746Y-82311834D01*
X102699500Y-82313389D01*
X101400500Y-82313389D01*
X101373402Y-82142299D01*
X101319873Y-81977555D01*
X101241232Y-81823212D01*
X101139414Y-81683072D01*
X101139410Y-81683068D01*
X101139408Y-81683065D01*
X101016934Y-81560591D01*
X101016935Y-81560591D01*
X100876782Y-81458764D01*
X100722446Y-81380127D01*
X100557701Y-81326598D01*
X100557698Y-81326597D01*
X100426271Y-81305781D01*
X100386611Y-81299500D01*
X100213389Y-81299500D01*
X100181192Y-81304599D01*
X100042301Y-81326597D01*
X100042298Y-81326598D01*
X99877553Y-81380127D01*
X99723217Y-81458764D01*
X99583065Y-81560591D01*
X99460591Y-81683065D01*
X99358764Y-81823217D01*
X99280127Y-81977553D01*
X99226598Y-82142298D01*
X99226597Y-82142301D01*
X99206238Y-82270843D01*
X99199746Y-82311834D01*
X99199500Y-82313389D01*
X96898238Y-82313389D01*
X99640499Y-80463711D01*
X99642936Y-80462171D01*
X99795890Y-80371714D01*
X99801038Y-80369068D01*
X99962317Y-80297935D01*
X99967739Y-80295919D01*
X100136303Y-80244384D01*
X100141919Y-80243026D01*
X100315400Y-80211811D01*
X100321161Y-80211124D01*
X100498552Y-80200585D01*
X100501454Y-80200500D01*
X100526929Y-80200500D01*
X100526929Y-80200498D01*
X100528049Y-80200497D01*
X138197860Y-80199645D01*
X138202130Y-80199830D01*
G37*
G04 #@! TD.AperFunction*
M02*
