ISO-10303-21;
HEADER;
/* Generated by software containing ST-Developer
 * from STEP Tools, Inc. (www.steptools.com) 
 */

FILE_DESCRIPTION(
/* description */ (''),
/* implementation_level */ '2;1');

FILE_NAME(
/* name */ 'KanDao PCB Plate.step',
/* time_stamp */ '2026-08-06T23:31:49+03:00',
/* author */ (''),
/* organization */ (''),
/* preprocessor_version */ 'ST-DEVELOPER v20.1',
/* originating_system */ 'Autodesk Translation Framework v15.8.0.0',
/* authorisation */ '');

FILE_SCHEMA (('AUTOMOTIVE_DESIGN { 1 0 10303 214 3 1 1 }'));
ENDSEC;

DATA;
#10=MECHANICAL_DESIGN_GEOMETRIC_PRESENTATION_REPRESENTATION('',(#13),#736);
#11=SHAPE_REPRESENTATION_RELATIONSHIP('SRR','None',#743,#12);
#12=ADVANCED_BREP_SHAPE_REPRESENTATION('',(#14),#735);
#13=STYLED_ITEM('',(#752),#14);
#14=MANIFOLD_SOLID_BREP('K\X\F6rper3',#436);
#15=FACE_BOUND('',#79,.T.);
#16=FACE_BOUND('',#80,.T.);
#17=FACE_BOUND('',#81,.T.);
#18=FACE_BOUND('',#82,.T.);
#19=FACE_BOUND('',#83,.T.);
#20=FACE_BOUND('',#84,.T.);
#21=FACE_BOUND('',#85,.T.);
#22=FACE_BOUND('',#86,.T.);
#23=FACE_BOUND('',#87,.T.);
#24=FACE_BOUND('',#89,.T.);
#25=FACE_BOUND('',#90,.T.);
#26=FACE_BOUND('',#91,.T.);
#27=FACE_BOUND('',#92,.T.);
#28=FACE_BOUND('',#93,.T.);
#29=FACE_BOUND('',#94,.T.);
#30=FACE_BOUND('',#95,.T.);
#31=FACE_BOUND('',#96,.T.);
#32=FACE_BOUND('',#97,.T.);
#33=PLANE('',#480);
#34=PLANE('',#481);
#35=PLANE('',#482);
#36=PLANE('',#486);
#37=PLANE('',#487);
#38=PLANE('',#488);
#39=PLANE('',#489);
#40=PLANE('',#490);
#41=PLANE('',#491);
#42=PLANE('',#492);
#43=FACE_OUTER_BOUND('',#64,.T.);
#44=FACE_OUTER_BOUND('',#65,.T.);
#45=FACE_OUTER_BOUND('',#66,.T.);
#46=FACE_OUTER_BOUND('',#67,.T.);
#47=FACE_OUTER_BOUND('',#68,.T.);
#48=FACE_OUTER_BOUND('',#69,.T.);
#49=FACE_OUTER_BOUND('',#70,.T.);
#50=FACE_OUTER_BOUND('',#71,.T.);
#51=FACE_OUTER_BOUND('',#72,.T.);
#52=FACE_OUTER_BOUND('',#73,.T.);
#53=FACE_OUTER_BOUND('',#74,.T.);
#54=FACE_OUTER_BOUND('',#75,.T.);
#55=FACE_OUTER_BOUND('',#76,.T.);
#56=FACE_OUTER_BOUND('',#77,.T.);
#57=FACE_OUTER_BOUND('',#78,.T.);
#58=FACE_OUTER_BOUND('',#88,.T.);
#59=FACE_OUTER_BOUND('',#98,.T.);
#60=FACE_OUTER_BOUND('',#99,.T.);
#61=FACE_OUTER_BOUND('',#100,.T.);
#62=FACE_OUTER_BOUND('',#101,.T.);
#63=FACE_OUTER_BOUND('',#102,.T.);
#64=EDGE_LOOP('',(#290,#291,#292,#293));
#65=EDGE_LOOP('',(#294,#295,#296,#297));
#66=EDGE_LOOP('',(#298,#299,#300,#301));
#67=EDGE_LOOP('',(#302,#303,#304,#305));
#68=EDGE_LOOP('',(#306,#307,#308,#309));
#69=EDGE_LOOP('',(#310,#311,#312,#313));
#70=EDGE_LOOP('',(#314,#315,#316,#317));
#71=EDGE_LOOP('',(#318,#319,#320,#321));
#72=EDGE_LOOP('',(#322,#323,#324,#325));
#73=EDGE_LOOP('',(#326,#327,#328,#329));
#74=EDGE_LOOP('',(#330,#331,#332,#333));
#75=EDGE_LOOP('',(#334,#335,#336,#337));
#76=EDGE_LOOP('',(#338,#339,#340,#341));
#77=EDGE_LOOP('',(#342,#343,#344,#345));
#78=EDGE_LOOP('',(#346,#347,#348,#349,#350,#351,#352,#353,#354,#355));
#79=EDGE_LOOP('',(#356));
#80=EDGE_LOOP('',(#357));
#81=EDGE_LOOP('',(#358));
#82=EDGE_LOOP('',(#359));
#83=EDGE_LOOP('',(#360));
#84=EDGE_LOOP('',(#361));
#85=EDGE_LOOP('',(#362));
#86=EDGE_LOOP('',(#363));
#87=EDGE_LOOP('',(#364));
#88=EDGE_LOOP('',(#365,#366,#367,#368,#369,#370,#371,#372,#373,#374));
#89=EDGE_LOOP('',(#375));
#90=EDGE_LOOP('',(#376));
#91=EDGE_LOOP('',(#377));
#92=EDGE_LOOP('',(#378));
#93=EDGE_LOOP('',(#379));
#94=EDGE_LOOP('',(#380));
#95=EDGE_LOOP('',(#381));
#96=EDGE_LOOP('',(#382));
#97=EDGE_LOOP('',(#383));
#98=EDGE_LOOP('',(#384,#385,#386,#387));
#99=EDGE_LOOP('',(#388,#389,#390,#391));
#100=EDGE_LOOP('',(#392,#393,#394,#395));
#101=EDGE_LOOP('',(#396,#397,#398,#399));
#102=EDGE_LOOP('',(#400,#401,#402,#403));
#103=LINE('',#621,#138);
#104=LINE('',#627,#139);
#105=LINE('',#633,#140);
#106=LINE('',#639,#141);
#107=LINE('',#645,#142);
#108=LINE('',#651,#143);
#109=LINE('',#657,#144);
#110=LINE('',#663,#145);
#111=LINE('',#669,#146);
#112=LINE('',#676,#147);
#113=LINE('',#679,#148);
#114=LINE('',#682,#149);
#115=LINE('',#684,#150);
#116=LINE('',#685,#151);
#117=LINE('',#688,#152);
#118=LINE('',#690,#153);
#119=LINE('',#691,#154);
#120=LINE('',#694,#155);
#121=LINE('',#696,#156);
#122=LINE('',#697,#157);
#123=LINE('',#703,#158);
#124=LINE('',#707,#159);
#125=LINE('',#709,#160);
#126=LINE('',#711,#161);
#127=LINE('',#712,#162);
#128=LINE('',#713,#163);
#129=LINE('',#717,#164);
#130=LINE('',#718,#165);
#131=LINE('',#720,#166);
#132=LINE('',#722,#167);
#133=LINE('',#723,#168);
#134=LINE('',#725,#169);
#135=LINE('',#727,#170);
#136=LINE('',#729,#171);
#137=LINE('',#731,#172);
#138=VECTOR('',#499,0.700000000000003);
#139=VECTOR('',#506,0.699999999999998);
#140=VECTOR('',#513,0.700000000000003);
#141=VECTOR('',#520,0.700000000000003);
#142=VECTOR('',#527,0.700000000000001);
#143=VECTOR('',#534,0.699999999999999);
#144=VECTOR('',#541,0.700000000000001);
#145=VECTOR('',#548,0.699999999999998);
#146=VECTOR('',#555,0.700000000000001);
#147=VECTOR('',#562,10.);
#148=VECTOR('',#565,10.);
#149=VECTOR('',#568,10.);
#150=VECTOR('',#569,10.);
#151=VECTOR('',#570,10.);
#152=VECTOR('',#573,10.);
#153=VECTOR('',#574,10.);
#154=VECTOR('',#575,10.);
#155=VECTOR('',#578,10.);
#156=VECTOR('',#579,10.);
#157=VECTOR('',#580,10.);
#158=VECTOR('',#587,10.);
#159=VECTOR('',#590,10.);
#160=VECTOR('',#591,10.);
#161=VECTOR('',#592,10.);
#162=VECTOR('',#593,10.);
#163=VECTOR('',#594,10.);
#164=VECTOR('',#597,10.);
#165=VECTOR('',#598,10.);
#166=VECTOR('',#599,10.);
#167=VECTOR('',#600,10.);
#168=VECTOR('',#601,10.);
#169=VECTOR('',#604,10.);
#170=VECTOR('',#607,10.);
#171=VECTOR('',#610,10.);
#172=VECTOR('',#613,10.);
#173=CIRCLE('',#451,0.700000000000003);
#174=CIRCLE('',#452,0.700000000000003);
#175=CIRCLE('',#454,0.699999999999998);
#176=CIRCLE('',#455,0.699999999999998);
#177=CIRCLE('',#457,0.700000000000003);
#178=CIRCLE('',#458,0.700000000000003);
#179=CIRCLE('',#460,0.700000000000003);
#180=CIRCLE('',#461,0.700000000000003);
#181=CIRCLE('',#463,0.700000000000001);
#182=CIRCLE('',#464,0.700000000000001);
#183=CIRCLE('',#466,0.7);
#184=CIRCLE('',#467,0.7);
#185=CIRCLE('',#469,0.700000000000001);
#186=CIRCLE('',#470,0.700000000000001);
#187=CIRCLE('',#472,0.699999999999998);
#188=CIRCLE('',#473,0.699999999999998);
#189=CIRCLE('',#475,0.700000000000001);
#190=CIRCLE('',#476,0.700000000000001);
#191=CIRCLE('',#478,6.9);
#192=CIRCLE('',#479,6.9);
#193=CIRCLE('',#484,6.9);
#194=CIRCLE('',#485,6.9);
#195=VERTEX_POINT('',#618);
#196=VERTEX_POINT('',#620);
#197=VERTEX_POINT('',#624);
#198=VERTEX_POINT('',#626);
#199=VERTEX_POINT('',#630);
#200=VERTEX_POINT('',#632);
#201=VERTEX_POINT('',#636);
#202=VERTEX_POINT('',#638);
#203=VERTEX_POINT('',#642);
#204=VERTEX_POINT('',#644);
#205=VERTEX_POINT('',#648);
#206=VERTEX_POINT('',#650);
#207=VERTEX_POINT('',#654);
#208=VERTEX_POINT('',#656);
#209=VERTEX_POINT('',#660);
#210=VERTEX_POINT('',#662);
#211=VERTEX_POINT('',#666);
#212=VERTEX_POINT('',#668);
#213=VERTEX_POINT('',#672);
#214=VERTEX_POINT('',#673);
#215=VERTEX_POINT('',#675);
#216=VERTEX_POINT('',#677);
#217=VERTEX_POINT('',#681);
#218=VERTEX_POINT('',#683);
#219=VERTEX_POINT('',#687);
#220=VERTEX_POINT('',#689);
#221=VERTEX_POINT('',#693);
#222=VERTEX_POINT('',#695);
#223=VERTEX_POINT('',#699);
#224=VERTEX_POINT('',#701);
#225=VERTEX_POINT('',#705);
#226=VERTEX_POINT('',#706);
#227=VERTEX_POINT('',#708);
#228=VERTEX_POINT('',#710);
#229=VERTEX_POINT('',#715);
#230=VERTEX_POINT('',#716);
#231=VERTEX_POINT('',#719);
#232=VERTEX_POINT('',#721);
#233=EDGE_CURVE('',#195,#195,#173,.T.);
#234=EDGE_CURVE('',#195,#196,#103,.T.);
#235=EDGE_CURVE('',#196,#196,#174,.T.);
#236=EDGE_CURVE('',#197,#197,#175,.T.);
#237=EDGE_CURVE('',#197,#198,#104,.T.);
#238=EDGE_CURVE('',#198,#198,#176,.T.);
#239=EDGE_CURVE('',#199,#199,#177,.T.);
#240=EDGE_CURVE('',#199,#200,#105,.T.);
#241=EDGE_CURVE('',#200,#200,#178,.T.);
#242=EDGE_CURVE('',#201,#201,#179,.T.);
#243=EDGE_CURVE('',#201,#202,#106,.T.);
#244=EDGE_CURVE('',#202,#202,#180,.T.);
#245=EDGE_CURVE('',#203,#203,#181,.T.);
#246=EDGE_CURVE('',#203,#204,#107,.T.);
#247=EDGE_CURVE('',#204,#204,#182,.T.);
#248=EDGE_CURVE('',#205,#205,#183,.T.);
#249=EDGE_CURVE('',#205,#206,#108,.T.);
#250=EDGE_CURVE('',#206,#206,#184,.T.);
#251=EDGE_CURVE('',#207,#207,#185,.T.);
#252=EDGE_CURVE('',#207,#208,#109,.T.);
#253=EDGE_CURVE('',#208,#208,#186,.T.);
#254=EDGE_CURVE('',#209,#209,#187,.T.);
#255=EDGE_CURVE('',#209,#210,#110,.T.);
#256=EDGE_CURVE('',#210,#210,#188,.T.);
#257=EDGE_CURVE('',#211,#211,#189,.T.);
#258=EDGE_CURVE('',#211,#212,#111,.T.);
#259=EDGE_CURVE('',#212,#212,#190,.T.);
#260=EDGE_CURVE('',#213,#214,#191,.T.);
#261=EDGE_CURVE('',#214,#215,#112,.T.);
#262=EDGE_CURVE('',#216,#215,#192,.T.);
#263=EDGE_CURVE('',#213,#216,#113,.T.);
#264=EDGE_CURVE('',#217,#213,#114,.T.);
#265=EDGE_CURVE('',#218,#216,#115,.T.);
#266=EDGE_CURVE('',#217,#218,#116,.T.);
#267=EDGE_CURVE('',#219,#217,#117,.T.);
#268=EDGE_CURVE('',#220,#218,#118,.T.);
#269=EDGE_CURVE('',#219,#220,#119,.T.);
#270=EDGE_CURVE('',#221,#219,#120,.T.);
#271=EDGE_CURVE('',#222,#220,#121,.T.);
#272=EDGE_CURVE('',#221,#222,#122,.T.);
#273=EDGE_CURVE('',#223,#221,#193,.T.);
#274=EDGE_CURVE('',#224,#222,#194,.T.);
#275=EDGE_CURVE('',#223,#224,#123,.T.);
#276=EDGE_CURVE('',#225,#226,#124,.T.);
#277=EDGE_CURVE('',#226,#227,#125,.T.);
#278=EDGE_CURVE('',#227,#228,#126,.T.);
#279=EDGE_CURVE('',#228,#224,#127,.T.);
#280=EDGE_CURVE('',#215,#225,#128,.T.);
#281=EDGE_CURVE('',#229,#230,#129,.T.);
#282=EDGE_CURVE('',#214,#229,#130,.T.);
#283=EDGE_CURVE('',#223,#231,#131,.T.);
#284=EDGE_CURVE('',#232,#231,#132,.T.);
#285=EDGE_CURVE('',#230,#232,#133,.T.);
#286=EDGE_CURVE('',#229,#225,#134,.T.);
#287=EDGE_CURVE('',#231,#228,#135,.T.);
#288=EDGE_CURVE('',#232,#227,#136,.T.);
#289=EDGE_CURVE('',#230,#226,#137,.T.);
#290=ORIENTED_EDGE('',*,*,#233,.F.);
#291=ORIENTED_EDGE('',*,*,#234,.T.);
#292=ORIENTED_EDGE('',*,*,#235,.T.);
#293=ORIENTED_EDGE('',*,*,#234,.F.);
#294=ORIENTED_EDGE('',*,*,#236,.F.);
#295=ORIENTED_EDGE('',*,*,#237,.T.);
#296=ORIENTED_EDGE('',*,*,#238,.T.);
#297=ORIENTED_EDGE('',*,*,#237,.F.);
#298=ORIENTED_EDGE('',*,*,#239,.F.);
#299=ORIENTED_EDGE('',*,*,#240,.T.);
#300=ORIENTED_EDGE('',*,*,#241,.T.);
#301=ORIENTED_EDGE('',*,*,#240,.F.);
#302=ORIENTED_EDGE('',*,*,#242,.F.);
#303=ORIENTED_EDGE('',*,*,#243,.T.);
#304=ORIENTED_EDGE('',*,*,#244,.T.);
#305=ORIENTED_EDGE('',*,*,#243,.F.);
#306=ORIENTED_EDGE('',*,*,#245,.F.);
#307=ORIENTED_EDGE('',*,*,#246,.T.);
#308=ORIENTED_EDGE('',*,*,#247,.T.);
#309=ORIENTED_EDGE('',*,*,#246,.F.);
#310=ORIENTED_EDGE('',*,*,#248,.F.);
#311=ORIENTED_EDGE('',*,*,#249,.T.);
#312=ORIENTED_EDGE('',*,*,#250,.T.);
#313=ORIENTED_EDGE('',*,*,#249,.F.);
#314=ORIENTED_EDGE('',*,*,#251,.F.);
#315=ORIENTED_EDGE('',*,*,#252,.T.);
#316=ORIENTED_EDGE('',*,*,#253,.T.);
#317=ORIENTED_EDGE('',*,*,#252,.F.);
#318=ORIENTED_EDGE('',*,*,#254,.F.);
#319=ORIENTED_EDGE('',*,*,#255,.T.);
#320=ORIENTED_EDGE('',*,*,#256,.T.);
#321=ORIENTED_EDGE('',*,*,#255,.F.);
#322=ORIENTED_EDGE('',*,*,#257,.F.);
#323=ORIENTED_EDGE('',*,*,#258,.T.);
#324=ORIENTED_EDGE('',*,*,#259,.T.);
#325=ORIENTED_EDGE('',*,*,#258,.F.);
#326=ORIENTED_EDGE('',*,*,#260,.T.);
#327=ORIENTED_EDGE('',*,*,#261,.T.);
#328=ORIENTED_EDGE('',*,*,#262,.F.);
#329=ORIENTED_EDGE('',*,*,#263,.F.);
#330=ORIENTED_EDGE('',*,*,#264,.T.);
#331=ORIENTED_EDGE('',*,*,#263,.T.);
#332=ORIENTED_EDGE('',*,*,#265,.F.);
#333=ORIENTED_EDGE('',*,*,#266,.F.);
#334=ORIENTED_EDGE('',*,*,#267,.T.);
#335=ORIENTED_EDGE('',*,*,#266,.T.);
#336=ORIENTED_EDGE('',*,*,#268,.F.);
#337=ORIENTED_EDGE('',*,*,#269,.F.);
#338=ORIENTED_EDGE('',*,*,#270,.T.);
#339=ORIENTED_EDGE('',*,*,#269,.T.);
#340=ORIENTED_EDGE('',*,*,#271,.F.);
#341=ORIENTED_EDGE('',*,*,#272,.F.);
#342=ORIENTED_EDGE('',*,*,#273,.T.);
#343=ORIENTED_EDGE('',*,*,#272,.T.);
#344=ORIENTED_EDGE('',*,*,#274,.F.);
#345=ORIENTED_EDGE('',*,*,#275,.F.);
#346=ORIENTED_EDGE('',*,*,#276,.T.);
#347=ORIENTED_EDGE('',*,*,#277,.T.);
#348=ORIENTED_EDGE('',*,*,#278,.T.);
#349=ORIENTED_EDGE('',*,*,#279,.T.);
#350=ORIENTED_EDGE('',*,*,#274,.T.);
#351=ORIENTED_EDGE('',*,*,#271,.T.);
#352=ORIENTED_EDGE('',*,*,#268,.T.);
#353=ORIENTED_EDGE('',*,*,#265,.T.);
#354=ORIENTED_EDGE('',*,*,#262,.T.);
#355=ORIENTED_EDGE('',*,*,#280,.T.);
#356=ORIENTED_EDGE('',*,*,#236,.T.);
#357=ORIENTED_EDGE('',*,*,#239,.T.);
#358=ORIENTED_EDGE('',*,*,#257,.T.);
#359=ORIENTED_EDGE('',*,*,#242,.T.);
#360=ORIENTED_EDGE('',*,*,#254,.T.);
#361=ORIENTED_EDGE('',*,*,#233,.T.);
#362=ORIENTED_EDGE('',*,*,#251,.T.);
#363=ORIENTED_EDGE('',*,*,#248,.T.);
#364=ORIENTED_EDGE('',*,*,#245,.T.);
#365=ORIENTED_EDGE('',*,*,#281,.F.);
#366=ORIENTED_EDGE('',*,*,#282,.F.);
#367=ORIENTED_EDGE('',*,*,#260,.F.);
#368=ORIENTED_EDGE('',*,*,#264,.F.);
#369=ORIENTED_EDGE('',*,*,#267,.F.);
#370=ORIENTED_EDGE('',*,*,#270,.F.);
#371=ORIENTED_EDGE('',*,*,#273,.F.);
#372=ORIENTED_EDGE('',*,*,#283,.T.);
#373=ORIENTED_EDGE('',*,*,#284,.F.);
#374=ORIENTED_EDGE('',*,*,#285,.F.);
#375=ORIENTED_EDGE('',*,*,#238,.F.);
#376=ORIENTED_EDGE('',*,*,#241,.F.);
#377=ORIENTED_EDGE('',*,*,#259,.F.);
#378=ORIENTED_EDGE('',*,*,#244,.F.);
#379=ORIENTED_EDGE('',*,*,#256,.F.);
#380=ORIENTED_EDGE('',*,*,#235,.F.);
#381=ORIENTED_EDGE('',*,*,#253,.F.);
#382=ORIENTED_EDGE('',*,*,#250,.F.);
#383=ORIENTED_EDGE('',*,*,#247,.F.);
#384=ORIENTED_EDGE('',*,*,#282,.T.);
#385=ORIENTED_EDGE('',*,*,#286,.T.);
#386=ORIENTED_EDGE('',*,*,#280,.F.);
#387=ORIENTED_EDGE('',*,*,#261,.F.);
#388=ORIENTED_EDGE('',*,*,#283,.F.);
#389=ORIENTED_EDGE('',*,*,#275,.T.);
#390=ORIENTED_EDGE('',*,*,#279,.F.);
#391=ORIENTED_EDGE('',*,*,#287,.F.);
#392=ORIENTED_EDGE('',*,*,#284,.T.);
#393=ORIENTED_EDGE('',*,*,#287,.T.);
#394=ORIENTED_EDGE('',*,*,#278,.F.);
#395=ORIENTED_EDGE('',*,*,#288,.F.);
#396=ORIENTED_EDGE('',*,*,#285,.T.);
#397=ORIENTED_EDGE('',*,*,#288,.T.);
#398=ORIENTED_EDGE('',*,*,#277,.F.);
#399=ORIENTED_EDGE('',*,*,#289,.F.);
#400=ORIENTED_EDGE('',*,*,#281,.T.);
#401=ORIENTED_EDGE('',*,*,#289,.T.);
#402=ORIENTED_EDGE('',*,*,#276,.F.);
#403=ORIENTED_EDGE('',*,*,#286,.F.);
#404=CYLINDRICAL_SURFACE('',#450,0.700000000000003);
#405=CYLINDRICAL_SURFACE('',#453,0.699999999999998);
#406=CYLINDRICAL_SURFACE('',#456,0.700000000000003);
#407=CYLINDRICAL_SURFACE('',#459,0.700000000000003);
#408=CYLINDRICAL_SURFACE('',#462,0.700000000000001);
#409=CYLINDRICAL_SURFACE('',#465,0.7);
#410=CYLINDRICAL_SURFACE('',#468,0.700000000000001);
#411=CYLINDRICAL_SURFACE('',#471,0.699999999999998);
#412=CYLINDRICAL_SURFACE('',#474,0.700000000000001);
#413=CYLINDRICAL_SURFACE('',#477,6.9);
#414=CYLINDRICAL_SURFACE('',#483,6.9);
#415=ADVANCED_FACE('',(#43),#404,.F.);
#416=ADVANCED_FACE('',(#44),#405,.F.);
#417=ADVANCED_FACE('',(#45),#406,.F.);
#418=ADVANCED_FACE('',(#46),#407,.F.);
#419=ADVANCED_FACE('',(#47),#408,.F.);
#420=ADVANCED_FACE('',(#48),#409,.F.);
#421=ADVANCED_FACE('',(#49),#410,.F.);
#422=ADVANCED_FACE('',(#50),#411,.F.);
#423=ADVANCED_FACE('',(#51),#412,.F.);
#424=ADVANCED_FACE('',(#52),#413,.T.);
#425=ADVANCED_FACE('',(#53),#33,.T.);
#426=ADVANCED_FACE('',(#54),#34,.T.);
#427=ADVANCED_FACE('',(#55),#35,.T.);
#428=ADVANCED_FACE('',(#56),#414,.T.);
#429=ADVANCED_FACE('',(#57,#15,#16,#17,#18,#19,#20,#21,#22,#23),#36,.T.);
#430=ADVANCED_FACE('',(#58,#24,#25,#26,#27,#28,#29,#30,#31,#32),#37,.F.);
#431=ADVANCED_FACE('',(#59),#38,.T.);
#432=ADVANCED_FACE('',(#60),#39,.T.);
#433=ADVANCED_FACE('',(#61),#40,.T.);
#434=ADVANCED_FACE('',(#62),#41,.T.);
#435=ADVANCED_FACE('',(#63),#42,.T.);
#436=CLOSED_SHELL('',(#415,#416,#417,#418,#419,#420,#421,#422,#423,#424,
#425,#426,#427,#428,#429,#430,#431,#432,#433,#434,#435));
#437=DERIVED_UNIT_ELEMENT(#439,1.);
#438=DERIVED_UNIT_ELEMENT(#738,-3.);
#439=(
MASS_UNIT()
NAMED_UNIT(*)
SI_UNIT(.KILO.,.GRAM.)
);
#440=DERIVED_UNIT((#437,#438));
#441=MEASURE_REPRESENTATION_ITEM('density measure',
POSITIVE_RATIO_MEASURE(7850.),#440);
#442=PROPERTY_DEFINITION_REPRESENTATION(#447,#444);
#443=PROPERTY_DEFINITION_REPRESENTATION(#448,#445);
#444=REPRESENTATION('material name',(#446),#735);
#445=REPRESENTATION('density',(#441),#735);
#446=DESCRIPTIVE_REPRESENTATION_ITEM('Stahl','Stahl');
#447=PROPERTY_DEFINITION('material property','material name',#745);
#448=PROPERTY_DEFINITION('material property','density of part',#745);
#449=AXIS2_PLACEMENT_3D('',#616,#493,#494);
#450=AXIS2_PLACEMENT_3D('',#617,#495,#496);
#451=AXIS2_PLACEMENT_3D('',#619,#497,#498);
#452=AXIS2_PLACEMENT_3D('',#622,#500,#501);
#453=AXIS2_PLACEMENT_3D('',#623,#502,#503);
#454=AXIS2_PLACEMENT_3D('',#625,#504,#505);
#455=AXIS2_PLACEMENT_3D('',#628,#507,#508);
#456=AXIS2_PLACEMENT_3D('',#629,#509,#510);
#457=AXIS2_PLACEMENT_3D('',#631,#511,#512);
#458=AXIS2_PLACEMENT_3D('',#634,#514,#515);
#459=AXIS2_PLACEMENT_3D('',#635,#516,#517);
#460=AXIS2_PLACEMENT_3D('',#637,#518,#519);
#461=AXIS2_PLACEMENT_3D('',#640,#521,#522);
#462=AXIS2_PLACEMENT_3D('',#641,#523,#524);
#463=AXIS2_PLACEMENT_3D('',#643,#525,#526);
#464=AXIS2_PLACEMENT_3D('',#646,#528,#529);
#465=AXIS2_PLACEMENT_3D('',#647,#530,#531);
#466=AXIS2_PLACEMENT_3D('',#649,#532,#533);
#467=AXIS2_PLACEMENT_3D('',#652,#535,#536);
#468=AXIS2_PLACEMENT_3D('',#653,#537,#538);
#469=AXIS2_PLACEMENT_3D('',#655,#539,#540);
#470=AXIS2_PLACEMENT_3D('',#658,#542,#543);
#471=AXIS2_PLACEMENT_3D('',#659,#544,#545);
#472=AXIS2_PLACEMENT_3D('',#661,#546,#547);
#473=AXIS2_PLACEMENT_3D('',#664,#549,#550);
#474=AXIS2_PLACEMENT_3D('',#665,#551,#552);
#475=AXIS2_PLACEMENT_3D('',#667,#553,#554);
#476=AXIS2_PLACEMENT_3D('',#670,#556,#557);
#477=AXIS2_PLACEMENT_3D('',#671,#558,#559);
#478=AXIS2_PLACEMENT_3D('',#674,#560,#561);
#479=AXIS2_PLACEMENT_3D('',#678,#563,#564);
#480=AXIS2_PLACEMENT_3D('',#680,#566,#567);
#481=AXIS2_PLACEMENT_3D('',#686,#571,#572);
#482=AXIS2_PLACEMENT_3D('',#692,#576,#577);
#483=AXIS2_PLACEMENT_3D('',#698,#581,#582);
#484=AXIS2_PLACEMENT_3D('',#700,#583,#584);
#485=AXIS2_PLACEMENT_3D('',#702,#585,#586);
#486=AXIS2_PLACEMENT_3D('',#704,#588,#589);
#487=AXIS2_PLACEMENT_3D('',#714,#595,#596);
#488=AXIS2_PLACEMENT_3D('',#724,#602,#603);
#489=AXIS2_PLACEMENT_3D('',#726,#605,#606);
#490=AXIS2_PLACEMENT_3D('',#728,#608,#609);
#491=AXIS2_PLACEMENT_3D('',#730,#611,#612);
#492=AXIS2_PLACEMENT_3D('',#732,#614,#615);
#493=DIRECTION('axis',(0.,0.,1.));
#494=DIRECTION('refdir',(1.,0.,0.));
#495=DIRECTION('center_axis',(0.,0.,1.));
#496=DIRECTION('ref_axis',(-1.,0.,0.));
#497=DIRECTION('center_axis',(0.,0.,-1.));
#498=DIRECTION('ref_axis',(-1.,0.,0.));
#499=DIRECTION('',(0.,0.,-1.));
#500=DIRECTION('center_axis',(0.,0.,-1.));
#501=DIRECTION('ref_axis',(-1.,0.,0.));
#502=DIRECTION('center_axis',(0.,0.,1.));
#503=DIRECTION('ref_axis',(-1.,0.,0.));
#504=DIRECTION('center_axis',(0.,0.,-1.));
#505=DIRECTION('ref_axis',(-1.,0.,0.));
#506=DIRECTION('',(0.,0.,-1.));
#507=DIRECTION('center_axis',(0.,0.,-1.));
#508=DIRECTION('ref_axis',(-1.,0.,0.));
#509=DIRECTION('center_axis',(0.,0.,1.));
#510=DIRECTION('ref_axis',(-1.,0.,0.));
#511=DIRECTION('center_axis',(0.,0.,-1.));
#512=DIRECTION('ref_axis',(-1.,0.,0.));
#513=DIRECTION('',(0.,0.,-1.));
#514=DIRECTION('center_axis',(0.,0.,-1.));
#515=DIRECTION('ref_axis',(-1.,0.,0.));
#516=DIRECTION('center_axis',(0.,0.,1.));
#517=DIRECTION('ref_axis',(-1.,0.,0.));
#518=DIRECTION('center_axis',(0.,0.,-1.));
#519=DIRECTION('ref_axis',(-1.,0.,0.));
#520=DIRECTION('',(0.,0.,-1.));
#521=DIRECTION('center_axis',(0.,0.,-1.));
#522=DIRECTION('ref_axis',(-1.,0.,0.));
#523=DIRECTION('center_axis',(0.,0.,1.));
#524=DIRECTION('ref_axis',(-1.,0.,0.));
#525=DIRECTION('center_axis',(0.,0.,-1.));
#526=DIRECTION('ref_axis',(-1.,0.,0.));
#527=DIRECTION('',(0.,0.,-1.));
#528=DIRECTION('center_axis',(0.,0.,-1.));
#529=DIRECTION('ref_axis',(-1.,0.,0.));
#530=DIRECTION('center_axis',(0.,0.,1.));
#531=DIRECTION('ref_axis',(-1.,0.,0.));
#532=DIRECTION('center_axis',(0.,0.,-1.));
#533=DIRECTION('ref_axis',(-1.,0.,0.));
#534=DIRECTION('',(0.,0.,-1.));
#535=DIRECTION('center_axis',(0.,0.,-1.));
#536=DIRECTION('ref_axis',(-1.,0.,0.));
#537=DIRECTION('center_axis',(0.,0.,1.));
#538=DIRECTION('ref_axis',(-1.,0.,0.));
#539=DIRECTION('center_axis',(0.,0.,-1.));
#540=DIRECTION('ref_axis',(-1.,0.,0.));
#541=DIRECTION('',(0.,0.,-1.));
#542=DIRECTION('center_axis',(0.,0.,-1.));
#543=DIRECTION('ref_axis',(-1.,0.,0.));
#544=DIRECTION('center_axis',(0.,0.,1.));
#545=DIRECTION('ref_axis',(-1.,0.,0.));
#546=DIRECTION('center_axis',(0.,0.,-1.));
#547=DIRECTION('ref_axis',(-1.,0.,0.));
#548=DIRECTION('',(0.,0.,-1.));
#549=DIRECTION('center_axis',(0.,0.,-1.));
#550=DIRECTION('ref_axis',(-1.,0.,0.));
#551=DIRECTION('center_axis',(0.,0.,1.));
#552=DIRECTION('ref_axis',(-1.,0.,0.));
#553=DIRECTION('center_axis',(0.,0.,-1.));
#554=DIRECTION('ref_axis',(-1.,0.,0.));
#555=DIRECTION('',(0.,0.,-1.));
#556=DIRECTION('center_axis',(0.,0.,-1.));
#557=DIRECTION('ref_axis',(-1.,0.,0.));
#558=DIRECTION('center_axis',(0.,0.,1.));
#559=DIRECTION('ref_axis',(-0.542667828875516,-0.83994739567638,0.));
#560=DIRECTION('center_axis',(0.,0.,1.));
#561=DIRECTION('ref_axis',(-0.542667828875516,-0.83994739567638,0.));
#562=DIRECTION('',(0.,0.,1.));
#563=DIRECTION('center_axis',(0.,0.,1.));
#564=DIRECTION('ref_axis',(-0.542667828875516,-0.83994739567638,0.));
#565=DIRECTION('',(0.,0.,1.));
#566=DIRECTION('center_axis',(-0.0639676796420191,-0.997951970768742,0.));
#567=DIRECTION('ref_axis',(0.997951970768742,-0.0639676796420191,0.));
#568=DIRECTION('',(0.997951970768742,-0.0639676796420191,0.));
#569=DIRECTION('',(0.997951970768742,-0.0639676796420191,0.));
#570=DIRECTION('',(0.,0.,1.));
#571=DIRECTION('center_axis',(-1.,0.,0.));
#572=DIRECTION('ref_axis',(0.,-1.,0.));
#573=DIRECTION('',(0.,-1.,0.));
#574=DIRECTION('',(0.,-1.,0.));
#575=DIRECTION('',(0.,0.,1.));
#576=DIRECTION('center_axis',(-0.0639676796420185,0.997951970768742,0.));
#577=DIRECTION('ref_axis',(-0.997951970768742,-0.0639676796420185,0.));
#578=DIRECTION('',(-0.997951970768742,-0.0639676796420185,0.));
#579=DIRECTION('',(-0.997951970768742,-0.0639676796420185,0.));
#580=DIRECTION('',(0.,0.,1.));
#581=DIRECTION('center_axis',(0.,0.,1.));
#582=DIRECTION('ref_axis',(0.165318093721471,0.986240299261949,0.));
#583=DIRECTION('center_axis',(0.,0.,1.));
#584=DIRECTION('ref_axis',(0.165318093721471,0.986240299261949,0.));
#585=DIRECTION('center_axis',(0.,0.,1.));
#586=DIRECTION('ref_axis',(0.165318093721471,0.986240299261949,0.));
#587=DIRECTION('',(0.,0.,1.));
#588=DIRECTION('center_axis',(0.,0.,1.));
#589=DIRECTION('ref_axis',(1.,0.,0.));
#590=DIRECTION('',(1.,0.,0.));
#591=DIRECTION('',(0.,1.,0.));
#592=DIRECTION('',(-1.,0.,0.));
#593=DIRECTION('',(-0.829037572555042,-0.559192903470747,0.));
#594=DIRECTION('',(0.829037572555043,-0.559192903470745,0.));
#595=DIRECTION('center_axis',(0.,0.,1.));
#596=DIRECTION('ref_axis',(1.,0.,0.));
#597=DIRECTION('',(1.,0.,0.));
#598=DIRECTION('',(0.829037572555043,-0.559192903470745,0.));
#599=DIRECTION('',(0.829037572555042,0.559192903470747,0.));
#600=DIRECTION('',(-1.,0.,0.));
#601=DIRECTION('',(0.,1.,0.));
#602=DIRECTION('center_axis',(-0.559192903470746,-0.829037572555042,0.));
#603=DIRECTION('ref_axis',(0.829037572555042,-0.559192903470746,0.));
#604=DIRECTION('',(0.,0.,1.));
#605=DIRECTION('center_axis',(-0.559192903470747,0.829037572555042,0.));
#606=DIRECTION('ref_axis',(-0.829037572555042,-0.559192903470747,0.));
#607=DIRECTION('',(0.,0.,1.));
#608=DIRECTION('center_axis',(0.,1.,0.));
#609=DIRECTION('ref_axis',(-1.,0.,0.));
#610=DIRECTION('',(0.,0.,1.));
#611=DIRECTION('center_axis',(1.,0.,0.));
#612=DIRECTION('ref_axis',(0.,1.,0.));
#613=DIRECTION('',(0.,0.,1.));
#614=DIRECTION('center_axis',(0.,-1.,0.));
#615=DIRECTION('ref_axis',(1.,0.,0.));
#616=CARTESIAN_POINT('',(0.,0.,0.));
#617=CARTESIAN_POINT('Origin',(23.,-7.65,0.));
#618=CARTESIAN_POINT('',(23.7,-7.65,1.));
#619=CARTESIAN_POINT('Origin',(23.,-7.65,1.));
#620=CARTESIAN_POINT('',(23.7,-7.65,0.));
#621=CARTESIAN_POINT('',(23.7,-7.65,0.));
#622=CARTESIAN_POINT('Origin',(23.,-7.65,0.));
#623=CARTESIAN_POINT('Origin',(-25.8,0.,0.));
#624=CARTESIAN_POINT('',(-25.1,0.,1.));
#625=CARTESIAN_POINT('Origin',(-25.8,0.,1.));
#626=CARTESIAN_POINT('',(-25.1,8.57252759403145E-17,0.));
#627=CARTESIAN_POINT('',(-25.1,8.57252759403145E-17,0.));
#628=CARTESIAN_POINT('Origin',(-25.8,0.,0.));
#629=CARTESIAN_POINT('Origin',(25.7,5.25,0.));
#630=CARTESIAN_POINT('',(26.4,5.25,1.));
#631=CARTESIAN_POINT('Origin',(25.7,5.25,1.));
#632=CARTESIAN_POINT('',(26.4,5.25,0.));
#633=CARTESIAN_POINT('',(26.4,5.25,0.));
#634=CARTESIAN_POINT('Origin',(25.7,5.25,0.));
#635=CARTESIAN_POINT('Origin',(23.,7.65,0.));
#636=CARTESIAN_POINT('',(23.7,7.65,1.));
#637=CARTESIAN_POINT('Origin',(23.,7.65,1.));
#638=CARTESIAN_POINT('',(23.7,7.65,0.));
#639=CARTESIAN_POINT('',(23.7,7.65,0.));
#640=CARTESIAN_POINT('Origin',(23.,7.65,0.));
#641=CARTESIAN_POINT('Origin',(5.9,7.65,0.));
#642=CARTESIAN_POINT('',(6.6,7.65,1.));
#643=CARTESIAN_POINT('Origin',(5.9,7.65,1.));
#644=CARTESIAN_POINT('',(6.6,7.65,0.));
#645=CARTESIAN_POINT('',(6.6,7.65,0.));
#646=CARTESIAN_POINT('Origin',(5.9,7.65,0.));
#647=CARTESIAN_POINT('Origin',(-7.6,-7.65,0.));
#648=CARTESIAN_POINT('',(-6.9,-7.65,1.));
#649=CARTESIAN_POINT('Origin',(-7.6,-7.65,1.));
#650=CARTESIAN_POINT('',(-6.9,-7.65,0.));
#651=CARTESIAN_POINT('',(-6.9,-7.65,0.));
#652=CARTESIAN_POINT('Origin',(-7.6,-7.65,0.));
#653=CARTESIAN_POINT('Origin',(-11.1,7.65,0.));
#654=CARTESIAN_POINT('',(-10.4,7.65,1.));
#655=CARTESIAN_POINT('Origin',(-11.1,7.65,1.));
#656=CARTESIAN_POINT('',(-10.4,7.65,0.));
#657=CARTESIAN_POINT('',(-10.4,7.65,0.));
#658=CARTESIAN_POINT('Origin',(-11.1,7.65,0.));
#659=CARTESIAN_POINT('Origin',(-11.1,-7.65,0.));
#660=CARTESIAN_POINT('',(-10.4,-7.65,1.));
#661=CARTESIAN_POINT('Origin',(-11.1,-7.65,1.));
#662=CARTESIAN_POINT('',(-10.4,-7.65,0.));
#663=CARTESIAN_POINT('',(-10.4,-7.65,0.));
#664=CARTESIAN_POINT('Origin',(-11.1,-7.65,0.));
#665=CARTESIAN_POINT('Origin',(5.9,-7.65,0.));
#666=CARTESIAN_POINT('',(6.6,-7.65,1.));
#667=CARTESIAN_POINT('Origin',(5.9,-7.65,1.));
#668=CARTESIAN_POINT('',(6.6,-7.65,0.));
#669=CARTESIAN_POINT('',(6.6,-7.65,0.));
#670=CARTESIAN_POINT('Origin',(5.9,-7.65,0.));
#671=CARTESIAN_POINT('Origin',(-17.2032630078853,0.,0.));
#672=CARTESIAN_POINT('',(-20.9476710271264,-5.79563703016702,0.));
#673=CARTESIAN_POINT('',(-16.0625681612072,-6.80505806490745,0.));
#674=CARTESIAN_POINT('Origin',(-17.2032630078853,0.,0.));
#675=CARTESIAN_POINT('',(-16.0625681612072,-6.80505806490745,1.));
#676=CARTESIAN_POINT('',(-16.0625681612072,-6.80505806490745,0.));
#677=CARTESIAN_POINT('',(-20.9476710271264,-5.79563703016702,1.));
#678=CARTESIAN_POINT('Origin',(-17.2032630078853,0.,1.));
#679=CARTESIAN_POINT('',(-20.9476710271264,-5.79563703016702,0.));
#680=CARTESIAN_POINT('Origin',(-27.9,-5.35,0.));
#681=CARTESIAN_POINT('',(-27.9,-5.35,0.));
#682=CARTESIAN_POINT('',(-27.9,-5.35,0.));
#683=CARTESIAN_POINT('',(-27.9,-5.35,1.));
#684=CARTESIAN_POINT('',(-27.9,-5.35,1.));
#685=CARTESIAN_POINT('',(-27.9,-5.35,0.));
#686=CARTESIAN_POINT('Origin',(-27.9,5.35,0.));
#687=CARTESIAN_POINT('',(-27.9,5.35,0.));
#688=CARTESIAN_POINT('',(-27.9,5.35,0.));
#689=CARTESIAN_POINT('',(-27.9,5.35,1.));
#690=CARTESIAN_POINT('',(-27.9,5.35,1.));
#691=CARTESIAN_POINT('',(-27.9,5.35,0.));
#692=CARTESIAN_POINT('Origin',(-20.9476710271264,5.79563703016702,0.));
#693=CARTESIAN_POINT('',(-20.9476710271264,5.79563703016702,0.));
#694=CARTESIAN_POINT('',(-20.9476710271264,5.79563703016702,0.));
#695=CARTESIAN_POINT('',(-20.9476710271264,5.79563703016702,1.));
#696=CARTESIAN_POINT('',(-20.9476710271264,5.79563703016702,1.));
#697=CARTESIAN_POINT('',(-20.9476710271264,5.79563703016702,0.));
#698=CARTESIAN_POINT('Origin',(-17.2032630078853,0.,0.));
#699=CARTESIAN_POINT('',(-16.0625681612071,6.80505806490745,0.));
#700=CARTESIAN_POINT('Origin',(-17.2032630078853,0.,0.));
#701=CARTESIAN_POINT('',(-16.0625681612071,6.80505806490745,1.));
#702=CARTESIAN_POINT('Origin',(-17.2032630078853,0.,1.));
#703=CARTESIAN_POINT('',(-16.0625681612071,6.80505806490745,0.));
#704=CARTESIAN_POINT('Origin',(6.74609283321952,0.,1.));
#705=CARTESIAN_POINT('',(-11.4,-9.95,1.));
#706=CARTESIAN_POINT('',(27.9,-9.95,1.));
#707=CARTESIAN_POINT('',(-27.9,-9.95,1.));
#708=CARTESIAN_POINT('',(27.9,9.95,1.));
#709=CARTESIAN_POINT('',(27.9,-9.95,1.));
#710=CARTESIAN_POINT('',(-11.4,9.95,1.));
#711=CARTESIAN_POINT('',(27.9,9.95,1.));
#712=CARTESIAN_POINT('',(-17.2032630078853,6.03564967570477,1.));
#713=CARTESIAN_POINT('',(-16.0625681612072,-6.80505806490745,1.));
#714=CARTESIAN_POINT('Origin',(6.74609283321952,0.,0.));
#715=CARTESIAN_POINT('',(-11.4,-9.95,0.));
#716=CARTESIAN_POINT('',(27.9,-9.95,0.));
#717=CARTESIAN_POINT('',(-27.9,-9.95,0.));
#718=CARTESIAN_POINT('',(-16.0625681612072,-6.80505806490745,0.));
#719=CARTESIAN_POINT('',(-11.4,9.95,0.));
#720=CARTESIAN_POINT('',(-17.2032630078853,6.03564967570477,0.));
#721=CARTESIAN_POINT('',(27.9,9.95,0.));
#722=CARTESIAN_POINT('',(27.9,9.95,0.));
#723=CARTESIAN_POINT('',(27.9,-9.95,0.));
#724=CARTESIAN_POINT('Origin',(-14.407814333561,-7.92120361493241,0.));
#725=CARTESIAN_POINT('',(-11.4,-9.95,0.));
#726=CARTESIAN_POINT('Origin',(-11.4,9.95,0.));
#727=CARTESIAN_POINT('',(-11.4,9.95,0.));
#728=CARTESIAN_POINT('Origin',(27.9,9.95,0.));
#729=CARTESIAN_POINT('',(27.9,9.95,0.));
#730=CARTESIAN_POINT('Origin',(27.9,7.55,0.));
#731=CARTESIAN_POINT('',(27.9,-9.95,0.));
#732=CARTESIAN_POINT('Origin',(-11.4,-9.95,0.));
#733=UNCERTAINTY_MEASURE_WITH_UNIT(LENGTH_MEASURE(0.01),#737,
'DISTANCE_ACCURACY_VALUE',
'Maximum model space distance between geometric entities at asserted c
onnectivities');
#734=UNCERTAINTY_MEASURE_WITH_UNIT(LENGTH_MEASURE(0.01),#737,
'DISTANCE_ACCURACY_VALUE',
'Maximum model space distance between geometric entities at asserted c
onnectivities');
#735=(
GEOMETRIC_REPRESENTATION_CONTEXT(3)
GLOBAL_UNCERTAINTY_ASSIGNED_CONTEXT((#733))
GLOBAL_UNIT_ASSIGNED_CONTEXT((#737,#739,#740))
REPRESENTATION_CONTEXT('','3D')
);
#736=(
GEOMETRIC_REPRESENTATION_CONTEXT(3)
GLOBAL_UNCERTAINTY_ASSIGNED_CONTEXT((#734))
GLOBAL_UNIT_ASSIGNED_CONTEXT((#737,#739,#740))
REPRESENTATION_CONTEXT('','3D')
);
#737=(
LENGTH_UNIT()
NAMED_UNIT(*)
SI_UNIT(.MILLI.,.METRE.)
);
#738=(
LENGTH_UNIT()
NAMED_UNIT(*)
SI_UNIT($,.METRE.)
);
#739=(
NAMED_UNIT(*)
PLANE_ANGLE_UNIT()
SI_UNIT($,.RADIAN.)
);
#740=(
NAMED_UNIT(*)
SI_UNIT($,.STERADIAN.)
SOLID_ANGLE_UNIT()
);
#741=SHAPE_DEFINITION_REPRESENTATION(#742,#743);
#742=PRODUCT_DEFINITION_SHAPE('',$,#745);
#743=SHAPE_REPRESENTATION('',(#449),#735);
#744=PRODUCT_DEFINITION_CONTEXT('part definition',#749,'design');
#745=PRODUCT_DEFINITION('KanDao PCB Sketch','KanDao PCB Sketch v3',#746,
#744);
#746=PRODUCT_DEFINITION_FORMATION('',$,#751);
#747=PRODUCT_RELATED_PRODUCT_CATEGORY('KanDao PCB Sketch v3',
'KanDao PCB Sketch v3',(#751));
#748=APPLICATION_PROTOCOL_DEFINITION('international standard',
'automotive_design',2009,#749);
#749=APPLICATION_CONTEXT(
'Core Data for Automotive Mechanical Design Process');
#750=PRODUCT_CONTEXT('part definition',#749,'mechanical');
#751=PRODUCT('KanDao PCB Sketch','KanDao PCB Sketch v3',$,(#750));
#752=PRESENTATION_STYLE_ASSIGNMENT((#753));
#753=SURFACE_STYLE_USAGE(.BOTH.,#754);
#754=SURFACE_SIDE_STYLE('',(#755));
#755=SURFACE_STYLE_FILL_AREA(#756);
#756=FILL_AREA_STYLE('Stahl - satiniert',(#757));
#757=FILL_AREA_STYLE_COLOUR('Stahl - satiniert',#758);
#758=COLOUR_RGB('Stahl - satiniert',0.627450980392157,0.627450980392157,
0.627450980392157);
ENDSEC;
END-ISO-10303-21;
