G04 #@! TF.GenerationSoftware,KiCad,Pcbnew,10.0.4*
G04 #@! TF.CreationDate,2026-07-25T23:12:28+02:00*
G04 #@! TF.ProjectId,KanDao Meeting Pro,4b616e44-616f-4204-9d65-6574696e6720,rev?*
G04 #@! TF.SameCoordinates,Original*
G04 #@! TF.FileFunction,Copper,L1,Top*
G04 #@! TF.FilePolarity,Positive*
%FSLAX46Y46*%
G04 Gerber Fmt 4.6, Leading zero omitted, Abs format (unit mm)*
G04 Created by KiCad (PCBNEW 10.0.4) date 2026-07-25 23:12:28*
%MOMM*%
%LPD*%
G01*
G04 APERTURE LIST*
G04 Aperture macros list*
%AMRoundRect*
0 Rectangle with rounded corners*
0 $1 Rounding radius*
0 $2 $3 $4 $5 $6 $7 $8 $9 X,Y pos of 4 corners*
0 Add a 4 corners polygon primitive as box body*
4,1,4,$2,$3,$4,$5,$6,$7,$8,$9,$2,$3,0*
0 Add four circle primitives for the rounded corners*
1,1,$1+$1,$2,$3*
1,1,$1+$1,$4,$5*
1,1,$1+$1,$6,$7*
1,1,$1+$1,$8,$9*
0 Add four rect primitives between the rounded corners*
20,1,$1+$1,$2,$3,$4,$5,0*
20,1,$1+$1,$4,$5,$6,$7,0*
20,1,$1+$1,$6,$7,$8,$9,0*
20,1,$1+$1,$8,$9,$2,$3,0*%
G04 Aperture macros list end*
G04 #@! TA.AperFunction,SMDPad,CuDef*
%ADD10RoundRect,0.105000X0.245000X-0.245000X0.245000X0.245000X-0.245000X0.245000X-0.245000X-0.245000X0*%
G04 #@! TD*
G04 #@! TA.AperFunction,SMDPad,CuDef*
%ADD11RoundRect,0.090000X0.210000X-0.310000X0.210000X0.310000X-0.210000X0.310000X-0.210000X-0.310000X0*%
G04 #@! TD*
G04 #@! TA.AperFunction,SMDPad,CuDef*
%ADD12RoundRect,0.105000X0.245000X-0.295000X0.245000X0.295000X-0.245000X0.295000X-0.245000X-0.295000X0*%
G04 #@! TD*
G04 #@! TA.AperFunction,ViaPad*
%ADD13C,0.600000*%
G04 #@! TD*
G04 #@! TA.AperFunction,Conductor*
%ADD14C,0.200000*%
G04 #@! TD*
G04 APERTURE END LIST*
D10*
X115525000Y-111675000D03*
X115525000Y-110575000D03*
D11*
X127675000Y-111675000D03*
X127675000Y-108225000D03*
X129975000Y-111675000D03*
X129975000Y-108225000D03*
D12*
X127100000Y-109950000D03*
X130550000Y-109950000D03*
D11*
X110375000Y-111675000D03*
X110375000Y-108225000D03*
X112675000Y-111675000D03*
X112675000Y-108225000D03*
D12*
X109800000Y-109950000D03*
X113250000Y-109950000D03*
D10*
X132825000Y-111675000D03*
X132825000Y-110575000D03*
X98375000Y-111675000D03*
X98375000Y-110575000D03*
D11*
X93225000Y-111675000D03*
X93225000Y-108225000D03*
X95525000Y-111675000D03*
X95525000Y-108225000D03*
D12*
X92650000Y-109950000D03*
X96100000Y-109950000D03*
D13*
X176400000Y-96000000D03*
X174000000Y-96000000D03*
X118000000Y-110000000D03*
X108000000Y-105000000D03*
X105000000Y-110000000D03*
X108000000Y-116000000D03*
X96000000Y-104000000D03*
X96000000Y-116000000D03*
X88000000Y-112000000D03*
X88000000Y-108000000D03*
X120000000Y-116000000D03*
X120000000Y-104000000D03*
X129000000Y-104000000D03*
X94370000Y-109950000D03*
X111520000Y-109950000D03*
X128830000Y-109950000D03*
X138000000Y-119000000D03*
X138000000Y-101000000D03*
X115525000Y-110575000D03*
X132825000Y-110575000D03*
X98375000Y-110575000D03*
D14*
X112675000Y-111675000D02*
X115525000Y-111675000D01*
X112600000Y-108300000D02*
X112600000Y-111600000D01*
X112675000Y-108225000D02*
X112600000Y-108300000D01*
X112600000Y-111600000D02*
X112675000Y-111675000D01*
X113250000Y-109950000D02*
X113275000Y-109925000D01*
X113275000Y-109925000D02*
X113275000Y-107750964D01*
X113275000Y-107750964D02*
X113049036Y-107525000D01*
X113049036Y-107525000D02*
X111075000Y-107525000D01*
X111075000Y-107525000D02*
X110375000Y-108225000D01*
X129900000Y-111600000D02*
X129975000Y-111675000D01*
X129975000Y-111675000D02*
X132825000Y-111675000D01*
X129900000Y-108300000D02*
X129900000Y-111600000D01*
X129975000Y-108225000D02*
X129900000Y-108300000D01*
X95525000Y-111675000D02*
X98375000Y-111675000D01*
X95450000Y-108300000D02*
X95450000Y-111600000D01*
X95450000Y-111600000D02*
X95525000Y-111675000D01*
X95525000Y-108225000D02*
X95450000Y-108300000D01*
G04 #@! TA.AperFunction,Conductor*
G36*
X223385148Y-86514852D02*
G01*
X223399500Y-86549500D01*
X223399500Y-97148513D01*
X223399411Y-97151472D01*
X223384006Y-97406141D01*
X223383292Y-97412015D01*
X223337573Y-97661493D01*
X223336157Y-97667238D01*
X223260698Y-97909393D01*
X223258600Y-97914925D01*
X223154502Y-98146221D01*
X223151752Y-98151460D01*
X223020539Y-98368515D01*
X223017178Y-98373385D01*
X222860751Y-98573049D01*
X222856827Y-98577478D01*
X222677478Y-98756827D01*
X222673049Y-98760751D01*
X222473385Y-98917178D01*
X222468515Y-98920539D01*
X222251460Y-99051752D01*
X222246221Y-99054502D01*
X222014925Y-99158600D01*
X222009393Y-99160698D01*
X221767238Y-99236157D01*
X221761493Y-99237573D01*
X221512015Y-99283292D01*
X221506141Y-99284006D01*
X221266136Y-99298523D01*
X221251470Y-99299411D01*
X221248513Y-99299500D01*
X178066841Y-99299500D01*
X177968841Y-99316779D01*
X177903053Y-99328380D01*
X177903052Y-99328380D01*
X177903048Y-99328381D01*
X177746768Y-99385262D01*
X177746759Y-99385266D01*
X177602737Y-99468417D01*
X177475327Y-99575327D01*
X177368417Y-99702737D01*
X177285266Y-99846759D01*
X177285262Y-99846768D01*
X177228381Y-100003048D01*
X177199500Y-100166841D01*
X177199500Y-105048624D01*
X177199423Y-105051371D01*
X177182366Y-105355095D01*
X177181751Y-105360556D01*
X177131024Y-105659110D01*
X177129801Y-105664467D01*
X177045967Y-105955460D01*
X177044152Y-105960646D01*
X176928267Y-106240418D01*
X176925883Y-106245369D01*
X176779398Y-106510415D01*
X176776474Y-106515068D01*
X176601240Y-106762035D01*
X176597815Y-106766331D01*
X176396023Y-106992137D01*
X176392137Y-106996023D01*
X176166331Y-107197815D01*
X176162035Y-107201240D01*
X175915068Y-107376474D01*
X175910415Y-107379398D01*
X175645369Y-107525883D01*
X175640418Y-107528267D01*
X175360646Y-107644152D01*
X175355460Y-107645967D01*
X175064467Y-107729801D01*
X175059110Y-107731024D01*
X174760556Y-107781751D01*
X174755095Y-107782366D01*
X174451371Y-107799423D01*
X174448624Y-107799500D01*
X174446935Y-107799500D01*
X140536677Y-107798029D01*
X140536671Y-107798028D01*
X140526929Y-107798028D01*
X140503073Y-107798028D01*
X140480013Y-107798027D01*
X140480011Y-107798028D01*
X140397648Y-107798028D01*
X140359599Y-107804054D01*
X140195468Y-107830050D01*
X140195465Y-107830051D01*
X140000782Y-107893307D01*
X139818393Y-107986239D01*
X139818390Y-107986240D01*
X139818390Y-107986241D01*
X139709526Y-108065336D01*
X139652775Y-108106568D01*
X139508040Y-108251303D01*
X139508035Y-108251310D01*
X139418169Y-108375000D01*
X139387711Y-108416921D01*
X139294779Y-108599310D01*
X139231523Y-108793993D01*
X139231522Y-108793996D01*
X139199500Y-108996176D01*
X139199500Y-118796939D01*
X139199314Y-118801210D01*
X139184688Y-118968380D01*
X139183204Y-118976791D01*
X139140331Y-119136792D01*
X139137410Y-119144818D01*
X139067403Y-119294951D01*
X139063132Y-119302348D01*
X138968120Y-119438038D01*
X138962630Y-119444581D01*
X138845496Y-119561715D01*
X138838953Y-119567205D01*
X138703263Y-119662217D01*
X138695866Y-119666488D01*
X138545733Y-119736495D01*
X138537707Y-119739416D01*
X138377706Y-119782289D01*
X138369295Y-119783773D01*
X138202126Y-119798399D01*
X138197857Y-119798585D01*
X138173071Y-119798585D01*
X138173069Y-119798585D01*
X138167363Y-119798586D01*
X138167362Y-119798585D01*
X138167362Y-119798586D01*
X100501449Y-119799499D01*
X100498542Y-119799413D01*
X100321166Y-119788876D01*
X100315395Y-119788188D01*
X100141937Y-119756978D01*
X100136288Y-119755611D01*
X99967753Y-119704085D01*
X99962305Y-119702059D01*
X99801051Y-119630937D01*
X99795882Y-119628280D01*
X99642937Y-119537828D01*
X99640481Y-119536276D01*
X99619359Y-119522030D01*
X99619358Y-119522029D01*
X99060120Y-119144818D01*
X96641417Y-117513382D01*
X99199500Y-117513382D01*
X99199500Y-117686610D01*
X99226597Y-117857698D01*
X99226598Y-117857701D01*
X99280127Y-118022446D01*
X99358764Y-118176782D01*
X99358767Y-118176786D01*
X99358768Y-118176788D01*
X99460586Y-118316928D01*
X99460588Y-118316930D01*
X99460591Y-118316934D01*
X99583065Y-118439408D01*
X99583068Y-118439410D01*
X99583072Y-118439414D01*
X99723212Y-118541232D01*
X99723214Y-118541233D01*
X99723217Y-118541235D01*
X99877553Y-118619872D01*
X99877555Y-118619873D01*
X100042299Y-118673402D01*
X100213389Y-118700500D01*
X100213390Y-118700500D01*
X100386610Y-118700500D01*
X100386611Y-118700500D01*
X100557701Y-118673402D01*
X100722445Y-118619873D01*
X100876788Y-118541232D01*
X101016928Y-118439414D01*
X101139414Y-118316928D01*
X101241232Y-118176788D01*
X101319873Y-118022445D01*
X101373402Y-117857701D01*
X101400500Y-117686611D01*
X101400500Y-117513389D01*
X102699500Y-117513389D01*
X102699500Y-117514305D01*
X102699500Y-117686610D01*
X102726597Y-117857698D01*
X102726598Y-117857701D01*
X102780127Y-118022446D01*
X102858764Y-118176782D01*
X102858767Y-118176786D01*
X102858768Y-118176788D01*
X102960586Y-118316928D01*
X102960588Y-118316930D01*
X102960591Y-118316934D01*
X103083065Y-118439408D01*
X103083068Y-118439410D01*
X103083072Y-118439414D01*
X103223212Y-118541232D01*
X103223214Y-118541233D01*
X103223217Y-118541235D01*
X103377553Y-118619872D01*
X103377555Y-118619873D01*
X103542299Y-118673402D01*
X103713389Y-118700500D01*
X103713390Y-118700500D01*
X103886610Y-118700500D01*
X103886611Y-118700500D01*
X104057701Y-118673402D01*
X104222445Y-118619873D01*
X104376788Y-118541232D01*
X104516928Y-118439414D01*
X104639414Y-118316928D01*
X104741232Y-118176788D01*
X104819873Y-118022445D01*
X104873402Y-117857701D01*
X104900500Y-117686611D01*
X104900500Y-117513389D01*
X116199500Y-117513389D01*
X116199500Y-117514305D01*
X116199500Y-117686610D01*
X116226597Y-117857698D01*
X116226598Y-117857701D01*
X116280127Y-118022446D01*
X116358764Y-118176782D01*
X116358767Y-118176786D01*
X116358768Y-118176788D01*
X116460586Y-118316928D01*
X116460588Y-118316930D01*
X116460591Y-118316934D01*
X116583065Y-118439408D01*
X116583068Y-118439410D01*
X116583072Y-118439414D01*
X116723212Y-118541232D01*
X116723214Y-118541233D01*
X116723217Y-118541235D01*
X116877553Y-118619872D01*
X116877555Y-118619873D01*
X117042299Y-118673402D01*
X117213389Y-118700500D01*
X117213390Y-118700500D01*
X117386610Y-118700500D01*
X117386611Y-118700500D01*
X117557701Y-118673402D01*
X117722445Y-118619873D01*
X117876788Y-118541232D01*
X118016928Y-118439414D01*
X118139414Y-118316928D01*
X118241232Y-118176788D01*
X118319873Y-118022445D01*
X118373402Y-117857701D01*
X118400500Y-117686611D01*
X118400500Y-117513389D01*
X133299500Y-117513389D01*
X133299500Y-117514305D01*
X133299500Y-117686610D01*
X133326597Y-117857698D01*
X133326598Y-117857701D01*
X133380127Y-118022446D01*
X133458764Y-118176782D01*
X133458767Y-118176786D01*
X133458768Y-118176788D01*
X133560586Y-118316928D01*
X133560588Y-118316930D01*
X133560591Y-118316934D01*
X133683065Y-118439408D01*
X133683068Y-118439410D01*
X133683072Y-118439414D01*
X133823212Y-118541232D01*
X133823214Y-118541233D01*
X133823217Y-118541235D01*
X133977553Y-118619872D01*
X133977555Y-118619873D01*
X134142299Y-118673402D01*
X134313389Y-118700500D01*
X134313390Y-118700500D01*
X134486610Y-118700500D01*
X134486611Y-118700500D01*
X134657701Y-118673402D01*
X134822445Y-118619873D01*
X134976788Y-118541232D01*
X135116928Y-118439414D01*
X135239414Y-118316928D01*
X135341232Y-118176788D01*
X135419873Y-118022445D01*
X135473402Y-117857701D01*
X135500500Y-117686611D01*
X135500500Y-117513389D01*
X135473402Y-117342299D01*
X135419873Y-117177555D01*
X135341232Y-117023212D01*
X135239414Y-116883072D01*
X135239410Y-116883068D01*
X135239408Y-116883065D01*
X135116934Y-116760591D01*
X135116935Y-116760591D01*
X135055694Y-116716097D01*
X134976788Y-116658768D01*
X134976786Y-116658767D01*
X134976782Y-116658764D01*
X134822446Y-116580127D01*
X134657701Y-116526598D01*
X134657698Y-116526597D01*
X134526271Y-116505781D01*
X134486611Y-116499500D01*
X134313389Y-116499500D01*
X134281192Y-116504599D01*
X134142301Y-116526597D01*
X134142298Y-116526598D01*
X133977553Y-116580127D01*
X133823217Y-116658764D01*
X133683065Y-116760591D01*
X133560591Y-116883065D01*
X133458764Y-117023217D01*
X133380127Y-117177553D01*
X133326598Y-117342298D01*
X133326597Y-117342301D01*
X133299901Y-117510854D01*
X133299746Y-117511834D01*
X133299500Y-117513389D01*
X118400500Y-117513389D01*
X118373402Y-117342299D01*
X118319873Y-117177555D01*
X118241232Y-117023212D01*
X118139414Y-116883072D01*
X118139410Y-116883068D01*
X118139408Y-116883065D01*
X118016934Y-116760591D01*
X118016935Y-116760591D01*
X117955694Y-116716097D01*
X117876788Y-116658768D01*
X117876786Y-116658767D01*
X117876782Y-116658764D01*
X117722446Y-116580127D01*
X117557701Y-116526598D01*
X117557698Y-116526597D01*
X117426271Y-116505781D01*
X117386611Y-116499500D01*
X117213389Y-116499500D01*
X117181192Y-116504599D01*
X117042301Y-116526597D01*
X117042298Y-116526598D01*
X116877553Y-116580127D01*
X116723217Y-116658764D01*
X116583065Y-116760591D01*
X116460591Y-116883065D01*
X116358764Y-117023217D01*
X116280127Y-117177553D01*
X116226598Y-117342298D01*
X116226597Y-117342301D01*
X116199901Y-117510854D01*
X116199746Y-117511834D01*
X116199500Y-117513389D01*
X104900500Y-117513389D01*
X104873402Y-117342299D01*
X104819873Y-117177555D01*
X104741232Y-117023212D01*
X104639414Y-116883072D01*
X104639410Y-116883068D01*
X104639408Y-116883065D01*
X104516934Y-116760591D01*
X104516935Y-116760591D01*
X104455694Y-116716097D01*
X104376788Y-116658768D01*
X104376786Y-116658767D01*
X104376782Y-116658764D01*
X104222446Y-116580127D01*
X104057701Y-116526598D01*
X104057698Y-116526597D01*
X103926271Y-116505781D01*
X103886611Y-116499500D01*
X103713389Y-116499500D01*
X103681192Y-116504599D01*
X103542301Y-116526597D01*
X103542298Y-116526598D01*
X103377553Y-116580127D01*
X103223217Y-116658764D01*
X103083065Y-116760591D01*
X102960591Y-116883065D01*
X102858764Y-117023217D01*
X102780127Y-117177553D01*
X102726598Y-117342298D01*
X102726597Y-117342301D01*
X102699901Y-117510854D01*
X102699746Y-117511834D01*
X102699500Y-117513389D01*
X101400500Y-117513389D01*
X101373402Y-117342299D01*
X101319873Y-117177555D01*
X101241232Y-117023212D01*
X101139414Y-116883072D01*
X101139410Y-116883068D01*
X101139408Y-116883065D01*
X101016934Y-116760591D01*
X101016935Y-116760591D01*
X100955694Y-116716097D01*
X100876788Y-116658768D01*
X100876786Y-116658767D01*
X100876782Y-116658764D01*
X100722446Y-116580127D01*
X100557701Y-116526598D01*
X100557698Y-116526597D01*
X100426271Y-116505781D01*
X100386611Y-116499500D01*
X100213389Y-116499500D01*
X100181192Y-116504599D01*
X100042301Y-116526597D01*
X100042298Y-116526598D01*
X99877553Y-116580127D01*
X99723217Y-116658764D01*
X99583065Y-116760591D01*
X99460591Y-116883065D01*
X99358764Y-117023217D01*
X99280127Y-117177553D01*
X99226598Y-117342298D01*
X99226597Y-117342301D01*
X99212664Y-117430267D01*
X99199746Y-117511834D01*
X99199745Y-117511839D01*
X99199745Y-117511840D01*
X99199500Y-117513382D01*
X96641417Y-117513382D01*
X95405697Y-116679878D01*
X95397827Y-116670336D01*
X95383758Y-116665080D01*
X95378944Y-116661833D01*
X95378944Y-116661832D01*
X95377057Y-116660560D01*
X95377055Y-116660559D01*
X95368974Y-116658915D01*
X95361598Y-116656801D01*
X95347376Y-116651488D01*
X95347371Y-116651488D01*
X95344852Y-116651910D01*
X95344779Y-116651922D01*
X95339172Y-116652852D01*
X95337878Y-116652589D01*
X95321038Y-116655861D01*
X95320354Y-116655975D01*
X95320299Y-116655962D01*
X95318805Y-116656207D01*
X94869311Y-116716097D01*
X94866032Y-116716422D01*
X94413149Y-116745998D01*
X94409857Y-116746102D01*
X93956004Y-116745181D01*
X93952711Y-116745063D01*
X93499966Y-116713648D01*
X93496689Y-116713310D01*
X93047054Y-116651542D01*
X93043808Y-116650984D01*
X92599370Y-116559149D01*
X92596167Y-116558375D01*
X92158856Y-116436869D01*
X92155714Y-116435880D01*
X91727598Y-116285281D01*
X91724529Y-116284084D01*
X91307495Y-116105055D01*
X91304513Y-116103655D01*
X90900433Y-115897000D01*
X90897552Y-115895402D01*
X90524122Y-115671563D01*
X90523712Y-115671315D01*
X90517408Y-115667452D01*
X90514594Y-115664253D01*
X90502447Y-115658284D01*
X90500506Y-115657095D01*
X90500428Y-115656988D01*
X90499518Y-115656473D01*
X90484250Y-115646609D01*
X90458401Y-115645315D01*
X90457718Y-115645276D01*
X84506677Y-115263820D01*
X84502092Y-115263308D01*
X84329607Y-115235793D01*
X84320684Y-115233492D01*
X84158577Y-115174955D01*
X84150242Y-115171024D01*
X84001964Y-115083170D01*
X83994512Y-115077748D01*
X83865301Y-114963680D01*
X83858997Y-114956958D01*
X83753431Y-114820718D01*
X83748497Y-114812935D01*
X83670305Y-114659335D01*
X83666916Y-114650770D01*
X83618869Y-114485252D01*
X83617143Y-114476200D01*
X83600717Y-114302297D01*
X83600500Y-114297689D01*
X83600500Y-112015689D01*
X92625001Y-112015689D01*
X92639464Y-112107017D01*
X92695549Y-112217090D01*
X92695554Y-112217096D01*
X92782903Y-112304445D01*
X92782909Y-112304450D01*
X92892977Y-112360533D01*
X92984310Y-112374999D01*
X93074999Y-112374999D01*
X93375000Y-112374999D01*
X93465689Y-112374999D01*
X93557017Y-112360535D01*
X93667090Y-112304450D01*
X93667096Y-112304445D01*
X93754445Y-112217096D01*
X93754450Y-112217090D01*
X93810533Y-112107022D01*
X93825000Y-112015689D01*
X93825000Y-111825000D01*
X93375000Y-111825000D01*
X93375000Y-112374999D01*
X93074999Y-112374999D01*
X93075000Y-112374998D01*
X93075000Y-111825000D01*
X92625001Y-111825000D01*
X92625001Y-112015689D01*
X83600500Y-112015689D01*
X83600500Y-111334310D01*
X92625000Y-111334310D01*
X92625000Y-111525000D01*
X93075000Y-111525000D01*
X93375000Y-111525000D01*
X93824999Y-111525000D01*
X93824999Y-111334310D01*
X93810535Y-111242982D01*
X93754450Y-111132909D01*
X93754445Y-111132903D01*
X93667096Y-111045554D01*
X93667090Y-111045549D01*
X93557022Y-110989466D01*
X93465689Y-110975000D01*
X93375000Y-110975000D01*
X93375000Y-111525000D01*
X93075000Y-111525000D01*
X93075000Y-110975000D01*
X92984310Y-110975000D01*
X92892982Y-110989464D01*
X92782909Y-111045549D01*
X92782903Y-111045554D01*
X92695554Y-111132903D01*
X92695549Y-111132909D01*
X92639466Y-111242977D01*
X92625000Y-111334310D01*
X83600500Y-111334310D01*
X83600500Y-109863389D01*
X84499500Y-109863389D01*
X84499500Y-109864305D01*
X84499500Y-110036610D01*
X84526597Y-110207698D01*
X84526598Y-110207701D01*
X84580127Y-110372446D01*
X84658764Y-110526782D01*
X84658767Y-110526786D01*
X84658768Y-110526788D01*
X84760586Y-110666928D01*
X84760588Y-110666930D01*
X84760591Y-110666934D01*
X84883065Y-110789408D01*
X84883068Y-110789410D01*
X84883072Y-110789414D01*
X85023212Y-110891232D01*
X85023214Y-110891233D01*
X85023217Y-110891235D01*
X85174187Y-110968157D01*
X85177555Y-110969873D01*
X85342299Y-111023402D01*
X85513389Y-111050500D01*
X85513390Y-111050500D01*
X85686610Y-111050500D01*
X85686611Y-111050500D01*
X85857701Y-111023402D01*
X86022445Y-110969873D01*
X86176788Y-110891232D01*
X86316928Y-110789414D01*
X86439414Y-110666928D01*
X86541232Y-110526788D01*
X86619873Y-110372445D01*
X86650927Y-110276871D01*
X92000000Y-110276871D01*
X92015022Y-110371714D01*
X92073259Y-110486013D01*
X92073264Y-110486020D01*
X92163979Y-110576735D01*
X92163986Y-110576740D01*
X92278285Y-110634977D01*
X92373129Y-110650000D01*
X92500000Y-110650000D01*
X92800000Y-110650000D01*
X92926871Y-110650000D01*
X93021714Y-110634977D01*
X93136013Y-110576740D01*
X93136020Y-110576735D01*
X93226735Y-110486020D01*
X93226740Y-110486013D01*
X93284977Y-110371714D01*
X93300000Y-110276871D01*
X93300000Y-110100000D01*
X92800000Y-110100000D01*
X92800000Y-110650000D01*
X92500000Y-110650000D01*
X92500000Y-110100000D01*
X92000000Y-110100000D01*
X92000000Y-110276871D01*
X86650927Y-110276871D01*
X86673402Y-110207701D01*
X86700500Y-110036611D01*
X86700500Y-109863389D01*
X86673402Y-109692299D01*
X86650927Y-109623128D01*
X92000000Y-109623128D01*
X92000000Y-109800000D01*
X92500000Y-109800000D01*
X92800000Y-109800000D01*
X93300000Y-109800000D01*
X93300000Y-109623128D01*
X93284977Y-109528285D01*
X93226740Y-109413986D01*
X93226735Y-109413979D01*
X93136020Y-109323264D01*
X93136013Y-109323259D01*
X93021714Y-109265022D01*
X92926871Y-109250000D01*
X92800000Y-109250000D01*
X92800000Y-109800000D01*
X92500000Y-109800000D01*
X92500000Y-109250000D01*
X92373129Y-109250000D01*
X92278285Y-109265022D01*
X92163986Y-109323259D01*
X92163979Y-109323264D01*
X92073264Y-109413979D01*
X92073259Y-109413986D01*
X92015022Y-109528285D01*
X92000000Y-109623128D01*
X86650927Y-109623128D01*
X86619873Y-109527555D01*
X86619070Y-109525979D01*
X86541235Y-109373217D01*
X86541233Y-109373214D01*
X86541232Y-109373212D01*
X86439414Y-109233072D01*
X86439410Y-109233068D01*
X86439408Y-109233065D01*
X86316934Y-109110591D01*
X86316935Y-109110591D01*
X86176782Y-109008764D01*
X86022446Y-108930127D01*
X85857701Y-108876598D01*
X85857698Y-108876597D01*
X85717832Y-108854445D01*
X85686611Y-108849500D01*
X85513389Y-108849500D01*
X85482168Y-108854445D01*
X85342301Y-108876597D01*
X85342298Y-108876598D01*
X85177553Y-108930127D01*
X85023217Y-109008764D01*
X84883065Y-109110591D01*
X84760591Y-109233065D01*
X84658764Y-109373217D01*
X84580127Y-109527553D01*
X84526598Y-109692298D01*
X84526597Y-109692301D01*
X84499901Y-109860854D01*
X84499746Y-109861834D01*
X84499500Y-109863389D01*
X83600500Y-109863389D01*
X83600500Y-108565689D01*
X92625001Y-108565689D01*
X92639464Y-108657017D01*
X92695549Y-108767090D01*
X92695554Y-108767096D01*
X92782903Y-108854445D01*
X92782909Y-108854450D01*
X92892977Y-108910533D01*
X92984310Y-108924999D01*
X93074999Y-108924999D01*
X93375000Y-108924999D01*
X93465689Y-108924999D01*
X93557017Y-108910535D01*
X93667090Y-108854450D01*
X93667096Y-108854445D01*
X93754445Y-108767096D01*
X93754450Y-108767090D01*
X93810533Y-108657022D01*
X93825000Y-108565689D01*
X93825000Y-108375000D01*
X93375000Y-108375000D01*
X93375000Y-108924999D01*
X93074999Y-108924999D01*
X93075000Y-108924998D01*
X93075000Y-108375000D01*
X92625001Y-108375000D01*
X92625001Y-108565689D01*
X83600500Y-108565689D01*
X83600500Y-107884310D01*
X92625000Y-107884310D01*
X92625000Y-108075000D01*
X93075000Y-108075000D01*
X93375000Y-108075000D01*
X93824999Y-108075000D01*
X93824999Y-107896238D01*
X95124500Y-107896238D01*
X95124500Y-108553762D01*
X95133342Y-108598215D01*
X95135553Y-108609330D01*
X95177655Y-108672341D01*
X95177656Y-108672341D01*
X95177657Y-108672343D01*
X95227723Y-108705795D01*
X95248558Y-108736977D01*
X95249500Y-108746537D01*
X95249500Y-111153462D01*
X95235148Y-111188110D01*
X95227723Y-111194204D01*
X95177655Y-111227657D01*
X95135553Y-111290669D01*
X95135553Y-111290671D01*
X95124500Y-111346238D01*
X95124500Y-112003762D01*
X95133342Y-112048215D01*
X95135553Y-112059330D01*
X95177656Y-112122343D01*
X95240669Y-112164446D01*
X95240671Y-112164447D01*
X95296238Y-112175500D01*
X95296241Y-112175500D01*
X95753759Y-112175500D01*
X95753762Y-112175500D01*
X95809329Y-112164447D01*
X95872343Y-112122343D01*
X95914447Y-112059329D01*
X95925500Y-112003762D01*
X95925500Y-111924500D01*
X95939852Y-111889852D01*
X95974500Y-111875500D01*
X97875500Y-111875500D01*
X97910148Y-111889852D01*
X97924500Y-111924500D01*
X97924500Y-111940240D01*
X97936423Y-112000182D01*
X97946785Y-112015689D01*
X97981842Y-112068157D01*
X98009069Y-112086349D01*
X98049818Y-112113577D01*
X98109760Y-112125500D01*
X98109763Y-112125500D01*
X98640237Y-112125500D01*
X98640240Y-112125500D01*
X98700182Y-112113577D01*
X98768157Y-112068157D01*
X98803215Y-112015689D01*
X109775001Y-112015689D01*
X109789464Y-112107017D01*
X109845549Y-112217090D01*
X109845554Y-112217096D01*
X109932903Y-112304445D01*
X109932909Y-112304450D01*
X110042977Y-112360533D01*
X110134310Y-112374999D01*
X110224999Y-112374999D01*
X110525000Y-112374999D01*
X110615689Y-112374999D01*
X110707017Y-112360535D01*
X110817090Y-112304450D01*
X110817096Y-112304445D01*
X110904445Y-112217096D01*
X110904450Y-112217090D01*
X110960533Y-112107022D01*
X110975000Y-112015689D01*
X110975000Y-111825000D01*
X110525000Y-111825000D01*
X110525000Y-112374999D01*
X110224999Y-112374999D01*
X110225000Y-112374998D01*
X110225000Y-111825000D01*
X109775001Y-111825000D01*
X109775001Y-112015689D01*
X98803215Y-112015689D01*
X98813577Y-112000182D01*
X98825500Y-111940240D01*
X98825500Y-111409760D01*
X98813577Y-111349818D01*
X98803215Y-111334310D01*
X109775000Y-111334310D01*
X109775000Y-111525000D01*
X110225000Y-111525000D01*
X110525000Y-111525000D01*
X110974999Y-111525000D01*
X110974999Y-111334310D01*
X110960535Y-111242982D01*
X110904450Y-111132909D01*
X110904445Y-111132903D01*
X110817096Y-111045554D01*
X110817090Y-111045549D01*
X110707022Y-110989466D01*
X110615689Y-110975000D01*
X110525000Y-110975000D01*
X110525000Y-111525000D01*
X110225000Y-111525000D01*
X110225000Y-110975000D01*
X110134310Y-110975000D01*
X110042982Y-110989464D01*
X109932909Y-111045549D01*
X109932903Y-111045554D01*
X109845554Y-111132903D01*
X109845549Y-111132909D01*
X109789466Y-111242977D01*
X109775000Y-111334310D01*
X98803215Y-111334310D01*
X98774056Y-111290671D01*
X98768157Y-111281842D01*
X98727408Y-111254615D01*
X98700182Y-111236423D01*
X98640240Y-111224500D01*
X98109760Y-111224500D01*
X98049818Y-111236423D01*
X97981842Y-111281842D01*
X97946785Y-111334310D01*
X97936423Y-111349818D01*
X97924500Y-111409760D01*
X97924500Y-111409763D01*
X97924500Y-111425500D01*
X97910148Y-111460148D01*
X97875500Y-111474500D01*
X95974500Y-111474500D01*
X95939852Y-111460148D01*
X95925500Y-111425500D01*
X95925500Y-111346241D01*
X95925500Y-111346238D01*
X95914447Y-111290671D01*
X95914446Y-111290669D01*
X95872343Y-111227656D01*
X95809330Y-111185553D01*
X95795437Y-111182789D01*
X95753762Y-111174500D01*
X95753759Y-111174500D01*
X95699500Y-111174500D01*
X95664852Y-111160148D01*
X95650500Y-111125500D01*
X95650500Y-110675304D01*
X95664852Y-110640656D01*
X95699500Y-110626304D01*
X95721749Y-110631646D01*
X95728287Y-110634978D01*
X95823129Y-110650000D01*
X95950000Y-110650000D01*
X96250000Y-110650000D01*
X96376871Y-110650000D01*
X96471714Y-110634977D01*
X96586013Y-110576740D01*
X96586020Y-110576735D01*
X96676735Y-110486020D01*
X96676740Y-110486013D01*
X96734977Y-110371714D01*
X96744791Y-110309760D01*
X97924500Y-110309760D01*
X97924500Y-110840240D01*
X97936423Y-110900182D01*
X97954615Y-110927408D01*
X97981842Y-110968157D01*
X97992084Y-110975000D01*
X98049818Y-111013577D01*
X98109760Y-111025500D01*
X98109763Y-111025500D01*
X98640237Y-111025500D01*
X98640240Y-111025500D01*
X98700182Y-111013577D01*
X98768157Y-110968157D01*
X98813577Y-110900182D01*
X98825500Y-110840240D01*
X98825500Y-110309760D01*
X98818958Y-110276871D01*
X109150000Y-110276871D01*
X109165022Y-110371714D01*
X109223259Y-110486013D01*
X109223264Y-110486020D01*
X109313979Y-110576735D01*
X109313986Y-110576740D01*
X109428285Y-110634977D01*
X109523129Y-110650000D01*
X109650000Y-110650000D01*
X109950000Y-110650000D01*
X110076871Y-110650000D01*
X110171714Y-110634977D01*
X110286013Y-110576740D01*
X110286020Y-110576735D01*
X110376735Y-110486020D01*
X110376740Y-110486013D01*
X110434977Y-110371714D01*
X110450000Y-110276871D01*
X110450000Y-110100000D01*
X109950000Y-110100000D01*
X109950000Y-110650000D01*
X109650000Y-110650000D01*
X109650000Y-110100000D01*
X109150000Y-110100000D01*
X109150000Y-110276871D01*
X98818958Y-110276871D01*
X98813577Y-110249818D01*
X98785433Y-110207698D01*
X98768157Y-110181842D01*
X98727408Y-110154615D01*
X98700182Y-110136423D01*
X98640240Y-110124500D01*
X98109760Y-110124500D01*
X98049818Y-110136423D01*
X97981842Y-110181842D01*
X97936423Y-110249818D01*
X97924500Y-110309760D01*
X96744791Y-110309760D01*
X96746386Y-110299688D01*
X96746386Y-110299687D01*
X96750000Y-110276870D01*
X96750000Y-110100000D01*
X96250000Y-110100000D01*
X96250000Y-110650000D01*
X95950000Y-110650000D01*
X95950000Y-109800000D01*
X96250000Y-109800000D01*
X96750000Y-109800000D01*
X96750000Y-109623128D01*
X109150000Y-109623128D01*
X109150000Y-109800000D01*
X109650000Y-109800000D01*
X109950000Y-109800000D01*
X110450000Y-109800000D01*
X110450000Y-109623128D01*
X110434977Y-109528285D01*
X110376740Y-109413986D01*
X110376735Y-109413979D01*
X110286020Y-109323264D01*
X110286013Y-109323259D01*
X110171714Y-109265022D01*
X110076871Y-109250000D01*
X109950000Y-109250000D01*
X109950000Y-109800000D01*
X109650000Y-109800000D01*
X109650000Y-109250000D01*
X109523129Y-109250000D01*
X109428285Y-109265022D01*
X109313986Y-109323259D01*
X109313979Y-109323264D01*
X109223264Y-109413979D01*
X109223259Y-109413986D01*
X109165022Y-109528285D01*
X109150000Y-109623128D01*
X96750000Y-109623128D01*
X96734977Y-109528285D01*
X96676740Y-109413986D01*
X96676735Y-109413979D01*
X96586020Y-109323264D01*
X96586013Y-109323259D01*
X96471714Y-109265022D01*
X96376871Y-109250000D01*
X96250000Y-109250000D01*
X96250000Y-109800000D01*
X95950000Y-109800000D01*
X95950000Y-109250000D01*
X95823129Y-109250000D01*
X95728286Y-109265021D01*
X95721744Y-109268355D01*
X95684356Y-109271296D01*
X95655840Y-109246939D01*
X95650500Y-109224695D01*
X95650500Y-108774500D01*
X95664852Y-108739852D01*
X95699500Y-108725500D01*
X95753759Y-108725500D01*
X95753762Y-108725500D01*
X95809329Y-108714447D01*
X95872343Y-108672343D01*
X95914447Y-108609329D01*
X95923128Y-108565689D01*
X109775001Y-108565689D01*
X109789464Y-108657017D01*
X109845549Y-108767090D01*
X109845554Y-108767096D01*
X109932903Y-108854445D01*
X109932909Y-108854450D01*
X110042977Y-108910533D01*
X110134310Y-108924999D01*
X110224999Y-108924999D01*
X110525000Y-108924999D01*
X110615689Y-108924999D01*
X110707017Y-108910535D01*
X110817090Y-108854450D01*
X110817096Y-108854445D01*
X110904445Y-108767096D01*
X110904450Y-108767090D01*
X110960533Y-108657022D01*
X110975000Y-108565689D01*
X110975000Y-108375000D01*
X110525000Y-108375000D01*
X110525000Y-108924999D01*
X110224999Y-108924999D01*
X110225000Y-108924998D01*
X110225000Y-108375000D01*
X109775001Y-108375000D01*
X109775001Y-108565689D01*
X95923128Y-108565689D01*
X95925500Y-108553762D01*
X95925500Y-107896238D01*
X95923127Y-107884310D01*
X109775000Y-107884310D01*
X109775000Y-108075000D01*
X110225000Y-108075000D01*
X110525000Y-108075000D01*
X110974999Y-108075000D01*
X110974999Y-107896238D01*
X112274500Y-107896238D01*
X112274500Y-108553762D01*
X112283342Y-108598215D01*
X112285553Y-108609330D01*
X112327655Y-108672341D01*
X112327656Y-108672341D01*
X112327657Y-108672343D01*
X112377723Y-108705795D01*
X112398558Y-108736977D01*
X112399500Y-108746537D01*
X112399500Y-111153462D01*
X112385148Y-111188110D01*
X112377723Y-111194204D01*
X112327655Y-111227657D01*
X112285553Y-111290669D01*
X112285553Y-111290671D01*
X112274500Y-111346238D01*
X112274500Y-112003762D01*
X112283342Y-112048215D01*
X112285553Y-112059330D01*
X112327656Y-112122343D01*
X112390669Y-112164446D01*
X112390671Y-112164447D01*
X112446238Y-112175500D01*
X112446241Y-112175500D01*
X112903759Y-112175500D01*
X112903762Y-112175500D01*
X112959329Y-112164447D01*
X113022343Y-112122343D01*
X113064447Y-112059329D01*
X113075500Y-112003762D01*
X113075500Y-111924500D01*
X113089852Y-111889852D01*
X113124500Y-111875500D01*
X115025500Y-111875500D01*
X115060148Y-111889852D01*
X115074500Y-111924500D01*
X115074500Y-111940240D01*
X115086423Y-112000182D01*
X115096785Y-112015689D01*
X115131842Y-112068157D01*
X115159069Y-112086349D01*
X115199818Y-112113577D01*
X115259760Y-112125500D01*
X115259763Y-112125500D01*
X115790237Y-112125500D01*
X115790240Y-112125500D01*
X115850182Y-112113577D01*
X115918157Y-112068157D01*
X115953215Y-112015689D01*
X127075001Y-112015689D01*
X127089464Y-112107017D01*
X127145549Y-112217090D01*
X127145554Y-112217096D01*
X127232903Y-112304445D01*
X127232909Y-112304450D01*
X127342977Y-112360533D01*
X127434310Y-112374999D01*
X127524999Y-112374999D01*
X127825000Y-112374999D01*
X127915689Y-112374999D01*
X128007017Y-112360535D01*
X128117090Y-112304450D01*
X128117096Y-112304445D01*
X128204445Y-112217096D01*
X128204450Y-112217090D01*
X128260533Y-112107022D01*
X128275000Y-112015689D01*
X128275000Y-111825000D01*
X127825000Y-111825000D01*
X127825000Y-112374999D01*
X127524999Y-112374999D01*
X127525000Y-112374998D01*
X127525000Y-111825000D01*
X127075001Y-111825000D01*
X127075001Y-112015689D01*
X115953215Y-112015689D01*
X115963577Y-112000182D01*
X115975500Y-111940240D01*
X115975500Y-111409760D01*
X115963577Y-111349818D01*
X115953215Y-111334310D01*
X127075000Y-111334310D01*
X127075000Y-111525000D01*
X127525000Y-111525000D01*
X127825000Y-111525000D01*
X128274999Y-111525000D01*
X128274999Y-111334310D01*
X128260535Y-111242982D01*
X128204450Y-111132909D01*
X128204445Y-111132903D01*
X128117096Y-111045554D01*
X128117090Y-111045549D01*
X128007022Y-110989466D01*
X127915689Y-110975000D01*
X127825000Y-110975000D01*
X127825000Y-111525000D01*
X127525000Y-111525000D01*
X127525000Y-110975000D01*
X127434310Y-110975000D01*
X127342982Y-110989464D01*
X127232909Y-111045549D01*
X127232903Y-111045554D01*
X127145554Y-111132903D01*
X127145549Y-111132909D01*
X127089466Y-111242977D01*
X127075000Y-111334310D01*
X115953215Y-111334310D01*
X115924056Y-111290671D01*
X115918157Y-111281842D01*
X115877408Y-111254615D01*
X115850182Y-111236423D01*
X115790240Y-111224500D01*
X115259760Y-111224500D01*
X115199818Y-111236423D01*
X115131842Y-111281842D01*
X115096785Y-111334310D01*
X115086423Y-111349818D01*
X115074500Y-111409760D01*
X115074500Y-111409763D01*
X115074500Y-111425500D01*
X115060148Y-111460148D01*
X115025500Y-111474500D01*
X113124500Y-111474500D01*
X113089852Y-111460148D01*
X113075500Y-111425500D01*
X113075500Y-111346241D01*
X113075500Y-111346238D01*
X113064447Y-111290671D01*
X113064446Y-111290669D01*
X113022343Y-111227656D01*
X112959330Y-111185553D01*
X112945437Y-111182789D01*
X112903762Y-111174500D01*
X112903759Y-111174500D01*
X112849500Y-111174500D01*
X112814852Y-111160148D01*
X112800500Y-111125500D01*
X112800500Y-110675304D01*
X112814852Y-110640656D01*
X112849500Y-110626304D01*
X112871749Y-110631646D01*
X112878287Y-110634978D01*
X112973129Y-110650000D01*
X113100000Y-110650000D01*
X113400000Y-110650000D01*
X113526871Y-110650000D01*
X113621714Y-110634977D01*
X113736013Y-110576740D01*
X113736020Y-110576735D01*
X113826735Y-110486020D01*
X113826740Y-110486013D01*
X113884977Y-110371714D01*
X113894791Y-110309760D01*
X115074500Y-110309760D01*
X115074500Y-110840240D01*
X115086423Y-110900182D01*
X115104615Y-110927408D01*
X115131842Y-110968157D01*
X115142084Y-110975000D01*
X115199818Y-111013577D01*
X115259760Y-111025500D01*
X115259763Y-111025500D01*
X115790237Y-111025500D01*
X115790240Y-111025500D01*
X115850182Y-111013577D01*
X115918157Y-110968157D01*
X115963577Y-110900182D01*
X115975500Y-110840240D01*
X115975500Y-110309760D01*
X115968958Y-110276871D01*
X126450000Y-110276871D01*
X126465022Y-110371714D01*
X126523259Y-110486013D01*
X126523264Y-110486020D01*
X126613979Y-110576735D01*
X126613986Y-110576740D01*
X126728285Y-110634977D01*
X126823129Y-110650000D01*
X126950000Y-110650000D01*
X127250000Y-110650000D01*
X127376871Y-110650000D01*
X127471714Y-110634977D01*
X127586013Y-110576740D01*
X127586020Y-110576735D01*
X127676735Y-110486020D01*
X127676740Y-110486013D01*
X127734977Y-110371714D01*
X127750000Y-110276871D01*
X127750000Y-110100000D01*
X127250000Y-110100000D01*
X127250000Y-110650000D01*
X126950000Y-110650000D01*
X126950000Y-110100000D01*
X126450000Y-110100000D01*
X126450000Y-110276871D01*
X115968958Y-110276871D01*
X115963577Y-110249818D01*
X115935433Y-110207698D01*
X115918157Y-110181842D01*
X115877408Y-110154615D01*
X115850182Y-110136423D01*
X115790240Y-110124500D01*
X115259760Y-110124500D01*
X115199818Y-110136423D01*
X115131842Y-110181842D01*
X115086423Y-110249818D01*
X115074500Y-110309760D01*
X113894791Y-110309760D01*
X113896386Y-110299688D01*
X113896386Y-110299687D01*
X113900000Y-110276870D01*
X113900000Y-110100000D01*
X113400000Y-110100000D01*
X113400000Y-110650000D01*
X113100000Y-110650000D01*
X113100000Y-109800000D01*
X113400000Y-109800000D01*
X113900000Y-109800000D01*
X113900000Y-109623128D01*
X126450000Y-109623128D01*
X126450000Y-109800000D01*
X126950000Y-109800000D01*
X127250000Y-109800000D01*
X127750000Y-109800000D01*
X127750000Y-109623128D01*
X127734977Y-109528285D01*
X127676740Y-109413986D01*
X127676735Y-109413979D01*
X127586020Y-109323264D01*
X127586013Y-109323259D01*
X127471714Y-109265022D01*
X127376871Y-109250000D01*
X127250000Y-109250000D01*
X127250000Y-109800000D01*
X126950000Y-109800000D01*
X126950000Y-109250000D01*
X126823129Y-109250000D01*
X126728285Y-109265022D01*
X126613986Y-109323259D01*
X126613979Y-109323264D01*
X126523264Y-109413979D01*
X126523259Y-109413986D01*
X126465022Y-109528285D01*
X126450000Y-109623128D01*
X113900000Y-109623128D01*
X113884977Y-109528285D01*
X113826740Y-109413986D01*
X113826735Y-109413979D01*
X113736020Y-109323264D01*
X113736013Y-109323259D01*
X113621714Y-109265022D01*
X113526871Y-109250000D01*
X113400000Y-109250000D01*
X113400000Y-109800000D01*
X113100000Y-109800000D01*
X113100000Y-109250000D01*
X112973129Y-109250000D01*
X112878286Y-109265021D01*
X112871744Y-109268355D01*
X112834356Y-109271296D01*
X112805840Y-109246939D01*
X112800500Y-109224695D01*
X112800500Y-108774500D01*
X112814852Y-108739852D01*
X112849500Y-108725500D01*
X112903759Y-108725500D01*
X112903762Y-108725500D01*
X112959329Y-108714447D01*
X113022343Y-108672343D01*
X113064447Y-108609329D01*
X113073128Y-108565689D01*
X127075001Y-108565689D01*
X127089464Y-108657017D01*
X127145549Y-108767090D01*
X127145554Y-108767096D01*
X127232903Y-108854445D01*
X127232909Y-108854450D01*
X127342977Y-108910533D01*
X127434310Y-108924999D01*
X127524999Y-108924999D01*
X127825000Y-108924999D01*
X127915689Y-108924999D01*
X128007017Y-108910535D01*
X128117090Y-108854450D01*
X128117096Y-108854445D01*
X128204445Y-108767096D01*
X128204450Y-108767090D01*
X128260533Y-108657022D01*
X128275000Y-108565689D01*
X128275000Y-108375000D01*
X127825000Y-108375000D01*
X127825000Y-108924999D01*
X127524999Y-108924999D01*
X127525000Y-108924998D01*
X127525000Y-108375000D01*
X127075001Y-108375000D01*
X127075001Y-108565689D01*
X113073128Y-108565689D01*
X113075500Y-108553762D01*
X113075500Y-107896238D01*
X113073127Y-107884310D01*
X127075000Y-107884310D01*
X127075000Y-108075000D01*
X127525000Y-108075000D01*
X127825000Y-108075000D01*
X128274999Y-108075000D01*
X128274999Y-107896238D01*
X129574500Y-107896238D01*
X129574500Y-108553762D01*
X129583342Y-108598215D01*
X129585553Y-108609330D01*
X129627655Y-108672341D01*
X129627656Y-108672341D01*
X129627657Y-108672343D01*
X129677723Y-108705795D01*
X129698558Y-108736977D01*
X129699500Y-108746537D01*
X129699500Y-111153462D01*
X129685148Y-111188110D01*
X129677723Y-111194204D01*
X129627655Y-111227657D01*
X129585553Y-111290669D01*
X129585553Y-111290671D01*
X129574500Y-111346238D01*
X129574500Y-112003762D01*
X129583342Y-112048215D01*
X129585553Y-112059330D01*
X129627656Y-112122343D01*
X129690669Y-112164446D01*
X129690671Y-112164447D01*
X129746238Y-112175500D01*
X129746241Y-112175500D01*
X130203759Y-112175500D01*
X130203762Y-112175500D01*
X130259329Y-112164447D01*
X130322343Y-112122343D01*
X130364447Y-112059329D01*
X130375500Y-112003762D01*
X130375500Y-111924500D01*
X130389852Y-111889852D01*
X130424500Y-111875500D01*
X132325500Y-111875500D01*
X132360148Y-111889852D01*
X132374500Y-111924500D01*
X132374500Y-111940240D01*
X132386423Y-112000182D01*
X132396785Y-112015689D01*
X132431842Y-112068157D01*
X132459069Y-112086349D01*
X132499818Y-112113577D01*
X132559760Y-112125500D01*
X132559763Y-112125500D01*
X133090237Y-112125500D01*
X133090240Y-112125500D01*
X133150182Y-112113577D01*
X133218157Y-112068157D01*
X133263577Y-112000182D01*
X133275500Y-111940240D01*
X133275500Y-111409760D01*
X133263577Y-111349818D01*
X133224056Y-111290671D01*
X133218157Y-111281842D01*
X133177408Y-111254615D01*
X133150182Y-111236423D01*
X133090240Y-111224500D01*
X132559760Y-111224500D01*
X132499818Y-111236423D01*
X132431842Y-111281842D01*
X132396785Y-111334310D01*
X132386423Y-111349818D01*
X132374500Y-111409760D01*
X132374500Y-111409763D01*
X132374500Y-111425500D01*
X132360148Y-111460148D01*
X132325500Y-111474500D01*
X130424500Y-111474500D01*
X130389852Y-111460148D01*
X130375500Y-111425500D01*
X130375500Y-111346241D01*
X130375500Y-111346238D01*
X130364447Y-111290671D01*
X130364446Y-111290669D01*
X130322343Y-111227656D01*
X130259330Y-111185553D01*
X130245437Y-111182789D01*
X130203762Y-111174500D01*
X130203759Y-111174500D01*
X130149500Y-111174500D01*
X130114852Y-111160148D01*
X130100500Y-111125500D01*
X130100500Y-110675304D01*
X130114852Y-110640656D01*
X130149500Y-110626304D01*
X130171749Y-110631646D01*
X130178287Y-110634978D01*
X130273129Y-110650000D01*
X130400000Y-110650000D01*
X130700000Y-110650000D01*
X130826871Y-110650000D01*
X130921714Y-110634977D01*
X131036013Y-110576740D01*
X131036020Y-110576735D01*
X131126735Y-110486020D01*
X131126740Y-110486013D01*
X131184977Y-110371714D01*
X131194791Y-110309760D01*
X132374500Y-110309760D01*
X132374500Y-110840240D01*
X132386423Y-110900182D01*
X132404615Y-110927408D01*
X132431842Y-110968157D01*
X132442084Y-110975000D01*
X132499818Y-111013577D01*
X132559760Y-111025500D01*
X132559763Y-111025500D01*
X133090237Y-111025500D01*
X133090240Y-111025500D01*
X133150182Y-111013577D01*
X133218157Y-110968157D01*
X133263577Y-110900182D01*
X133275500Y-110840240D01*
X133275500Y-110309760D01*
X133263577Y-110249818D01*
X133235433Y-110207698D01*
X133218157Y-110181842D01*
X133177408Y-110154615D01*
X133150182Y-110136423D01*
X133090240Y-110124500D01*
X132559760Y-110124500D01*
X132499818Y-110136423D01*
X132431842Y-110181842D01*
X132386423Y-110249818D01*
X132374500Y-110309760D01*
X131194791Y-110309760D01*
X131196386Y-110299688D01*
X131196386Y-110299687D01*
X131200000Y-110276870D01*
X131200000Y-110100000D01*
X130700000Y-110100000D01*
X130700000Y-110650000D01*
X130400000Y-110650000D01*
X130400000Y-109800000D01*
X130700000Y-109800000D01*
X131200000Y-109800000D01*
X131200000Y-109623128D01*
X131184977Y-109528285D01*
X131126740Y-109413986D01*
X131126735Y-109413979D01*
X131036020Y-109323264D01*
X131036013Y-109323259D01*
X130921714Y-109265022D01*
X130826871Y-109250000D01*
X130700000Y-109250000D01*
X130700000Y-109800000D01*
X130400000Y-109800000D01*
X130400000Y-109250000D01*
X130273129Y-109250000D01*
X130178286Y-109265021D01*
X130171744Y-109268355D01*
X130134356Y-109271296D01*
X130105840Y-109246939D01*
X130100500Y-109224695D01*
X130100500Y-108774500D01*
X130114852Y-108739852D01*
X130149500Y-108725500D01*
X130203759Y-108725500D01*
X130203762Y-108725500D01*
X130259329Y-108714447D01*
X130322343Y-108672343D01*
X130364447Y-108609329D01*
X130375500Y-108553762D01*
X130375500Y-107896238D01*
X130364447Y-107840671D01*
X130357351Y-107830051D01*
X130322343Y-107777656D01*
X130259330Y-107735553D01*
X130236560Y-107731024D01*
X130203762Y-107724500D01*
X129746238Y-107724500D01*
X129713440Y-107731024D01*
X129690669Y-107735553D01*
X129627656Y-107777656D01*
X129585553Y-107840669D01*
X129585553Y-107840671D01*
X129574500Y-107896238D01*
X128274999Y-107896238D01*
X128274999Y-107884310D01*
X128260535Y-107792982D01*
X128204450Y-107682909D01*
X128204445Y-107682903D01*
X128117096Y-107595554D01*
X128117090Y-107595549D01*
X128007022Y-107539466D01*
X127915689Y-107525000D01*
X127825000Y-107525000D01*
X127825000Y-108075000D01*
X127525000Y-108075000D01*
X127525000Y-107525000D01*
X127434310Y-107525000D01*
X127342982Y-107539464D01*
X127232909Y-107595549D01*
X127232903Y-107595554D01*
X127145554Y-107682903D01*
X127145549Y-107682909D01*
X127089466Y-107792977D01*
X127075000Y-107884310D01*
X113073127Y-107884310D01*
X113064447Y-107840671D01*
X113057351Y-107830051D01*
X113022343Y-107777656D01*
X112959330Y-107735553D01*
X112936560Y-107731024D01*
X112903762Y-107724500D01*
X112446238Y-107724500D01*
X112413440Y-107731024D01*
X112390669Y-107735553D01*
X112327656Y-107777656D01*
X112285553Y-107840669D01*
X112285553Y-107840671D01*
X112274500Y-107896238D01*
X110974999Y-107896238D01*
X110974999Y-107884310D01*
X110960535Y-107792982D01*
X110904450Y-107682909D01*
X110904445Y-107682903D01*
X110817096Y-107595554D01*
X110817090Y-107595549D01*
X110707022Y-107539466D01*
X110615689Y-107525000D01*
X110525000Y-107525000D01*
X110525000Y-108075000D01*
X110225000Y-108075000D01*
X110225000Y-107525000D01*
X110134310Y-107525000D01*
X110042982Y-107539464D01*
X109932909Y-107595549D01*
X109932903Y-107595554D01*
X109845554Y-107682903D01*
X109845549Y-107682909D01*
X109789466Y-107792977D01*
X109775000Y-107884310D01*
X95923127Y-107884310D01*
X95914447Y-107840671D01*
X95907351Y-107830051D01*
X95872343Y-107777656D01*
X95809330Y-107735553D01*
X95786560Y-107731024D01*
X95753762Y-107724500D01*
X95296238Y-107724500D01*
X95263440Y-107731024D01*
X95240669Y-107735553D01*
X95177656Y-107777656D01*
X95135553Y-107840669D01*
X95135553Y-107840671D01*
X95124500Y-107896238D01*
X93824999Y-107896238D01*
X93824999Y-107884310D01*
X93810535Y-107792982D01*
X93754450Y-107682909D01*
X93754445Y-107682903D01*
X93667096Y-107595554D01*
X93667090Y-107595549D01*
X93557022Y-107539466D01*
X93465689Y-107525000D01*
X93375000Y-107525000D01*
X93375000Y-108075000D01*
X93075000Y-108075000D01*
X93075000Y-107525000D01*
X92984310Y-107525000D01*
X92892982Y-107539464D01*
X92782909Y-107595549D01*
X92782903Y-107595554D01*
X92695554Y-107682903D01*
X92695549Y-107682909D01*
X92639466Y-107792977D01*
X92625000Y-107884310D01*
X83600500Y-107884310D01*
X83600500Y-105602309D01*
X83600717Y-105597702D01*
X83602388Y-105580009D01*
X83617138Y-105423818D01*
X83618858Y-105414789D01*
X83666896Y-105249276D01*
X83670282Y-105240717D01*
X83748453Y-105087130D01*
X83753381Y-105079356D01*
X83858921Y-104943120D01*
X83865210Y-104936411D01*
X83994405Y-104822328D01*
X84001836Y-104816919D01*
X84150091Y-104729046D01*
X84158415Y-104725119D01*
X84320502Y-104666553D01*
X84329395Y-104664257D01*
X84501889Y-104636702D01*
X84506453Y-104636192D01*
X84862200Y-104613389D01*
X135999500Y-104613389D01*
X135999500Y-104614305D01*
X135999500Y-104786610D01*
X136026597Y-104957698D01*
X136026598Y-104957701D01*
X136080127Y-105122446D01*
X136158764Y-105276782D01*
X136158767Y-105276786D01*
X136158768Y-105276788D01*
X136260586Y-105416928D01*
X136260588Y-105416930D01*
X136260591Y-105416934D01*
X136383065Y-105539408D01*
X136383068Y-105539410D01*
X136383072Y-105539414D01*
X136523212Y-105641232D01*
X136523214Y-105641233D01*
X136523217Y-105641235D01*
X136677553Y-105719872D01*
X136677555Y-105719873D01*
X136842299Y-105773402D01*
X137013389Y-105800500D01*
X137013390Y-105800500D01*
X137186610Y-105800500D01*
X137186611Y-105800500D01*
X137357701Y-105773402D01*
X137522445Y-105719873D01*
X137676788Y-105641232D01*
X137816928Y-105539414D01*
X137939414Y-105416928D01*
X138041232Y-105276788D01*
X138119873Y-105122445D01*
X138173402Y-104957701D01*
X138200500Y-104786611D01*
X138200500Y-104613389D01*
X138173402Y-104442299D01*
X138119873Y-104277555D01*
X138098571Y-104235747D01*
X138041235Y-104123217D01*
X138041233Y-104123214D01*
X138041232Y-104123212D01*
X137939414Y-103983072D01*
X137939410Y-103983068D01*
X137939408Y-103983065D01*
X137816934Y-103860591D01*
X137816935Y-103860591D01*
X137740188Y-103804831D01*
X137676788Y-103758768D01*
X137676786Y-103758767D01*
X137676782Y-103758764D01*
X137522446Y-103680127D01*
X137357701Y-103626598D01*
X137357698Y-103626597D01*
X137226271Y-103605781D01*
X137186611Y-103599500D01*
X137013389Y-103599500D01*
X136981192Y-103604599D01*
X136842301Y-103626597D01*
X136842298Y-103626598D01*
X136677553Y-103680127D01*
X136523217Y-103758764D01*
X136383065Y-103860591D01*
X136260591Y-103983065D01*
X136158764Y-104123217D01*
X136080127Y-104277553D01*
X136026598Y-104442298D01*
X136026597Y-104442301D01*
X136019506Y-104487074D01*
X135999746Y-104611834D01*
X135999500Y-104613389D01*
X84862200Y-104613389D01*
X90458054Y-104254701D01*
X90484250Y-104253391D01*
X90501927Y-104241970D01*
X90514594Y-104235747D01*
X90514597Y-104235744D01*
X90518429Y-104232814D01*
X90518600Y-104233038D01*
X90524123Y-104228435D01*
X90897581Y-104004580D01*
X90900402Y-104003015D01*
X91304529Y-103796336D01*
X91307479Y-103794951D01*
X91724538Y-103615911D01*
X91727588Y-103614721D01*
X92155721Y-103464116D01*
X92158849Y-103463131D01*
X92596183Y-103341619D01*
X92599352Y-103340854D01*
X93043823Y-103249012D01*
X93047039Y-103248459D01*
X93496707Y-103186687D01*
X93499948Y-103186352D01*
X93952731Y-103154935D01*
X93955984Y-103154818D01*
X94409867Y-103153897D01*
X94413140Y-103154000D01*
X94866046Y-103183578D01*
X94869297Y-103183900D01*
X95318842Y-103243796D01*
X95320343Y-103244021D01*
X95320995Y-103244129D01*
X95337878Y-103247411D01*
X95339176Y-103247146D01*
X95344364Y-103248007D01*
X95344787Y-103248078D01*
X95344798Y-103248085D01*
X95344857Y-103248089D01*
X95347375Y-103248512D01*
X95365203Y-103241851D01*
X95377057Y-103239440D01*
X95383758Y-103234919D01*
X95397827Y-103229664D01*
X95401183Y-103225594D01*
X95411579Y-103216153D01*
X96898237Y-102213389D01*
X99199500Y-102213389D01*
X99199500Y-102214305D01*
X99199500Y-102386610D01*
X99226597Y-102557698D01*
X99226598Y-102557701D01*
X99280127Y-102722446D01*
X99358764Y-102876782D01*
X99358767Y-102876786D01*
X99358768Y-102876788D01*
X99460586Y-103016928D01*
X99460588Y-103016930D01*
X99460591Y-103016934D01*
X99583065Y-103139408D01*
X99583068Y-103139410D01*
X99583072Y-103139414D01*
X99723212Y-103241232D01*
X99723214Y-103241233D01*
X99723217Y-103241235D01*
X99877553Y-103319872D01*
X99877555Y-103319873D01*
X100042299Y-103373402D01*
X100213389Y-103400500D01*
X100213390Y-103400500D01*
X100386610Y-103400500D01*
X100386611Y-103400500D01*
X100557701Y-103373402D01*
X100722445Y-103319873D01*
X100876788Y-103241232D01*
X101016928Y-103139414D01*
X101139414Y-103016928D01*
X101241232Y-102876788D01*
X101319873Y-102722445D01*
X101373402Y-102557701D01*
X101400500Y-102386611D01*
X101400500Y-102213389D01*
X116199500Y-102213389D01*
X116199500Y-102214305D01*
X116199500Y-102386610D01*
X116226597Y-102557698D01*
X116226598Y-102557701D01*
X116280127Y-102722446D01*
X116358764Y-102876782D01*
X116358767Y-102876786D01*
X116358768Y-102876788D01*
X116460586Y-103016928D01*
X116460588Y-103016930D01*
X116460591Y-103016934D01*
X116583065Y-103139408D01*
X116583068Y-103139410D01*
X116583072Y-103139414D01*
X116723212Y-103241232D01*
X116723214Y-103241233D01*
X116723217Y-103241235D01*
X116877553Y-103319872D01*
X116877555Y-103319873D01*
X117042299Y-103373402D01*
X117213389Y-103400500D01*
X117213390Y-103400500D01*
X117386610Y-103400500D01*
X117386611Y-103400500D01*
X117557701Y-103373402D01*
X117722445Y-103319873D01*
X117876788Y-103241232D01*
X118016928Y-103139414D01*
X118139414Y-103016928D01*
X118241232Y-102876788D01*
X118319873Y-102722445D01*
X118373402Y-102557701D01*
X118400500Y-102386611D01*
X118400500Y-102213389D01*
X133299500Y-102213389D01*
X133299500Y-102214305D01*
X133299500Y-102386610D01*
X133326597Y-102557698D01*
X133326598Y-102557701D01*
X133380127Y-102722446D01*
X133458764Y-102876782D01*
X133458767Y-102876786D01*
X133458768Y-102876788D01*
X133560586Y-103016928D01*
X133560588Y-103016930D01*
X133560591Y-103016934D01*
X133683065Y-103139408D01*
X133683068Y-103139410D01*
X133683072Y-103139414D01*
X133823212Y-103241232D01*
X133823214Y-103241233D01*
X133823217Y-103241235D01*
X133977553Y-103319872D01*
X133977555Y-103319873D01*
X134142299Y-103373402D01*
X134313389Y-103400500D01*
X134313390Y-103400500D01*
X134486610Y-103400500D01*
X134486611Y-103400500D01*
X134657701Y-103373402D01*
X134822445Y-103319873D01*
X134976788Y-103241232D01*
X135116928Y-103139414D01*
X135239414Y-103016928D01*
X135341232Y-102876788D01*
X135419873Y-102722445D01*
X135473402Y-102557701D01*
X135500500Y-102386611D01*
X135500500Y-102213389D01*
X135473402Y-102042299D01*
X135419873Y-101877555D01*
X135341232Y-101723212D01*
X135239414Y-101583072D01*
X135239410Y-101583068D01*
X135239408Y-101583065D01*
X135116934Y-101460591D01*
X135116935Y-101460591D01*
X134976782Y-101358764D01*
X134822446Y-101280127D01*
X134657701Y-101226598D01*
X134657698Y-101226597D01*
X134526271Y-101205781D01*
X134486611Y-101199500D01*
X134313389Y-101199500D01*
X134281192Y-101204599D01*
X134142301Y-101226597D01*
X134142298Y-101226598D01*
X133977553Y-101280127D01*
X133823217Y-101358764D01*
X133683065Y-101460591D01*
X133560591Y-101583065D01*
X133458764Y-101723217D01*
X133380127Y-101877553D01*
X133326598Y-102042298D01*
X133326597Y-102042301D01*
X133306238Y-102170843D01*
X133299746Y-102211834D01*
X133299500Y-102213389D01*
X118400500Y-102213389D01*
X118373402Y-102042299D01*
X118319873Y-101877555D01*
X118241232Y-101723212D01*
X118139414Y-101583072D01*
X118139410Y-101583068D01*
X118139408Y-101583065D01*
X118016934Y-101460591D01*
X118016935Y-101460591D01*
X117876782Y-101358764D01*
X117722446Y-101280127D01*
X117557701Y-101226598D01*
X117557698Y-101226597D01*
X117426271Y-101205781D01*
X117386611Y-101199500D01*
X117213389Y-101199500D01*
X117181192Y-101204599D01*
X117042301Y-101226597D01*
X117042298Y-101226598D01*
X116877553Y-101280127D01*
X116723217Y-101358764D01*
X116583065Y-101460591D01*
X116460591Y-101583065D01*
X116358764Y-101723217D01*
X116280127Y-101877553D01*
X116226598Y-102042298D01*
X116226597Y-102042301D01*
X116206238Y-102170843D01*
X116199746Y-102211834D01*
X116199500Y-102213389D01*
X101400500Y-102213389D01*
X101373402Y-102042299D01*
X101319873Y-101877555D01*
X101241232Y-101723212D01*
X101139414Y-101583072D01*
X101139410Y-101583068D01*
X101139408Y-101583065D01*
X101016934Y-101460591D01*
X101016935Y-101460591D01*
X100876782Y-101358764D01*
X100722446Y-101280127D01*
X100557701Y-101226598D01*
X100557698Y-101226597D01*
X100426271Y-101205781D01*
X100386611Y-101199500D01*
X100213389Y-101199500D01*
X100181192Y-101204599D01*
X100042301Y-101226597D01*
X100042298Y-101226598D01*
X99877553Y-101280127D01*
X99723217Y-101358764D01*
X99583065Y-101460591D01*
X99460591Y-101583065D01*
X99358764Y-101723217D01*
X99280127Y-101877553D01*
X99226598Y-102042298D01*
X99226597Y-102042301D01*
X99206238Y-102170843D01*
X99199746Y-102211834D01*
X99199500Y-102213389D01*
X96898237Y-102213389D01*
X99640488Y-100363717D01*
X99642925Y-100362177D01*
X99795890Y-100271714D01*
X99801038Y-100269068D01*
X99962317Y-100197935D01*
X99967739Y-100195919D01*
X100136303Y-100144384D01*
X100141919Y-100143026D01*
X100315400Y-100111811D01*
X100321161Y-100111124D01*
X100498552Y-100100585D01*
X100501458Y-100100500D01*
X100526929Y-100100500D01*
X138173071Y-100100500D01*
X138197855Y-100100500D01*
X138202125Y-100100685D01*
X138369303Y-100115312D01*
X138377698Y-100116793D01*
X138537708Y-100159668D01*
X138545731Y-100162588D01*
X138695873Y-100232600D01*
X138703256Y-100236863D01*
X138838953Y-100331879D01*
X138845496Y-100337369D01*
X138962630Y-100454503D01*
X138968120Y-100461046D01*
X139063134Y-100596740D01*
X139067403Y-100604133D01*
X139137410Y-100754266D01*
X139140331Y-100762292D01*
X139183204Y-100922293D01*
X139184688Y-100930704D01*
X139199314Y-101097874D01*
X139199500Y-101102145D01*
X139199500Y-102802351D01*
X139231522Y-103004531D01*
X139231523Y-103004534D01*
X139290708Y-103186689D01*
X139294780Y-103199219D01*
X139387713Y-103381610D01*
X139508035Y-103547218D01*
X139508037Y-103547220D01*
X139508040Y-103547224D01*
X139652775Y-103691959D01*
X139652778Y-103691961D01*
X139652782Y-103691965D01*
X139818390Y-103812287D01*
X140000781Y-103905220D01*
X140195466Y-103968477D01*
X140397648Y-104000500D01*
X140397649Y-104000500D01*
X172202351Y-104000500D01*
X172202352Y-104000500D01*
X172404534Y-103968477D01*
X172599219Y-103905220D01*
X172781610Y-103812287D01*
X172947218Y-103691965D01*
X173091965Y-103547218D01*
X173212287Y-103381610D01*
X173305220Y-103199219D01*
X173368477Y-103004534D01*
X173400500Y-102802352D01*
X173400500Y-102700000D01*
X173401200Y-93313389D01*
X174199500Y-93313389D01*
X174199500Y-93314305D01*
X174199500Y-93486610D01*
X174226597Y-93657698D01*
X174226598Y-93657701D01*
X174280127Y-93822446D01*
X174358764Y-93976782D01*
X174358767Y-93976786D01*
X174358768Y-93976788D01*
X174460586Y-94116928D01*
X174460588Y-94116930D01*
X174460591Y-94116934D01*
X174583065Y-94239408D01*
X174583068Y-94239410D01*
X174583072Y-94239414D01*
X174723212Y-94341232D01*
X174723214Y-94341233D01*
X174723217Y-94341235D01*
X174877553Y-94419872D01*
X174877555Y-94419873D01*
X175042299Y-94473402D01*
X175213389Y-94500500D01*
X175213390Y-94500500D01*
X175386610Y-94500500D01*
X175386611Y-94500500D01*
X175557701Y-94473402D01*
X175722445Y-94419873D01*
X175876788Y-94341232D01*
X176016928Y-94239414D01*
X176139414Y-94116928D01*
X176241232Y-93976788D01*
X176319873Y-93822445D01*
X176373402Y-93657701D01*
X176400500Y-93486611D01*
X176400500Y-93313389D01*
X176373402Y-93142299D01*
X176319873Y-92977555D01*
X176241232Y-92823212D01*
X176139414Y-92683072D01*
X176139410Y-92683068D01*
X176139408Y-92683065D01*
X176016934Y-92560591D01*
X176016935Y-92560591D01*
X175876782Y-92458764D01*
X175722446Y-92380127D01*
X175557701Y-92326598D01*
X175557698Y-92326597D01*
X175426271Y-92305781D01*
X175386611Y-92299500D01*
X175213389Y-92299500D01*
X175181192Y-92304599D01*
X175042301Y-92326597D01*
X175042298Y-92326598D01*
X174877553Y-92380127D01*
X174723217Y-92458764D01*
X174583065Y-92560591D01*
X174460591Y-92683065D01*
X174358764Y-92823217D01*
X174280127Y-92977553D01*
X174226598Y-93142298D01*
X174226597Y-93142301D01*
X174199901Y-93310854D01*
X174199746Y-93311834D01*
X174199500Y-93313389D01*
X173401200Y-93313389D01*
X173401480Y-89561303D01*
X174399500Y-89561303D01*
X174399500Y-89738696D01*
X174434103Y-89912656D01*
X174434106Y-89912666D01*
X174501987Y-90076547D01*
X174541726Y-90136021D01*
X174600533Y-90224032D01*
X174725967Y-90349466D01*
X174784640Y-90388670D01*
X174873453Y-90448013D01*
X175037334Y-90515894D01*
X175037340Y-90515895D01*
X175037343Y-90515896D01*
X175211303Y-90550499D01*
X175211309Y-90550500D01*
X175388691Y-90550500D01*
X175562666Y-90515894D01*
X175726547Y-90448013D01*
X175874035Y-90349464D01*
X175999464Y-90224035D01*
X176098013Y-90076547D01*
X176165894Y-89912666D01*
X176200500Y-89738691D01*
X176200500Y-89561309D01*
X176200499Y-89561303D01*
X176165896Y-89387343D01*
X176165893Y-89387332D01*
X176098013Y-89223453D01*
X176021724Y-89109279D01*
X175999466Y-89075967D01*
X175874032Y-88950533D01*
X175786021Y-88891726D01*
X175726547Y-88851987D01*
X175726544Y-88851985D01*
X175726543Y-88851985D01*
X175562667Y-88784106D01*
X175562656Y-88784103D01*
X175388696Y-88749500D01*
X175388691Y-88749500D01*
X175211309Y-88749500D01*
X175211303Y-88749500D01*
X175037343Y-88784103D01*
X175037332Y-88784106D01*
X174873456Y-88851985D01*
X174725967Y-88950533D01*
X174600533Y-89075967D01*
X174501985Y-89223456D01*
X174434106Y-89387332D01*
X174434103Y-89387343D01*
X174399500Y-89561303D01*
X173401480Y-89561303D01*
X173401538Y-88777974D01*
X173401541Y-88777970D01*
X173401541Y-88753433D01*
X173401777Y-88748644D01*
X173415469Y-88609623D01*
X173417343Y-88600202D01*
X173446497Y-88504094D01*
X173457194Y-88468829D01*
X173460864Y-88459969D01*
X173525582Y-88338891D01*
X173530914Y-88330912D01*
X173618003Y-88224795D01*
X173624795Y-88218003D01*
X173730912Y-88130914D01*
X173738891Y-88125582D01*
X173859969Y-88060864D01*
X173868829Y-88057194D01*
X174000203Y-88017342D01*
X174009622Y-88015469D01*
X174148645Y-88001777D01*
X174153448Y-88001541D01*
X174177970Y-88001541D01*
X176422030Y-88001541D01*
X176446552Y-88001541D01*
X176451355Y-88001777D01*
X176590376Y-88015469D01*
X176599798Y-88017343D01*
X176731166Y-88057193D01*
X176740033Y-88060866D01*
X176861103Y-88125579D01*
X176869087Y-88130914D01*
X176975204Y-88218003D01*
X176981996Y-88224795D01*
X177069085Y-88330912D01*
X177074422Y-88338899D01*
X177139131Y-88459962D01*
X177142807Y-88468836D01*
X177182656Y-88600202D01*
X177184530Y-88609623D01*
X177198223Y-88748644D01*
X177198459Y-88753433D01*
X177198459Y-88777970D01*
X177198465Y-88777981D01*
X177198467Y-88784386D01*
X177198468Y-88784387D01*
X177200541Y-95548959D01*
X177200541Y-95632117D01*
X177229422Y-95795910D01*
X177286303Y-95952190D01*
X177286307Y-95952199D01*
X177369458Y-96096221D01*
X177369461Y-96096225D01*
X177369462Y-96096226D01*
X177476368Y-96223632D01*
X177583778Y-96313759D01*
X177603778Y-96330541D01*
X177747800Y-96413692D01*
X177747804Y-96413694D01*
X177747808Y-96413696D01*
X177904089Y-96470577D01*
X177904088Y-96470577D01*
X177904094Y-96470579D01*
X178067883Y-96499459D01*
X178067889Y-96499459D01*
X178147382Y-96499459D01*
X219174539Y-96501970D01*
X219174543Y-96501972D01*
X219201472Y-96501972D01*
X219205119Y-96501972D01*
X219221457Y-96501973D01*
X219221459Y-96501972D01*
X219303824Y-96501972D01*
X219506006Y-96469949D01*
X219700691Y-96406692D01*
X219883082Y-96313759D01*
X220048690Y-96193437D01*
X220193437Y-96048690D01*
X220313759Y-95883082D01*
X220406692Y-95700691D01*
X220469949Y-95506006D01*
X220501972Y-95303824D01*
X220501972Y-95221453D01*
X220501975Y-95221446D01*
X220501972Y-95201472D01*
X220501972Y-95174543D01*
X220501972Y-95168330D01*
X220501965Y-95168288D01*
X220500525Y-86549507D01*
X220514871Y-86514858D01*
X220549517Y-86500500D01*
X223350500Y-86500500D01*
X223385148Y-86514852D01*
G37*
G04 #@! TD.AperFunction*
M02*
