G04 #@! TF.GenerationSoftware,KiCad,Pcbnew,10.0.4*
G04 #@! TF.CreationDate,2026-07-25T23:10:04+02:00*
G04 #@! TF.ProjectId,KanDao Meeting Pro,4b616e44-616f-4204-9d65-6574696e6720,rev?*
G04 #@! TF.SameCoordinates,Original*
G04 #@! TF.FileFunction,Copper,L2,Bot*
G04 #@! TF.FilePolarity,Positive*
%FSLAX46Y46*%
G04 Gerber Fmt 4.6, Leading zero omitted, Abs format (unit mm)*
G04 Created by KiCad (PCBNEW 10.0.4) date 2026-07-25 23:10:04*
%MOMM*%
%LPD*%
G01*
G04 APERTURE LIST*
G04 Aperture macros list*
%AMRoundRect*
0 Rectangle with rounded corners*
0 $1 Rounding radius*
0 $2 $3 $4 $5 $6 $7 $8 $9 X,Y pos of 4 corners*
0 Add a 4 corners polygon primitive as box body*
4,1,4,$2,$3,$4,$5,$6,$7,$8,$9,$2,$3,0*
0 Add four circle primitives for the rounded corners*
1,1,$1+$1,$2,$3*
1,1,$1+$1,$4,$5*
1,1,$1+$1,$6,$7*
1,1,$1+$1,$8,$9*
0 Add four rect primitives between the rounded corners*
20,1,$1+$1,$2,$3,$4,$5,0*
20,1,$1+$1,$4,$5,$6,$7,0*
20,1,$1+$1,$6,$7,$8,$9,0*
20,1,$1+$1,$8,$9,$2,$3,0*%
G04 Aperture macros list end*
G04 #@! TA.AperFunction,Conductor*
%ADD10C,0.200000*%
G04 #@! TD*
G04 #@! TA.AperFunction,SMDPad,CuDef*
%ADD11RoundRect,0.200000X-0.000010X0.100000X-0.000010X-0.100000X0.000010X-0.100000X0.000010X0.100000X0*%
G04 #@! TD*
G04 #@! TA.AperFunction,SMDPad,CuDef*
%ADD12RoundRect,0.200000X-0.000010X0.400000X-0.000010X-0.400000X0.000010X-0.400000X0.000010X0.400000X0*%
G04 #@! TD*
G04 #@! TA.AperFunction,ViaPad*
%ADD13C,0.600000*%
G04 #@! TD*
G04 APERTURE END LIST*
D10*
X220350000Y-102750000D02*
G75*
G02*
X221250000Y-103650000I0J-900000D01*
G01*
X221950000Y-111550000D02*
X221950000Y-103650000D01*
X175900000Y-102750000D02*
G75*
G02*
X174350000Y-101200000I0J1550000D01*
G01*
X176650000Y-102050000D02*
G75*
G02*
X175400000Y-100800000I0J1250000D01*
G01*
X173700000Y-94000000D02*
G75*
G02*
X175400000Y-95700000I0J-1700000D01*
G01*
X173300000Y-95000000D02*
G75*
G02*
X174350000Y-96050000I0J-1050000D01*
G01*
X177200000Y-101350000D02*
G75*
G02*
X176300000Y-100450000I0J900000D01*
G01*
X174150000Y-93000000D02*
G75*
G02*
X176300000Y-95150000I0J-2150000D01*
G01*
X220350000Y-101350000D02*
X177350000Y-101350000D01*
X220350000Y-102050000D02*
X176650000Y-102050000D01*
X220350000Y-102750000D02*
X177350000Y-102750000D01*
X220550000Y-113300000D02*
X220550000Y-111200000D01*
X221250000Y-111550000D02*
X221250000Y-113300000D01*
X221250000Y-103650000D02*
X221250000Y-111550000D01*
X221950000Y-111550000D02*
X221950000Y-113300000D01*
X220350000Y-102050000D02*
G75*
G02*
X221950000Y-103650000I0J-1600000D01*
G01*
X222650000Y-111550000D02*
X222650000Y-113300000D01*
X222650000Y-111550000D02*
X222650000Y-103650000D01*
X220350000Y-101350000D02*
G75*
G02*
X222650000Y-103650000I0J-2300000D01*
G01*
X223350000Y-113300000D02*
X223350000Y-111200000D01*
D11*
X220550000Y-113280000D03*
D12*
X220900000Y-112380000D03*
D11*
X221250000Y-113280000D03*
D12*
X221600000Y-112380000D03*
D11*
X221950000Y-113280000D03*
D12*
X222300000Y-112380000D03*
D11*
X222650000Y-113280000D03*
D12*
X223000000Y-112380000D03*
D11*
X223350000Y-113280000D03*
D13*
X137000000Y-57600000D03*
X176400000Y-104000000D03*
X176400000Y-104000000D03*
X176400000Y-104000000D03*
X174000000Y-104000000D03*
X105000000Y-90000000D03*
X114000000Y-90000000D03*
X108000000Y-84000000D03*
X108000000Y-96000000D03*
X120000000Y-84000000D03*
X120000000Y-96000000D03*
X129000000Y-87000000D03*
X129000000Y-96000000D03*
X138000000Y-90000000D03*
X138000000Y-81000000D03*
X138000000Y-99000000D03*
X96000000Y-96000000D03*
X96000000Y-84000000D03*
X88000000Y-88000000D03*
X88000000Y-92000000D03*
X120800000Y-90050000D03*
X97000000Y-90050000D03*
X110800000Y-89450000D03*
X124800000Y-89425000D03*
X101000000Y-89425000D03*
D10*
X133525000Y-89425000D02*
X139100000Y-95000000D01*
X139100000Y-95000000D02*
X173300000Y-95000000D01*
X124800000Y-89425000D02*
X133525000Y-89425000D01*
X175400000Y-95700000D02*
X175400000Y-100800000D01*
X131350000Y-85000000D02*
X139350000Y-93000000D01*
X110800000Y-89450000D02*
X111750000Y-89450000D01*
X139250000Y-94000000D02*
X173700000Y-94000000D01*
X131250000Y-86000000D02*
X139250000Y-94000000D01*
X115200000Y-86000000D02*
X131250000Y-86000000D01*
X111750000Y-89450000D02*
X115200000Y-86000000D01*
X139350000Y-93000000D02*
X174150000Y-93000000D01*
X176300000Y-100448528D02*
X176300000Y-95150000D01*
X177350000Y-101350000D02*
X177201472Y-101350000D01*
X106325000Y-85000000D02*
X131350000Y-85000000D01*
X101900000Y-89425000D02*
X106325000Y-85000000D01*
X175900000Y-102750000D02*
X177350000Y-102750000D01*
X101000000Y-89425000D02*
X101900000Y-89425000D01*
X174350000Y-96050000D02*
X174350000Y-101200000D01*
G04 #@! TA.AperFunction,Conductor*
G36*
X138202130Y-80199830D02*
G01*
X138369303Y-80214457D01*
X138377698Y-80215938D01*
X138537708Y-80258813D01*
X138545731Y-80261733D01*
X138695873Y-80331745D01*
X138703256Y-80336008D01*
X138838953Y-80431024D01*
X138845496Y-80436514D01*
X138962630Y-80553648D01*
X138968120Y-80560191D01*
X139063134Y-80695885D01*
X139067403Y-80703278D01*
X139137410Y-80853411D01*
X139140331Y-80861437D01*
X139183204Y-81021438D01*
X139184688Y-81029849D01*
X139199314Y-81197019D01*
X139199500Y-81201290D01*
X139199500Y-90889414D01*
X139199500Y-90901468D01*
X139199497Y-91003821D01*
X139222723Y-91150500D01*
X139231513Y-91206008D01*
X139294764Y-91400692D01*
X139294767Y-91400697D01*
X139387700Y-91583096D01*
X139508021Y-91748704D01*
X139508025Y-91748709D01*
X139652763Y-91893447D01*
X139652767Y-91893450D01*
X139652769Y-91893452D01*
X139709508Y-91934675D01*
X139818375Y-92013771D01*
X139818377Y-92013772D01*
X139818380Y-92013774D01*
X140000776Y-92106706D01*
X140195464Y-92169959D01*
X140397651Y-92201975D01*
X140500004Y-92201972D01*
X140502550Y-92201971D01*
X174423069Y-92203334D01*
X174423071Y-92203335D01*
X174445086Y-92203335D01*
X174448630Y-92203335D01*
X174451374Y-92203412D01*
X174755103Y-92220469D01*
X174760548Y-92221082D01*
X175059116Y-92271811D01*
X175064462Y-92273031D01*
X175259782Y-92329302D01*
X175355460Y-92356867D01*
X175360646Y-92358682D01*
X175640418Y-92474567D01*
X175645369Y-92476951D01*
X175910424Y-92623441D01*
X175915060Y-92626355D01*
X176056872Y-92726976D01*
X176162035Y-92801594D01*
X176166331Y-92805019D01*
X176392137Y-93006811D01*
X176396023Y-93010697D01*
X176597815Y-93236503D01*
X176601240Y-93240799D01*
X176677207Y-93347863D01*
X176756958Y-93460262D01*
X176776474Y-93487766D01*
X176779398Y-93492419D01*
X176925883Y-93757465D01*
X176928267Y-93762416D01*
X177044152Y-94042188D01*
X177045967Y-94047374D01*
X177129801Y-94338367D01*
X177131024Y-94343724D01*
X177181751Y-94642278D01*
X177182366Y-94647739D01*
X177199423Y-94951463D01*
X177199500Y-94954210D01*
X177199500Y-99723071D01*
X177199500Y-99750000D01*
X177199500Y-99833158D01*
X177204477Y-99861387D01*
X177228381Y-99996951D01*
X177285262Y-100153231D01*
X177285266Y-100153240D01*
X177368417Y-100297262D01*
X177368420Y-100297266D01*
X177368421Y-100297267D01*
X177475327Y-100424673D01*
X177564503Y-100499500D01*
X177602737Y-100531582D01*
X177746759Y-100614733D01*
X177746763Y-100614735D01*
X177746767Y-100614737D01*
X177903048Y-100671618D01*
X177903047Y-100671618D01*
X177903053Y-100671620D01*
X178066842Y-100700500D01*
X178130009Y-100700500D01*
X221223071Y-100700500D01*
X221248513Y-100700500D01*
X221251471Y-100700589D01*
X221506145Y-100715993D01*
X221512010Y-100716706D01*
X221761502Y-100762428D01*
X221767229Y-100763839D01*
X222009393Y-100839301D01*
X222014923Y-100841398D01*
X222246225Y-100945499D01*
X222251456Y-100948245D01*
X222468521Y-101079464D01*
X222473380Y-101082817D01*
X222625401Y-101201918D01*
X222673049Y-101239248D01*
X222677478Y-101243172D01*
X222856827Y-101422521D01*
X222860751Y-101426950D01*
X223006723Y-101613270D01*
X223017178Y-101626614D01*
X223020537Y-101631482D01*
X223068429Y-101710704D01*
X223151752Y-101848539D01*
X223154502Y-101853778D01*
X223258600Y-102085074D01*
X223260698Y-102090606D01*
X223336157Y-102332761D01*
X223337573Y-102338506D01*
X223383292Y-102587984D01*
X223384006Y-102593858D01*
X223397107Y-102810454D01*
X223399156Y-102844320D01*
X223399411Y-102848527D01*
X223399500Y-102851486D01*
X223399500Y-111556594D01*
X223385148Y-111591242D01*
X223350500Y-111605594D01*
X223321135Y-111595820D01*
X223242087Y-111536645D01*
X223150000Y-111502298D01*
X223150000Y-112331000D01*
X223135648Y-112365648D01*
X223101000Y-112380000D01*
X223000000Y-112380000D01*
X223000000Y-112481000D01*
X222985648Y-112515648D01*
X222951000Y-112530000D01*
X222899500Y-112530000D01*
X222864852Y-112515648D01*
X222850500Y-112481000D01*
X222850500Y-103498752D01*
X222850500Y-103498748D01*
X222814037Y-103198449D01*
X222741643Y-102904734D01*
X222634373Y-102621887D01*
X222493792Y-102354032D01*
X222469608Y-102318996D01*
X222321953Y-102105080D01*
X222321946Y-102105071D01*
X222213419Y-101982570D01*
X222121352Y-101878648D01*
X221981038Y-101754340D01*
X221894928Y-101678053D01*
X221894919Y-101678046D01*
X221645979Y-101506215D01*
X221645974Y-101506212D01*
X221645968Y-101506208D01*
X221378113Y-101365627D01*
X221095266Y-101258357D01*
X221095263Y-101258356D01*
X221095260Y-101258355D01*
X220801555Y-101185964D01*
X220801551Y-101185963D01*
X220792862Y-101184908D01*
X220501252Y-101149500D01*
X220501248Y-101149500D01*
X177202407Y-101149500D01*
X177197604Y-101149264D01*
X177068336Y-101136532D01*
X177058915Y-101134658D01*
X176936932Y-101097655D01*
X176928057Y-101093979D01*
X176815635Y-101033887D01*
X176807649Y-101028550D01*
X176709110Y-100947681D01*
X176702318Y-100940889D01*
X176621449Y-100842350D01*
X176616112Y-100834364D01*
X176583437Y-100773235D01*
X176556018Y-100721939D01*
X176552346Y-100713072D01*
X176515339Y-100591075D01*
X176513468Y-100581672D01*
X176500736Y-100452396D01*
X176500500Y-100447593D01*
X176500500Y-95007824D01*
X176500500Y-95007821D01*
X176466224Y-94725536D01*
X176398173Y-94449441D01*
X176297339Y-94183561D01*
X176165191Y-93931775D01*
X176140842Y-93896500D01*
X176003660Y-93697757D01*
X176003653Y-93697748D01*
X175918449Y-93601573D01*
X175815093Y-93484907D01*
X175663170Y-93350316D01*
X175602251Y-93296346D01*
X175602242Y-93296339D01*
X175368223Y-93134807D01*
X175116443Y-93002663D01*
X175116441Y-93002662D01*
X175116439Y-93002661D01*
X175116433Y-93002658D01*
X175116429Y-93002657D01*
X174850560Y-92901827D01*
X174850552Y-92901825D01*
X174574468Y-92833777D01*
X174574464Y-92833776D01*
X174292179Y-92799500D01*
X174292176Y-92799500D01*
X139453345Y-92799500D01*
X139418697Y-92785148D01*
X131463576Y-84830025D01*
X131389883Y-84799500D01*
X131389882Y-84799500D01*
X106364882Y-84799500D01*
X106285118Y-84799500D01*
X106285116Y-84799500D01*
X106211424Y-84830025D01*
X106211423Y-84830025D01*
X101831302Y-89210148D01*
X101796654Y-89224500D01*
X101374989Y-89224500D01*
X101340341Y-89210148D01*
X101332553Y-89199999D01*
X101320482Y-89179090D01*
X101320477Y-89179084D01*
X101245913Y-89104520D01*
X101154589Y-89051793D01*
X101154585Y-89051792D01*
X101052730Y-89024500D01*
X101052727Y-89024500D01*
X100947273Y-89024500D01*
X100947270Y-89024500D01*
X100845414Y-89051792D01*
X100845410Y-89051793D01*
X100754086Y-89104520D01*
X100754086Y-89104521D01*
X100679521Y-89179086D01*
X100679520Y-89179086D01*
X100626793Y-89270410D01*
X100626792Y-89270414D01*
X100599500Y-89372269D01*
X100599500Y-89477730D01*
X100626792Y-89579585D01*
X100626793Y-89579589D01*
X100668699Y-89652170D01*
X100679520Y-89670913D01*
X100754087Y-89745480D01*
X100787513Y-89764778D01*
X100845410Y-89798206D01*
X100845412Y-89798206D01*
X100845413Y-89798207D01*
X100925747Y-89819732D01*
X100947269Y-89825499D01*
X100947270Y-89825500D01*
X100947273Y-89825500D01*
X101052730Y-89825500D01*
X101052730Y-89825499D01*
X101154587Y-89798207D01*
X101245913Y-89745480D01*
X101320480Y-89670913D01*
X101332553Y-89650000D01*
X101362306Y-89627170D01*
X101374989Y-89625500D01*
X101939880Y-89625500D01*
X101939882Y-89625500D01*
X102013574Y-89594976D01*
X106393698Y-85214852D01*
X106428346Y-85200500D01*
X131246654Y-85200500D01*
X131281302Y-85214852D01*
X139177228Y-93110777D01*
X139177231Y-93110781D01*
X139177232Y-93110781D01*
X139180023Y-93113572D01*
X139180024Y-93113574D01*
X139236426Y-93169976D01*
X139288531Y-93191558D01*
X139288532Y-93191559D01*
X139303795Y-93197881D01*
X139310117Y-93200500D01*
X139310118Y-93200500D01*
X174110118Y-93200500D01*
X174148397Y-93200500D01*
X174151602Y-93200605D01*
X174401263Y-93216968D01*
X174407611Y-93217804D01*
X174523213Y-93240799D01*
X174651411Y-93266299D01*
X174657603Y-93267957D01*
X174893005Y-93347865D01*
X174898918Y-93350314D01*
X175121878Y-93460267D01*
X175127413Y-93463462D01*
X175325700Y-93595952D01*
X175334111Y-93601573D01*
X175339196Y-93605475D01*
X175518152Y-93762416D01*
X175526090Y-93769377D01*
X175530622Y-93773909D01*
X175694524Y-93960803D01*
X175698426Y-93965888D01*
X175749408Y-94042188D01*
X175834792Y-94169975D01*
X175836532Y-94172578D01*
X175839737Y-94178129D01*
X175949683Y-94401077D01*
X175952136Y-94406999D01*
X176032042Y-94642397D01*
X176033700Y-94648588D01*
X176082194Y-94892385D01*
X176083031Y-94898739D01*
X176099395Y-95148397D01*
X176099500Y-95151602D01*
X176099500Y-100410118D01*
X176099500Y-100450000D01*
X176099500Y-100546281D01*
X176129723Y-100717687D01*
X176132939Y-100735922D01*
X176198797Y-100916866D01*
X176198801Y-100916874D01*
X176295078Y-101083630D01*
X176295078Y-101083631D01*
X176418854Y-101231142D01*
X176418857Y-101231145D01*
X176566369Y-101354921D01*
X176733125Y-101451198D01*
X176733132Y-101451202D01*
X176914082Y-101517062D01*
X177103719Y-101550500D01*
X177161590Y-101550500D01*
X177310118Y-101550500D01*
X220310118Y-101550500D01*
X220348397Y-101550500D01*
X220351602Y-101550605D01*
X220620842Y-101568251D01*
X220627175Y-101569084D01*
X220890255Y-101621414D01*
X220896415Y-101623064D01*
X221150410Y-101709285D01*
X221156322Y-101711734D01*
X221396878Y-101830363D01*
X221402409Y-101833556D01*
X221511394Y-101906377D01*
X221625425Y-101982570D01*
X221630510Y-101986472D01*
X221816675Y-102149735D01*
X221832156Y-102163311D01*
X221836688Y-102167843D01*
X222013527Y-102369489D01*
X222017429Y-102374574D01*
X222089192Y-102481974D01*
X222156654Y-102582939D01*
X222166436Y-102597578D01*
X222169639Y-102603126D01*
X222221269Y-102707821D01*
X222288263Y-102843673D01*
X222290716Y-102849594D01*
X222376932Y-103103575D01*
X222378587Y-103109754D01*
X222430912Y-103372806D01*
X222431748Y-103379160D01*
X222449395Y-103648397D01*
X222449500Y-103651602D01*
X222449500Y-112935232D01*
X222435148Y-112969880D01*
X222397794Y-113007233D01*
X222352415Y-113110006D01*
X222349500Y-113135134D01*
X222349500Y-113424858D01*
X222349501Y-113424864D01*
X222351819Y-113444855D01*
X222351000Y-113447734D01*
X222352146Y-113450500D01*
X222345972Y-113465403D01*
X222341556Y-113480925D01*
X222338939Y-113482382D01*
X222337794Y-113485148D01*
X222322890Y-113491321D01*
X222308792Y-113499174D01*
X222303146Y-113499500D01*
X222296855Y-113499500D01*
X222262207Y-113485148D01*
X222247855Y-113450500D01*
X222248181Y-113444853D01*
X222250500Y-113424865D01*
X222250499Y-113135136D01*
X222247585Y-113110009D01*
X222202206Y-113007235D01*
X222202205Y-113007234D01*
X222202205Y-113007233D01*
X222164852Y-112969880D01*
X222150500Y-112935232D01*
X222150500Y-103531992D01*
X222150500Y-103531989D01*
X222119693Y-103297986D01*
X222108885Y-103257649D01*
X222058608Y-103070012D01*
X222058604Y-103070002D01*
X222037148Y-103018204D01*
X221968284Y-102851951D01*
X221963879Y-102844322D01*
X221850995Y-102648801D01*
X221850273Y-102647550D01*
X221850270Y-102647546D01*
X221850264Y-102647537D01*
X221706596Y-102460306D01*
X221706586Y-102460294D01*
X221539705Y-102293413D01*
X221539693Y-102293403D01*
X221352462Y-102149735D01*
X221352447Y-102149725D01*
X221148050Y-102031716D01*
X220929997Y-101941395D01*
X220929987Y-101941391D01*
X220702025Y-101880309D01*
X220702018Y-101880308D01*
X220702014Y-101880307D01*
X220468011Y-101849500D01*
X220468008Y-101849500D01*
X176652145Y-101849500D01*
X176647874Y-101849314D01*
X176472022Y-101833929D01*
X176463611Y-101832445D01*
X176295192Y-101787316D01*
X176287166Y-101784395D01*
X176172396Y-101730878D01*
X176129130Y-101710702D01*
X176121740Y-101706435D01*
X175978907Y-101606422D01*
X175972364Y-101600932D01*
X175849067Y-101477635D01*
X175843577Y-101471092D01*
X175812668Y-101426950D01*
X175743562Y-101328256D01*
X175739299Y-101320873D01*
X175676390Y-101185964D01*
X175665604Y-101162833D01*
X175662683Y-101154807D01*
X175630282Y-101033887D01*
X175617552Y-100986380D01*
X175616071Y-100977983D01*
X175600686Y-100802125D01*
X175600500Y-100797855D01*
X175600500Y-95575438D01*
X175598776Y-95562340D01*
X175567982Y-95328435D01*
X175554345Y-95277542D01*
X175503505Y-95087800D01*
X175503504Y-95087798D01*
X175503503Y-95087793D01*
X175408165Y-94857626D01*
X175392382Y-94830290D01*
X175285398Y-94644989D01*
X175283599Y-94641873D01*
X175283596Y-94641869D01*
X175283590Y-94641860D01*
X175131942Y-94444229D01*
X175131932Y-94444217D01*
X174955782Y-94268067D01*
X174955770Y-94268057D01*
X174758139Y-94116409D01*
X174758124Y-94116399D01*
X174542374Y-93991835D01*
X174542375Y-93991835D01*
X174312215Y-93896500D01*
X174312199Y-93896494D01*
X174071576Y-93832020D01*
X174071569Y-93832019D01*
X174071565Y-93832018D01*
X173824565Y-93799500D01*
X173824562Y-93799500D01*
X139353345Y-93799500D01*
X139318697Y-93785148D01*
X131363576Y-85830025D01*
X131289883Y-85799500D01*
X131289882Y-85799500D01*
X115239882Y-85799500D01*
X115160118Y-85799500D01*
X115160116Y-85799500D01*
X115086424Y-85830025D01*
X115086423Y-85830025D01*
X111681302Y-89235148D01*
X111646654Y-89249500D01*
X111174989Y-89249500D01*
X111140341Y-89235148D01*
X111132553Y-89224999D01*
X111120482Y-89204090D01*
X111120477Y-89204084D01*
X111045913Y-89129520D01*
X110954589Y-89076793D01*
X110954585Y-89076792D01*
X110852730Y-89049500D01*
X110852727Y-89049500D01*
X110747273Y-89049500D01*
X110747270Y-89049500D01*
X110645414Y-89076792D01*
X110645410Y-89076793D01*
X110554086Y-89129520D01*
X110554086Y-89129521D01*
X110479521Y-89204086D01*
X110479520Y-89204086D01*
X110426793Y-89295410D01*
X110426792Y-89295414D01*
X110399500Y-89397269D01*
X110399500Y-89502730D01*
X110426792Y-89604585D01*
X110426793Y-89604589D01*
X110465084Y-89670909D01*
X110479520Y-89695913D01*
X110554087Y-89770480D01*
X110585972Y-89788889D01*
X110645410Y-89823206D01*
X110645412Y-89823206D01*
X110645413Y-89823207D01*
X110725747Y-89844732D01*
X110747269Y-89850499D01*
X110747270Y-89850500D01*
X110747273Y-89850500D01*
X110852730Y-89850500D01*
X110852730Y-89850499D01*
X110954587Y-89823207D01*
X111045913Y-89770480D01*
X111120480Y-89695913D01*
X111132553Y-89675000D01*
X111162306Y-89652170D01*
X111174989Y-89650500D01*
X111789880Y-89650500D01*
X111789882Y-89650500D01*
X111863574Y-89619976D01*
X115268698Y-86214852D01*
X115303346Y-86200500D01*
X131146654Y-86200500D01*
X131181302Y-86214852D01*
X139077228Y-94110777D01*
X139077231Y-94110781D01*
X139077232Y-94110781D01*
X139080023Y-94113572D01*
X139080024Y-94113574D01*
X139136426Y-94169976D01*
X139188531Y-94191558D01*
X139188532Y-94191559D01*
X139203795Y-94197881D01*
X139210117Y-94200500D01*
X139210118Y-94200500D01*
X173660118Y-94200500D01*
X173698252Y-94200500D01*
X173701748Y-94200625D01*
X173909905Y-94215513D01*
X173916825Y-94216508D01*
X174119029Y-94260494D01*
X174125737Y-94262463D01*
X174319641Y-94334785D01*
X174325991Y-94337686D01*
X174476718Y-94419989D01*
X174507609Y-94436857D01*
X174513490Y-94440635D01*
X174601758Y-94506712D01*
X174679163Y-94564656D01*
X174684446Y-94569235D01*
X174830764Y-94715553D01*
X174835343Y-94720836D01*
X174959363Y-94886508D01*
X174963142Y-94892390D01*
X175062311Y-95074003D01*
X175065216Y-95080362D01*
X175137536Y-95274262D01*
X175139505Y-95280970D01*
X175183491Y-95483174D01*
X175184486Y-95490094D01*
X175199375Y-95698252D01*
X175199500Y-95701748D01*
X175199500Y-100760118D01*
X175199500Y-100800000D01*
X175199500Y-100914157D01*
X175207779Y-100966432D01*
X175235216Y-101139657D01*
X175235217Y-101139660D01*
X175305159Y-101354921D01*
X175305770Y-101356799D01*
X175409422Y-101560227D01*
X175543621Y-101744937D01*
X175543622Y-101744938D01*
X175543626Y-101744943D01*
X175705057Y-101906374D01*
X175705061Y-101906377D01*
X175705063Y-101906379D01*
X175889773Y-102040578D01*
X176093201Y-102144230D01*
X176310340Y-102214783D01*
X176535843Y-102250500D01*
X176610118Y-102250500D01*
X220310118Y-102250500D01*
X220348075Y-102250500D01*
X220351918Y-102250650D01*
X220565089Y-102267427D01*
X220572676Y-102268629D01*
X220747522Y-102310606D01*
X220778720Y-102318096D01*
X220786033Y-102320472D01*
X220981798Y-102401560D01*
X220988646Y-102405050D01*
X221169316Y-102515765D01*
X221175534Y-102520282D01*
X221274641Y-102604927D01*
X221336663Y-102657899D01*
X221342100Y-102663336D01*
X221479715Y-102824462D01*
X221484234Y-102830683D01*
X221594949Y-103011353D01*
X221598440Y-103018204D01*
X221679527Y-103213967D01*
X221681903Y-103221279D01*
X221731369Y-103427319D01*
X221732572Y-103434913D01*
X221749349Y-103648080D01*
X221749500Y-103651925D01*
X221749500Y-112935232D01*
X221735148Y-112969880D01*
X221697794Y-113007233D01*
X221652415Y-113110006D01*
X221649500Y-113135134D01*
X221649500Y-113424858D01*
X221649501Y-113424864D01*
X221651819Y-113444855D01*
X221651000Y-113447734D01*
X221652146Y-113450500D01*
X221645972Y-113465403D01*
X221641556Y-113480925D01*
X221638939Y-113482382D01*
X221637794Y-113485148D01*
X221622890Y-113491321D01*
X221608792Y-113499174D01*
X221603146Y-113499500D01*
X221596855Y-113499500D01*
X221562207Y-113485148D01*
X221547855Y-113450500D01*
X221548181Y-113444853D01*
X221550500Y-113424865D01*
X221550499Y-113135136D01*
X221547585Y-113110009D01*
X221502206Y-113007235D01*
X221502205Y-113007234D01*
X221502205Y-113007233D01*
X221464852Y-112969880D01*
X221450500Y-112935232D01*
X221450500Y-103553725D01*
X221450500Y-103553719D01*
X221417062Y-103364082D01*
X221351202Y-103183132D01*
X221335179Y-103155379D01*
X221254921Y-103016369D01*
X221254921Y-103016368D01*
X221131145Y-102868857D01*
X221131142Y-102868854D01*
X220983630Y-102745078D01*
X220816874Y-102648801D01*
X220816866Y-102648797D01*
X220635922Y-102582939D01*
X220635919Y-102582938D01*
X220635918Y-102582938D01*
X220446281Y-102549500D01*
X175901925Y-102549500D01*
X175898081Y-102549349D01*
X175692735Y-102533188D01*
X175685140Y-102531985D01*
X175486729Y-102484350D01*
X175479417Y-102481974D01*
X175290900Y-102403889D01*
X175284049Y-102400398D01*
X175233610Y-102369489D01*
X175110071Y-102293784D01*
X175103856Y-102289269D01*
X174961685Y-102167843D01*
X174948691Y-102156745D01*
X174943254Y-102151308D01*
X174888993Y-102087777D01*
X174810728Y-101996141D01*
X174806217Y-101989930D01*
X174699598Y-101815945D01*
X174696113Y-101809105D01*
X174618025Y-101620582D01*
X174615649Y-101613270D01*
X174589944Y-101506203D01*
X174568013Y-101414855D01*
X174566811Y-101407264D01*
X174563534Y-101365629D01*
X174550651Y-101201918D01*
X174550500Y-101198074D01*
X174550500Y-95951583D01*
X174549340Y-95944256D01*
X174519709Y-95757174D01*
X174458884Y-95569975D01*
X174456523Y-95565341D01*
X174369527Y-95394600D01*
X174369525Y-95394597D01*
X174369524Y-95394595D01*
X174253828Y-95235354D01*
X174253824Y-95235350D01*
X174253822Y-95235347D01*
X174114652Y-95096177D01*
X174114653Y-95096177D01*
X174040499Y-95042301D01*
X173955405Y-94980476D01*
X173955403Y-94980475D01*
X173955399Y-94980472D01*
X173780026Y-94891116D01*
X173592826Y-94830291D01*
X173592823Y-94830290D01*
X173443482Y-94806637D01*
X173398417Y-94799500D01*
X173398416Y-94799500D01*
X139203346Y-94799500D01*
X139168698Y-94785148D01*
X133638576Y-89255025D01*
X133564883Y-89224500D01*
X133564882Y-89224500D01*
X125174989Y-89224500D01*
X125140341Y-89210148D01*
X125132553Y-89199999D01*
X125120482Y-89179090D01*
X125120477Y-89179084D01*
X125045913Y-89104520D01*
X124954589Y-89051793D01*
X124954585Y-89051792D01*
X124852730Y-89024500D01*
X124852727Y-89024500D01*
X124747273Y-89024500D01*
X124747270Y-89024500D01*
X124645414Y-89051792D01*
X124645410Y-89051793D01*
X124554086Y-89104520D01*
X124554086Y-89104521D01*
X124479521Y-89179086D01*
X124479520Y-89179086D01*
X124426793Y-89270410D01*
X124426792Y-89270414D01*
X124399500Y-89372269D01*
X124399500Y-89477730D01*
X124426792Y-89579585D01*
X124426793Y-89579589D01*
X124468699Y-89652170D01*
X124479520Y-89670913D01*
X124554087Y-89745480D01*
X124587513Y-89764778D01*
X124645410Y-89798206D01*
X124645412Y-89798206D01*
X124645413Y-89798207D01*
X124725747Y-89819732D01*
X124747269Y-89825499D01*
X124747270Y-89825500D01*
X124747273Y-89825500D01*
X124852730Y-89825500D01*
X124852730Y-89825499D01*
X124954587Y-89798207D01*
X125045913Y-89745480D01*
X125120480Y-89670913D01*
X125132553Y-89650000D01*
X125162306Y-89627170D01*
X125174989Y-89625500D01*
X133421654Y-89625500D01*
X133456302Y-89639852D01*
X138930024Y-95113574D01*
X138986426Y-95169976D01*
X139060118Y-95200500D01*
X173260118Y-95200500D01*
X173297593Y-95200500D01*
X173302396Y-95200736D01*
X173460935Y-95216350D01*
X173470338Y-95218221D01*
X173620473Y-95263764D01*
X173629341Y-95267436D01*
X173654660Y-95280970D01*
X173767700Y-95341392D01*
X173775686Y-95346729D01*
X173896955Y-95446252D01*
X173903747Y-95453044D01*
X174003270Y-95574313D01*
X174008607Y-95582299D01*
X174082561Y-95720655D01*
X174086237Y-95729530D01*
X174131776Y-95879652D01*
X174133650Y-95889073D01*
X174149264Y-96047603D01*
X174149500Y-96052406D01*
X174149500Y-101325202D01*
X174185134Y-101573043D01*
X174185135Y-101573046D01*
X174255677Y-101813291D01*
X174255683Y-101813307D01*
X174359698Y-102041069D01*
X174495074Y-102251717D01*
X174659047Y-102440952D01*
X174848282Y-102604925D01*
X175058930Y-102740301D01*
X175058929Y-102740301D01*
X175069394Y-102745080D01*
X175286700Y-102844320D01*
X175526954Y-102914865D01*
X175774802Y-102950500D01*
X175860118Y-102950500D01*
X177310118Y-102950500D01*
X220310118Y-102950500D01*
X220347593Y-102950500D01*
X220352396Y-102950736D01*
X220481672Y-102963468D01*
X220491075Y-102965339D01*
X220613072Y-103002346D01*
X220621939Y-103006018D01*
X220641301Y-103016368D01*
X220734364Y-103066112D01*
X220742350Y-103071449D01*
X220840889Y-103152318D01*
X220847681Y-103159110D01*
X220928550Y-103257649D01*
X220933887Y-103265635D01*
X220993979Y-103378057D01*
X220997655Y-103386932D01*
X221034658Y-103508915D01*
X221036532Y-103518336D01*
X221049264Y-103647603D01*
X221049500Y-103652406D01*
X221049500Y-112481000D01*
X221035148Y-112515648D01*
X221000500Y-112530000D01*
X220949000Y-112530000D01*
X220914352Y-112515648D01*
X220900000Y-112481000D01*
X220900000Y-112380000D01*
X220799000Y-112380000D01*
X220764352Y-112365648D01*
X220750000Y-112331000D01*
X220750000Y-111502298D01*
X220749999Y-111502298D01*
X220657912Y-111536645D01*
X220581466Y-111593873D01*
X220545128Y-111603148D01*
X220512875Y-111584012D01*
X220503101Y-111554657D01*
X220501972Y-104796466D01*
X220501972Y-104696176D01*
X220469949Y-104493994D01*
X220406692Y-104299309D01*
X220313759Y-104116918D01*
X220193437Y-103951310D01*
X220193433Y-103951306D01*
X220193431Y-103951303D01*
X220048696Y-103806568D01*
X220048697Y-103806568D01*
X219991946Y-103765336D01*
X219883082Y-103686241D01*
X219700691Y-103593308D01*
X219700690Y-103593307D01*
X219700689Y-103593307D01*
X219506006Y-103530051D01*
X219506003Y-103530050D01*
X219350692Y-103505451D01*
X219303824Y-103498028D01*
X219303823Y-103498028D01*
X219205549Y-103498028D01*
X178181924Y-103495450D01*
X178181924Y-103495449D01*
X178177970Y-103495449D01*
X178151041Y-103495449D01*
X178146977Y-103495449D01*
X178146973Y-103495448D01*
X178131056Y-103495448D01*
X178131055Y-103495448D01*
X178125357Y-103495448D01*
X178125349Y-103495449D01*
X178067882Y-103495449D01*
X178049150Y-103498752D01*
X177904094Y-103524329D01*
X177904093Y-103524329D01*
X177904089Y-103524330D01*
X177747809Y-103581211D01*
X177747800Y-103581215D01*
X177603778Y-103664366D01*
X177476368Y-103771276D01*
X177369458Y-103898686D01*
X177286307Y-104042708D01*
X177286303Y-104042717D01*
X177229422Y-104198997D01*
X177229421Y-104199001D01*
X177229421Y-104199002D01*
X177200541Y-104362791D01*
X177200541Y-104425974D01*
X177200535Y-104425989D01*
X177200541Y-104445584D01*
X177200541Y-104479220D01*
X177200550Y-104479295D01*
X177202608Y-111201699D01*
X177202400Y-111206229D01*
X177201411Y-111216915D01*
X177198459Y-111222030D01*
X177198459Y-111248819D01*
X177198251Y-111251067D01*
X177198235Y-111251095D01*
X177198223Y-111251355D01*
X177184530Y-111390376D01*
X177182656Y-111399797D01*
X177142807Y-111531163D01*
X177139131Y-111540037D01*
X177074422Y-111661100D01*
X177069085Y-111669087D01*
X176981996Y-111775204D01*
X176975204Y-111781996D01*
X176869087Y-111869085D01*
X176861100Y-111874422D01*
X176740037Y-111939131D01*
X176731163Y-111942807D01*
X176599797Y-111982656D01*
X176590376Y-111984530D01*
X176451355Y-111998223D01*
X176446552Y-111998459D01*
X174151366Y-111998459D01*
X174146563Y-111998223D01*
X174007541Y-111984530D01*
X173998120Y-111982656D01*
X173866754Y-111942807D01*
X173857880Y-111939131D01*
X173736817Y-111874422D01*
X173728830Y-111869085D01*
X173622713Y-111781996D01*
X173615921Y-111775204D01*
X173528832Y-111669087D01*
X173523497Y-111661103D01*
X173458784Y-111540033D01*
X173455110Y-111531163D01*
X173415261Y-111399797D01*
X173413387Y-111390376D01*
X173399695Y-111251357D01*
X173399459Y-111246550D01*
X173399462Y-111214833D01*
X173399511Y-110553054D01*
X173399533Y-110261303D01*
X174399500Y-110261303D01*
X174399500Y-110438696D01*
X174434103Y-110612656D01*
X174434106Y-110612666D01*
X174501987Y-110776547D01*
X174541726Y-110836021D01*
X174600533Y-110924032D01*
X174725967Y-111049466D01*
X174784640Y-111088670D01*
X174873453Y-111148013D01*
X175037334Y-111215894D01*
X175037340Y-111215895D01*
X175037343Y-111215896D01*
X175211303Y-111250499D01*
X175211309Y-111250500D01*
X175388691Y-111250500D01*
X175562666Y-111215894D01*
X175726547Y-111148013D01*
X175874035Y-111049464D01*
X175999464Y-110924035D01*
X176098013Y-110776547D01*
X176165894Y-110612666D01*
X176200500Y-110438691D01*
X176200500Y-110261309D01*
X176200499Y-110261303D01*
X176165896Y-110087343D01*
X176165893Y-110087332D01*
X176098013Y-109923453D01*
X176021724Y-109809279D01*
X175999466Y-109775967D01*
X175874032Y-109650533D01*
X175786021Y-109591726D01*
X175726547Y-109551987D01*
X175726544Y-109551985D01*
X175726543Y-109551985D01*
X175562667Y-109484106D01*
X175562656Y-109484103D01*
X175388696Y-109449500D01*
X175388691Y-109449500D01*
X175211309Y-109449500D01*
X175211303Y-109449500D01*
X175037343Y-109484103D01*
X175037332Y-109484106D01*
X174873456Y-109551985D01*
X174725967Y-109650533D01*
X174600533Y-109775967D01*
X174501985Y-109923456D01*
X174434106Y-110087332D01*
X174434103Y-110087343D01*
X174399500Y-110261303D01*
X173399533Y-110261303D01*
X173399533Y-110258898D01*
X173399660Y-108552710D01*
X173399812Y-106513389D01*
X174199500Y-106513389D01*
X174199500Y-106514305D01*
X174199500Y-106686610D01*
X174226597Y-106857698D01*
X174226598Y-106857701D01*
X174280127Y-107022446D01*
X174358764Y-107176782D01*
X174358767Y-107176786D01*
X174358768Y-107176788D01*
X174460586Y-107316928D01*
X174460588Y-107316930D01*
X174460591Y-107316934D01*
X174583065Y-107439408D01*
X174583068Y-107439410D01*
X174583072Y-107439414D01*
X174723212Y-107541232D01*
X174723214Y-107541233D01*
X174723217Y-107541235D01*
X174877553Y-107619872D01*
X174877555Y-107619873D01*
X175042299Y-107673402D01*
X175213389Y-107700500D01*
X175213390Y-107700500D01*
X175386610Y-107700500D01*
X175386611Y-107700500D01*
X175557701Y-107673402D01*
X175722445Y-107619873D01*
X175876788Y-107541232D01*
X176016928Y-107439414D01*
X176139414Y-107316928D01*
X176241232Y-107176788D01*
X176319873Y-107022445D01*
X176373402Y-106857701D01*
X176400500Y-106686611D01*
X176400500Y-106513389D01*
X176373402Y-106342299D01*
X176319873Y-106177555D01*
X176241232Y-106023212D01*
X176139414Y-105883072D01*
X176139410Y-105883068D01*
X176139408Y-105883065D01*
X176016934Y-105760591D01*
X176016935Y-105760591D01*
X175876782Y-105658764D01*
X175722446Y-105580127D01*
X175557701Y-105526598D01*
X175557698Y-105526597D01*
X175426271Y-105505781D01*
X175386611Y-105499500D01*
X175213389Y-105499500D01*
X175181192Y-105504599D01*
X175042301Y-105526597D01*
X175042298Y-105526598D01*
X174877553Y-105580127D01*
X174723217Y-105658764D01*
X174583065Y-105760591D01*
X174460591Y-105883065D01*
X174358764Y-106023217D01*
X174280127Y-106177553D01*
X174226598Y-106342298D01*
X174226597Y-106342301D01*
X174199901Y-106510854D01*
X174199746Y-106511834D01*
X174199500Y-106513389D01*
X173399812Y-106513389D01*
X173400497Y-97326933D01*
X173400500Y-97326929D01*
X173400500Y-97300000D01*
X173400500Y-97293429D01*
X173400501Y-97280017D01*
X173400500Y-97280014D01*
X173400500Y-97197648D01*
X173368477Y-96995466D01*
X173305220Y-96800781D01*
X173212287Y-96618390D01*
X173091965Y-96452782D01*
X173091961Y-96452778D01*
X173091959Y-96452775D01*
X172947224Y-96308040D01*
X172947225Y-96308040D01*
X172855276Y-96241235D01*
X172781610Y-96187713D01*
X172599219Y-96094780D01*
X172599218Y-96094779D01*
X172599217Y-96094779D01*
X172404534Y-96031523D01*
X172404531Y-96031522D01*
X172249220Y-96006923D01*
X172202352Y-95999500D01*
X172119991Y-95999500D01*
X140526929Y-95999500D01*
X140500000Y-95999500D01*
X140397648Y-95999500D01*
X140359599Y-96005526D01*
X140195468Y-96031522D01*
X140195465Y-96031523D01*
X140000782Y-96094779D01*
X139818393Y-96187711D01*
X139818390Y-96187712D01*
X139818390Y-96187713D01*
X139744728Y-96241232D01*
X139652775Y-96308040D01*
X139508040Y-96452775D01*
X139508035Y-96452782D01*
X139401438Y-96599500D01*
X139387711Y-96618393D01*
X139294779Y-96800782D01*
X139231523Y-96995465D01*
X139231522Y-96995468D01*
X139199500Y-97197648D01*
X139199500Y-98897854D01*
X139199314Y-98902125D01*
X139184688Y-99069295D01*
X139183204Y-99077706D01*
X139140331Y-99237707D01*
X139137410Y-99245733D01*
X139067403Y-99395866D01*
X139063132Y-99403263D01*
X138968120Y-99538953D01*
X138962630Y-99545496D01*
X138845496Y-99662630D01*
X138838953Y-99668120D01*
X138703263Y-99763132D01*
X138695866Y-99767403D01*
X138545733Y-99837410D01*
X138537707Y-99840331D01*
X138377706Y-99883204D01*
X138369295Y-99884688D01*
X138202126Y-99899314D01*
X138197855Y-99899500D01*
X100501458Y-99899500D01*
X100498552Y-99899414D01*
X100321166Y-99888875D01*
X100315395Y-99888187D01*
X100141937Y-99856977D01*
X100136288Y-99855610D01*
X99967753Y-99804084D01*
X99962305Y-99802058D01*
X99801051Y-99730936D01*
X99795882Y-99728279D01*
X99642937Y-99637827D01*
X99640480Y-99636274D01*
X96698803Y-97652089D01*
X96641428Y-97613389D01*
X99199500Y-97613389D01*
X99199500Y-97614305D01*
X99199500Y-97786610D01*
X99226597Y-97957698D01*
X99226598Y-97957701D01*
X99280127Y-98122446D01*
X99358764Y-98276782D01*
X99358767Y-98276786D01*
X99358768Y-98276788D01*
X99460586Y-98416928D01*
X99460588Y-98416930D01*
X99460591Y-98416934D01*
X99583065Y-98539408D01*
X99583068Y-98539410D01*
X99583072Y-98539414D01*
X99723212Y-98641232D01*
X99723214Y-98641233D01*
X99723217Y-98641235D01*
X99877553Y-98719872D01*
X99877555Y-98719873D01*
X100042299Y-98773402D01*
X100213389Y-98800500D01*
X100213390Y-98800500D01*
X100386610Y-98800500D01*
X100386611Y-98800500D01*
X100557701Y-98773402D01*
X100722445Y-98719873D01*
X100876788Y-98641232D01*
X101016928Y-98539414D01*
X101139414Y-98416928D01*
X101241232Y-98276788D01*
X101319873Y-98122445D01*
X101373402Y-97957701D01*
X101400500Y-97786611D01*
X101400500Y-97613389D01*
X116199500Y-97613389D01*
X116199500Y-97614305D01*
X116199500Y-97786610D01*
X116226597Y-97957698D01*
X116226598Y-97957701D01*
X116280127Y-98122446D01*
X116358764Y-98276782D01*
X116358767Y-98276786D01*
X116358768Y-98276788D01*
X116460586Y-98416928D01*
X116460588Y-98416930D01*
X116460591Y-98416934D01*
X116583065Y-98539408D01*
X116583068Y-98539410D01*
X116583072Y-98539414D01*
X116723212Y-98641232D01*
X116723214Y-98641233D01*
X116723217Y-98641235D01*
X116877553Y-98719872D01*
X116877555Y-98719873D01*
X117042299Y-98773402D01*
X117213389Y-98800500D01*
X117213390Y-98800500D01*
X117386610Y-98800500D01*
X117386611Y-98800500D01*
X117557701Y-98773402D01*
X117722445Y-98719873D01*
X117876788Y-98641232D01*
X118016928Y-98539414D01*
X118139414Y-98416928D01*
X118241232Y-98276788D01*
X118319873Y-98122445D01*
X118373402Y-97957701D01*
X118400500Y-97786611D01*
X118400500Y-97613389D01*
X133299500Y-97613389D01*
X133299500Y-97614305D01*
X133299500Y-97786610D01*
X133326597Y-97957698D01*
X133326598Y-97957701D01*
X133380127Y-98122446D01*
X133458764Y-98276782D01*
X133458767Y-98276786D01*
X133458768Y-98276788D01*
X133560586Y-98416928D01*
X133560588Y-98416930D01*
X133560591Y-98416934D01*
X133683065Y-98539408D01*
X133683068Y-98539410D01*
X133683072Y-98539414D01*
X133823212Y-98641232D01*
X133823214Y-98641233D01*
X133823217Y-98641235D01*
X133977553Y-98719872D01*
X133977555Y-98719873D01*
X134142299Y-98773402D01*
X134313389Y-98800500D01*
X134313390Y-98800500D01*
X134486610Y-98800500D01*
X134486611Y-98800500D01*
X134657701Y-98773402D01*
X134822445Y-98719873D01*
X134976788Y-98641232D01*
X135116928Y-98539414D01*
X135239414Y-98416928D01*
X135341232Y-98276788D01*
X135419873Y-98122445D01*
X135473402Y-97957701D01*
X135500500Y-97786611D01*
X135500500Y-97613389D01*
X135473402Y-97442299D01*
X135419873Y-97277555D01*
X135341232Y-97123212D01*
X135239414Y-96983072D01*
X135239410Y-96983068D01*
X135239408Y-96983065D01*
X135116934Y-96860591D01*
X135116935Y-96860591D01*
X135055694Y-96816097D01*
X134976788Y-96758768D01*
X134976786Y-96758767D01*
X134976782Y-96758764D01*
X134822446Y-96680127D01*
X134657701Y-96626598D01*
X134657698Y-96626597D01*
X134526271Y-96605781D01*
X134486611Y-96599500D01*
X134313389Y-96599500D01*
X134281192Y-96604599D01*
X134142301Y-96626597D01*
X134142298Y-96626598D01*
X133977553Y-96680127D01*
X133823217Y-96758764D01*
X133683065Y-96860591D01*
X133560591Y-96983065D01*
X133458764Y-97123217D01*
X133380127Y-97277553D01*
X133326598Y-97442298D01*
X133326597Y-97442301D01*
X133299901Y-97610854D01*
X133299746Y-97611834D01*
X133299500Y-97613389D01*
X118400500Y-97613389D01*
X118373402Y-97442299D01*
X118319873Y-97277555D01*
X118241232Y-97123212D01*
X118139414Y-96983072D01*
X118139410Y-96983068D01*
X118139408Y-96983065D01*
X118016934Y-96860591D01*
X118016935Y-96860591D01*
X117955694Y-96816097D01*
X117876788Y-96758768D01*
X117876786Y-96758767D01*
X117876782Y-96758764D01*
X117722446Y-96680127D01*
X117557701Y-96626598D01*
X117557698Y-96626597D01*
X117426271Y-96605781D01*
X117386611Y-96599500D01*
X117213389Y-96599500D01*
X117181192Y-96604599D01*
X117042301Y-96626597D01*
X117042298Y-96626598D01*
X116877553Y-96680127D01*
X116723217Y-96758764D01*
X116583065Y-96860591D01*
X116460591Y-96983065D01*
X116358764Y-97123217D01*
X116280127Y-97277553D01*
X116226598Y-97442298D01*
X116226597Y-97442301D01*
X116199901Y-97610854D01*
X116199746Y-97611834D01*
X116199500Y-97613389D01*
X101400500Y-97613389D01*
X101373402Y-97442299D01*
X101319873Y-97277555D01*
X101241232Y-97123212D01*
X101139414Y-96983072D01*
X101139410Y-96983068D01*
X101139408Y-96983065D01*
X101016934Y-96860591D01*
X101016935Y-96860591D01*
X100955694Y-96816097D01*
X100876788Y-96758768D01*
X100876786Y-96758767D01*
X100876782Y-96758764D01*
X100722446Y-96680127D01*
X100557701Y-96626598D01*
X100557698Y-96626597D01*
X100426271Y-96605781D01*
X100386611Y-96599500D01*
X100213389Y-96599500D01*
X100181192Y-96604599D01*
X100042301Y-96626597D01*
X100042298Y-96626598D01*
X99877553Y-96680127D01*
X99723217Y-96758764D01*
X99583065Y-96860591D01*
X99460591Y-96983065D01*
X99358764Y-97123217D01*
X99280127Y-97277553D01*
X99226598Y-97442298D01*
X99226597Y-97442301D01*
X99199901Y-97610854D01*
X99199746Y-97611834D01*
X99199500Y-97613389D01*
X96641428Y-97613389D01*
X95405697Y-96779878D01*
X95397827Y-96770336D01*
X95383758Y-96765080D01*
X95378944Y-96761833D01*
X95378944Y-96761832D01*
X95377057Y-96760560D01*
X95377055Y-96760559D01*
X95368974Y-96758915D01*
X95361598Y-96756801D01*
X95347376Y-96751488D01*
X95347371Y-96751488D01*
X95344852Y-96751910D01*
X95344779Y-96751922D01*
X95339172Y-96752852D01*
X95337878Y-96752589D01*
X95321038Y-96755861D01*
X95320354Y-96755975D01*
X95320299Y-96755962D01*
X95318805Y-96756207D01*
X94869311Y-96816097D01*
X94866032Y-96816422D01*
X94413149Y-96845998D01*
X94409857Y-96846102D01*
X93956004Y-96845181D01*
X93952711Y-96845063D01*
X93499966Y-96813648D01*
X93496689Y-96813310D01*
X93047054Y-96751542D01*
X93043808Y-96750984D01*
X92599370Y-96659149D01*
X92596167Y-96658375D01*
X92158856Y-96536869D01*
X92155714Y-96535880D01*
X91727598Y-96385281D01*
X91724529Y-96384084D01*
X91307495Y-96205055D01*
X91304513Y-96203655D01*
X90900433Y-95997000D01*
X90897552Y-95995402D01*
X90524122Y-95771563D01*
X90523712Y-95771315D01*
X90517408Y-95767452D01*
X90514594Y-95764253D01*
X90502447Y-95758284D01*
X90500506Y-95757095D01*
X90500428Y-95756988D01*
X90499518Y-95756473D01*
X90484250Y-95746609D01*
X90458409Y-95745315D01*
X90457725Y-95745276D01*
X84985835Y-95394522D01*
X84497603Y-95363226D01*
X84497594Y-95363225D01*
X84497561Y-95363223D01*
X84496822Y-95363175D01*
X84492276Y-95362666D01*
X84319786Y-95335139D01*
X84310869Y-95332839D01*
X84148752Y-95274289D01*
X84140433Y-95270364D01*
X84044277Y-95213389D01*
X135999500Y-95213389D01*
X135999500Y-95214305D01*
X135999500Y-95386610D01*
X136026597Y-95557698D01*
X136026598Y-95557701D01*
X136080127Y-95722446D01*
X136158764Y-95876782D01*
X136158767Y-95876786D01*
X136158768Y-95876788D01*
X136260586Y-96016928D01*
X136260588Y-96016930D01*
X136260591Y-96016934D01*
X136383065Y-96139408D01*
X136383068Y-96139410D01*
X136383072Y-96139414D01*
X136523212Y-96241232D01*
X136523214Y-96241233D01*
X136523217Y-96241235D01*
X136573408Y-96266808D01*
X136677555Y-96319873D01*
X136842299Y-96373402D01*
X137013389Y-96400500D01*
X137013390Y-96400500D01*
X137186610Y-96400500D01*
X137186611Y-96400500D01*
X137357701Y-96373402D01*
X137522445Y-96319873D01*
X137676788Y-96241232D01*
X137816928Y-96139414D01*
X137939414Y-96016928D01*
X138041232Y-95876788D01*
X138119873Y-95722445D01*
X138173402Y-95557701D01*
X138200500Y-95386611D01*
X138200500Y-95213389D01*
X138173402Y-95042299D01*
X138119873Y-94877555D01*
X138095791Y-94830291D01*
X138041235Y-94723217D01*
X138041233Y-94723214D01*
X138041232Y-94723212D01*
X137939414Y-94583072D01*
X137939410Y-94583068D01*
X137939408Y-94583065D01*
X137816934Y-94460591D01*
X137816935Y-94460591D01*
X137676782Y-94358764D01*
X137522446Y-94280127D01*
X137357701Y-94226598D01*
X137357698Y-94226597D01*
X137226271Y-94205781D01*
X137186611Y-94199500D01*
X137013389Y-94199500D01*
X136981192Y-94204599D01*
X136842301Y-94226597D01*
X136842298Y-94226598D01*
X136677553Y-94280127D01*
X136523217Y-94358764D01*
X136383065Y-94460591D01*
X136260591Y-94583065D01*
X136158764Y-94723217D01*
X136080127Y-94877553D01*
X136026598Y-95042298D01*
X136026597Y-95042301D01*
X136004765Y-95180145D01*
X135999746Y-95211834D01*
X135999500Y-95213389D01*
X84044277Y-95213389D01*
X83992153Y-95182504D01*
X83984706Y-95177085D01*
X83855496Y-95063016D01*
X83849192Y-95056295D01*
X83743625Y-94920057D01*
X83738691Y-94912275D01*
X83719787Y-94875143D01*
X83660495Y-94758679D01*
X83657106Y-94750111D01*
X83649296Y-94723212D01*
X83609049Y-94584590D01*
X83607326Y-94575551D01*
X83595230Y-94447591D01*
X83598744Y-94424228D01*
X83600500Y-94419991D01*
X83600500Y-89963389D01*
X84499500Y-89963389D01*
X84499500Y-89964305D01*
X84499500Y-90136610D01*
X84526597Y-90307698D01*
X84526598Y-90307701D01*
X84580127Y-90472446D01*
X84658764Y-90626782D01*
X84658767Y-90626786D01*
X84658768Y-90626788D01*
X84760586Y-90766928D01*
X84760588Y-90766930D01*
X84760591Y-90766934D01*
X84883065Y-90889408D01*
X84883068Y-90889410D01*
X84883072Y-90889414D01*
X85023212Y-90991232D01*
X85023214Y-90991233D01*
X85023217Y-90991235D01*
X85177553Y-91069872D01*
X85177555Y-91069873D01*
X85342299Y-91123402D01*
X85513389Y-91150500D01*
X85513390Y-91150500D01*
X85686610Y-91150500D01*
X85686611Y-91150500D01*
X85857701Y-91123402D01*
X86022445Y-91069873D01*
X86176788Y-90991232D01*
X86316928Y-90889414D01*
X86439414Y-90766928D01*
X86541232Y-90626788D01*
X86619873Y-90472445D01*
X86673402Y-90307701D01*
X86700500Y-90136611D01*
X86700500Y-89963389D01*
X86673402Y-89792299D01*
X86619873Y-89627555D01*
X86543534Y-89477730D01*
X86541235Y-89473217D01*
X86541233Y-89473214D01*
X86541232Y-89473212D01*
X86439414Y-89333072D01*
X86439410Y-89333068D01*
X86439408Y-89333065D01*
X86316934Y-89210591D01*
X86316935Y-89210591D01*
X86205352Y-89129521D01*
X86176788Y-89108768D01*
X86176786Y-89108767D01*
X86176782Y-89108764D01*
X86022446Y-89030127D01*
X85857701Y-88976598D01*
X85857698Y-88976597D01*
X85726271Y-88955781D01*
X85686611Y-88949500D01*
X85513389Y-88949500D01*
X85481192Y-88954599D01*
X85342301Y-88976597D01*
X85342298Y-88976598D01*
X85177553Y-89030127D01*
X85023217Y-89108764D01*
X84883065Y-89210591D01*
X84760591Y-89333065D01*
X84658764Y-89473217D01*
X84580127Y-89627553D01*
X84526598Y-89792298D01*
X84526597Y-89792301D01*
X84499901Y-89960854D01*
X84499746Y-89961834D01*
X84499500Y-89963389D01*
X83600500Y-89963389D01*
X83600500Y-85702309D01*
X83600717Y-85697702D01*
X83602388Y-85680009D01*
X83617138Y-85523818D01*
X83618858Y-85514789D01*
X83666896Y-85349276D01*
X83670282Y-85340717D01*
X83748453Y-85187130D01*
X83753381Y-85179356D01*
X83858921Y-85043120D01*
X83865210Y-85036411D01*
X83994405Y-84922328D01*
X84001836Y-84916919D01*
X84150091Y-84829046D01*
X84158415Y-84825119D01*
X84320502Y-84766553D01*
X84329395Y-84764257D01*
X84501889Y-84736702D01*
X84506438Y-84736193D01*
X84531024Y-84734611D01*
X84531024Y-84734610D01*
X84532035Y-84734545D01*
X90457805Y-84354716D01*
X90458450Y-84354680D01*
X90484251Y-84353390D01*
X90499598Y-84343474D01*
X90500506Y-84342903D01*
X90502443Y-84341715D01*
X90514593Y-84335747D01*
X90517408Y-84332545D01*
X90523715Y-84328681D01*
X90523853Y-84328659D01*
X90524122Y-84328435D01*
X90897582Y-84104579D01*
X90900403Y-84103014D01*
X91304530Y-83896335D01*
X91307480Y-83894950D01*
X91724539Y-83715910D01*
X91727589Y-83714720D01*
X92155722Y-83564115D01*
X92158850Y-83563130D01*
X92596184Y-83441618D01*
X92599353Y-83440853D01*
X93043824Y-83349011D01*
X93047040Y-83348458D01*
X93496708Y-83286686D01*
X93499949Y-83286351D01*
X93952732Y-83254934D01*
X93955985Y-83254817D01*
X94409868Y-83253896D01*
X94413141Y-83253999D01*
X94866047Y-83283577D01*
X94869298Y-83283899D01*
X95318843Y-83343795D01*
X95320344Y-83344020D01*
X95320996Y-83344128D01*
X95337879Y-83347410D01*
X95339177Y-83347145D01*
X95344365Y-83348006D01*
X95344788Y-83348077D01*
X95344799Y-83348084D01*
X95344858Y-83348088D01*
X95347376Y-83348511D01*
X95365204Y-83341850D01*
X95377058Y-83339439D01*
X95383759Y-83334918D01*
X95397828Y-83329663D01*
X95401184Y-83325593D01*
X95411580Y-83316152D01*
X96898238Y-82313389D01*
X99199500Y-82313389D01*
X99199500Y-82314305D01*
X99199500Y-82486610D01*
X99226597Y-82657698D01*
X99226598Y-82657701D01*
X99280127Y-82822446D01*
X99358764Y-82976782D01*
X99358767Y-82976786D01*
X99358768Y-82976788D01*
X99460586Y-83116928D01*
X99460588Y-83116930D01*
X99460591Y-83116934D01*
X99583065Y-83239408D01*
X99583068Y-83239410D01*
X99583072Y-83239414D01*
X99723212Y-83341232D01*
X99723214Y-83341233D01*
X99723217Y-83341235D01*
X99877553Y-83419872D01*
X99877555Y-83419873D01*
X100042299Y-83473402D01*
X100213389Y-83500500D01*
X100213390Y-83500500D01*
X100386610Y-83500500D01*
X100386611Y-83500500D01*
X100557701Y-83473402D01*
X100722445Y-83419873D01*
X100876788Y-83341232D01*
X101016928Y-83239414D01*
X101139414Y-83116928D01*
X101241232Y-82976788D01*
X101319873Y-82822445D01*
X101373402Y-82657701D01*
X101400500Y-82486611D01*
X101400500Y-82313389D01*
X102699500Y-82313389D01*
X102699500Y-82314305D01*
X102699500Y-82486610D01*
X102726597Y-82657698D01*
X102726598Y-82657701D01*
X102780127Y-82822446D01*
X102858764Y-82976782D01*
X102858767Y-82976786D01*
X102858768Y-82976788D01*
X102960586Y-83116928D01*
X102960588Y-83116930D01*
X102960591Y-83116934D01*
X103083065Y-83239408D01*
X103083068Y-83239410D01*
X103083072Y-83239414D01*
X103223212Y-83341232D01*
X103223214Y-83341233D01*
X103223217Y-83341235D01*
X103377553Y-83419872D01*
X103377555Y-83419873D01*
X103542299Y-83473402D01*
X103713389Y-83500500D01*
X103713390Y-83500500D01*
X103886610Y-83500500D01*
X103886611Y-83500500D01*
X104057701Y-83473402D01*
X104222445Y-83419873D01*
X104376788Y-83341232D01*
X104516928Y-83239414D01*
X104639414Y-83116928D01*
X104741232Y-82976788D01*
X104819873Y-82822445D01*
X104873402Y-82657701D01*
X104900500Y-82486611D01*
X104900500Y-82313389D01*
X116199500Y-82313389D01*
X116199500Y-82314305D01*
X116199500Y-82486610D01*
X116226597Y-82657698D01*
X116226598Y-82657701D01*
X116280127Y-82822446D01*
X116358764Y-82976782D01*
X116358767Y-82976786D01*
X116358768Y-82976788D01*
X116460586Y-83116928D01*
X116460588Y-83116930D01*
X116460591Y-83116934D01*
X116583065Y-83239408D01*
X116583068Y-83239410D01*
X116583072Y-83239414D01*
X116723212Y-83341232D01*
X116723214Y-83341233D01*
X116723217Y-83341235D01*
X116877553Y-83419872D01*
X116877555Y-83419873D01*
X117042299Y-83473402D01*
X117213389Y-83500500D01*
X117213390Y-83500500D01*
X117386610Y-83500500D01*
X117386611Y-83500500D01*
X117557701Y-83473402D01*
X117722445Y-83419873D01*
X117876788Y-83341232D01*
X118016928Y-83239414D01*
X118139414Y-83116928D01*
X118241232Y-82976788D01*
X118319873Y-82822445D01*
X118373402Y-82657701D01*
X118400500Y-82486611D01*
X118400500Y-82313389D01*
X133299500Y-82313389D01*
X133299500Y-82314305D01*
X133299500Y-82486610D01*
X133326597Y-82657698D01*
X133326598Y-82657701D01*
X133380127Y-82822446D01*
X133458764Y-82976782D01*
X133458767Y-82976786D01*
X133458768Y-82976788D01*
X133560586Y-83116928D01*
X133560588Y-83116930D01*
X133560591Y-83116934D01*
X133683065Y-83239408D01*
X133683068Y-83239410D01*
X133683072Y-83239414D01*
X133823212Y-83341232D01*
X133823214Y-83341233D01*
X133823217Y-83341235D01*
X133977553Y-83419872D01*
X133977555Y-83419873D01*
X134142299Y-83473402D01*
X134313389Y-83500500D01*
X134313390Y-83500500D01*
X134486610Y-83500500D01*
X134486611Y-83500500D01*
X134657701Y-83473402D01*
X134822445Y-83419873D01*
X134976788Y-83341232D01*
X135116928Y-83239414D01*
X135239414Y-83116928D01*
X135341232Y-82976788D01*
X135419873Y-82822445D01*
X135473402Y-82657701D01*
X135500500Y-82486611D01*
X135500500Y-82313389D01*
X135473402Y-82142299D01*
X135419873Y-81977555D01*
X135341232Y-81823212D01*
X135239414Y-81683072D01*
X135239410Y-81683068D01*
X135239408Y-81683065D01*
X135116934Y-81560591D01*
X135116935Y-81560591D01*
X134976782Y-81458764D01*
X134822446Y-81380127D01*
X134657701Y-81326598D01*
X134657698Y-81326597D01*
X134526271Y-81305781D01*
X134486611Y-81299500D01*
X134313389Y-81299500D01*
X134281192Y-81304599D01*
X134142301Y-81326597D01*
X134142298Y-81326598D01*
X133977553Y-81380127D01*
X133823217Y-81458764D01*
X133683065Y-81560591D01*
X133560591Y-81683065D01*
X133458764Y-81823217D01*
X133380127Y-81977553D01*
X133326598Y-82142298D01*
X133326597Y-82142301D01*
X133306238Y-82270843D01*
X133299746Y-82311834D01*
X133299500Y-82313389D01*
X118400500Y-82313389D01*
X118373402Y-82142299D01*
X118319873Y-81977555D01*
X118241232Y-81823212D01*
X118139414Y-81683072D01*
X118139410Y-81683068D01*
X118139408Y-81683065D01*
X118016934Y-81560591D01*
X118016935Y-81560591D01*
X117876782Y-81458764D01*
X117722446Y-81380127D01*
X117557701Y-81326598D01*
X117557698Y-81326597D01*
X117426271Y-81305781D01*
X117386611Y-81299500D01*
X117213389Y-81299500D01*
X117181192Y-81304599D01*
X117042301Y-81326597D01*
X117042298Y-81326598D01*
X116877553Y-81380127D01*
X116723217Y-81458764D01*
X116583065Y-81560591D01*
X116460591Y-81683065D01*
X116358764Y-81823217D01*
X116280127Y-81977553D01*
X116226598Y-82142298D01*
X116226597Y-82142301D01*
X116206238Y-82270843D01*
X116199746Y-82311834D01*
X116199500Y-82313389D01*
X104900500Y-82313389D01*
X104873402Y-82142299D01*
X104819873Y-81977555D01*
X104741232Y-81823212D01*
X104639414Y-81683072D01*
X104639410Y-81683068D01*
X104639408Y-81683065D01*
X104516934Y-81560591D01*
X104516935Y-81560591D01*
X104376782Y-81458764D01*
X104222446Y-81380127D01*
X104057701Y-81326598D01*
X104057698Y-81326597D01*
X103926271Y-81305781D01*
X103886611Y-81299500D01*
X103713389Y-81299500D01*
X103681192Y-81304599D01*
X103542301Y-81326597D01*
X103542298Y-81326598D01*
X103377553Y-81380127D01*
X103223217Y-81458764D01*
X103083065Y-81560591D01*
X102960591Y-81683065D01*
X102858764Y-81823217D01*
X102780127Y-81977553D01*
X102726598Y-82142298D01*
X102726597Y-82142301D01*
X102706238Y-82270843D01*
X102699746Y-82311834D01*
X102699500Y-82313389D01*
X101400500Y-82313389D01*
X101373402Y-82142299D01*
X101319873Y-81977555D01*
X101241232Y-81823212D01*
X101139414Y-81683072D01*
X101139410Y-81683068D01*
X101139408Y-81683065D01*
X101016934Y-81560591D01*
X101016935Y-81560591D01*
X100876782Y-81458764D01*
X100722446Y-81380127D01*
X100557701Y-81326598D01*
X100557698Y-81326597D01*
X100426271Y-81305781D01*
X100386611Y-81299500D01*
X100213389Y-81299500D01*
X100181192Y-81304599D01*
X100042301Y-81326597D01*
X100042298Y-81326598D01*
X99877553Y-81380127D01*
X99723217Y-81458764D01*
X99583065Y-81560591D01*
X99460591Y-81683065D01*
X99358764Y-81823217D01*
X99280127Y-81977553D01*
X99226598Y-82142298D01*
X99226597Y-82142301D01*
X99206238Y-82270843D01*
X99199746Y-82311834D01*
X99199500Y-82313389D01*
X96898238Y-82313389D01*
X99640499Y-80463711D01*
X99642936Y-80462171D01*
X99795890Y-80371714D01*
X99801038Y-80369068D01*
X99962317Y-80297935D01*
X99967739Y-80295919D01*
X100136303Y-80244384D01*
X100141919Y-80243026D01*
X100315400Y-80211811D01*
X100321161Y-80211124D01*
X100498552Y-80200585D01*
X100501454Y-80200500D01*
X100526929Y-80200500D01*
X100526929Y-80200498D01*
X100528049Y-80200497D01*
X138197860Y-80199645D01*
X138202130Y-80199830D01*
G37*
G04 #@! TD.AperFunction*
M02*
